<svg width="643" height="684" viewBox="0 0 643 684" fill="none" xmlns="http://www.w3.org/2000/svg">
<path fill-rule="evenodd" clip-rule="evenodd" d="M499.67 424.866C488.763 429.131 476.145 435.532 474.975 447.185C489.792 435.786 508.094 428.983 526.759 427.938C513.864 444.184 497.582 457.729 479.261 467.451C462.807 476.182 441.976 485.494 440.565 504.067C458.235 483.025 485.404 470.286 512.881 470.159C495.302 495.906 467.114 514.169 436.431 519.69C437.484 527.602 471.504 544.548 481.413 547.809C488.47 578.126 491.527 617.442 498.584 647.759C500.32 655.22 501.849 663.792 497.281 669.941C492.749 676.04 484.19 677.09 476.61 677.628C446.737 679.752 405.863 681.876 375.989 683.999C372.413 667.795 368.836 651.591 365.259 635.386C314.869 640.065 98.8416 689.569 59.1975 663.599C-93.8417 563.345 101.31 529.194 105.504 407.135C106.465 379.148 22.3191 330.226 23.655 301.628C24.5274 282.954 27.4182 264.713 36.6573 248.678C45.8965 232.644 60.5367 220.292 76.4489 210.844C54.5416 205.213 37.9479 183.375 38.3919 160.76C38.8358 138.145 56.2738 116.975 78.3852 112.209C67.9601 99.7853 51.5446 94.0912 39.5541 83.1712C25.5861 70.4503 18.5671 49.93 23.655 31.7355C28.743 13.541 46.6573 -0.774139 65.5326 0.0324868C81.0371 0.695058 94.6813 10.5013 105.504 21.6233C122.288 38.8722 134.771 60.2757 141.52 83.3776C146.018 98.7758 162.504 106.609 176.427 114.578C190.35 122.547 204.808 136.428 200.885 151.982C195.699 130.697 272.777 156.05 342.682 162.257C351.963 163.081 361.952 164.28 368.812 170.585C378.672 179.645 393.475 182.95 406.251 178.943C410.316 189.02 413.307 200.339 409.851 210.641C406.396 220.943 394.156 228.806 384.372 224.08C386.926 237.219 389.48 250.359 392.034 263.498C417.05 263.799 442.063 264.31 467.071 265.031C480.325 265.413 494.178 266.016 505.698 272.582C517.217 279.149 532.635 269.846 544.018 245.945C536.651 284.945 545.38 300.528 560.431 304.765C560.462 304.47 561.632 304.611 561.666 304.316C566.148 265.776 592.299 231.557 628.695 218.02C625.476 225.436 602.448 240.085 586.458 258.792C570.837 277.065 563.361 301.528 562.587 305.921C587.389 299.418 595.657 317.895 637.735 301.628C618.508 324.745 581.455 330.437 556.175 314.157C544.249 327.458 544.916 342.186 536.467 357.927C550.819 340.09 569.876 355.904 554.758 367.465C562.782 368.236 571.458 369.293 577.278 374.87C583.099 380.447 583.244 392.185 575.736 395.121C550.381 405.036 525.026 414.951 499.67 424.866Z" fill="#64FCD9"/>
<path fill-rule="evenodd" clip-rule="evenodd" d="M458.513 336.969C459.431 335.224 460.428 333.394 462.117 332.378C463.806 331.361 466.397 331.571 467.307 333.32C468.275 335.182 466.835 337.426 465.144 338.668C463.453 339.911 461.374 340.787 460.276 342.575C466.213 346.487 472.15 350.399 478.087 354.311C482.737 357.376 487.998 361.752 487.047 367.239C486.488 370.456 483.762 372.957 480.725 374.157C477.689 375.357 474.35 375.482 471.086 375.576C449.151 376.208 427.194 376.097 405.266 375.243C403.745 375.184 402.048 375.042 401.034 373.906C400.249 373.025 400.087 371.77 399.96 370.597C398.698 358.926 397.436 347.255 396.174 335.583C396.127 335.152 396.083 334.702 396.237 334.297C396.887 332.593 399.436 333.643 400.861 334.78C410.955 342.837 427.093 341.891 436.176 332.709C438.371 330.49 442.107 330.777 444.926 332.115C447.746 333.452 450.105 335.628 452.933 336.947C452.632 335.311 454.074 333.586 455.737 333.593C457.4 333.599 458.828 335.336 458.513 336.969Z" fill="white"/>
<path fill-rule="evenodd" clip-rule="evenodd" d="M105.278 208.155C105.278 208.155 102.827 178.805 108.995 169.37C115.163 159.935 138.656 157.095 138.656 157.095C138.656 157.095 203.047 156.253 237.837 157.583C272.628 158.913 342.207 164.876 342.207 164.876C342.207 164.876 351.248 166.848 355.312 169.37C359.377 171.893 365.045 179.05 365.045 179.05C365.045 179.05 377.381 180.849 383.518 181.093C389.654 181.338 395.277 180.255 395.277 180.255C395.277 180.255 403.098 203.063 397.569 213.935C392.04 224.806 373.476 223.12 373.476 223.12L380.048 263.806C380.048 263.806 372.235 267.498 367.965 272.127C363.696 276.757 361.981 283.395 361.981 283.395L374.671 407.135C374.671 407.135 378.404 413.567 386.423 416.01C394.442 418.452 412.509 418.66 412.509 418.66C412.509 418.66 411.865 431.137 412.509 436.507C413.153 441.876 413.728 444.818 413.728 444.818L427.33 542.196C427.33 542.196 414.109 544.601 401.027 547.775C387.945 550.949 361.981 558.05 361.981 558.05C361.981 558.05 352.828 562.223 351.642 568.961C350.457 575.698 355.312 595.946 355.312 595.946L209.554 607.056C209.554 607.056 195.37 607.323 190.492 604.249C185.613 601.175 184.276 591.128 184.276 591.128L164.561 413.807C164.561 413.807 133.056 414.578 123.855 409.325C114.653 404.071 113.541 384.677 113.541 384.677C113.541 384.677 115.069 373.684 113.541 366.055C113.031 363.51 106.367 335.916 104.129 309.661C102.862 294.804 120.344 283.395 120.344 283.395L105.278 208.155Z" fill="white"/>
<path fill-rule="evenodd" clip-rule="evenodd" d="M208.126 167.334C206.992 168.931 207.941 171.315 209.579 172.39C211.217 173.465 213.281 173.586 215.238 173.674C236.502 174.631 257.765 175.588 279.029 176.545C281.101 176.638 283.395 176.658 284.965 175.303C286.535 173.948 286.328 170.715 284.279 170.389C260.635 166.63 236.641 165.069 212.708 165.732C211.028 165.779 209.099 165.963 208.126 167.334" fill="#E7EAEE"/>
<path fill-rule="evenodd" clip-rule="evenodd" d="M302.731 319.74L297.205 293.809C297.205 293.809 296.947 299.156 294.022 301.331C291.096 303.506 285.312 302.651 285.312 302.651C285.312 302.651 284.396 284.544 288.467 279.03C292.539 273.516 296.55 278.723 304.284 276.959C312.011 275.197 310.41 269.393 319.389 271.977C328.368 274.562 335.002 293.778 335.002 293.778C335.002 293.778 327.962 296.137 324.966 295.532C321.971 294.927 322.701 291.294 322.701 291.294C322.701 291.294 320.578 290.39 321.119 296.761C321.382 299.856 323.725 304.511 324.966 310.599C325.429 312.867 324.966 317.962 324.966 317.962C324.966 317.962 316.977 318.777 310.073 320.254C303.169 321.732 302.731 319.74 302.731 319.74Z" fill="#E7EAEE"/>
<path fill-rule="evenodd" clip-rule="evenodd" d="M106.555 255.239C103.896 253.807 101.733 251.623 99.6135 249.471C94.1457 243.921 88.6096 238.281 84.8158 231.476C84.4546 230.828 84.0994 230.084 84.3077 229.372C84.516 228.66 85.6031 228.256 86.0095 228.877C92.6039 238.944 100.932 247.873 110.516 255.152C109.654 256.31 107.827 255.923 106.555 255.239Z" fill="#00160A"/>
<path fill-rule="evenodd" clip-rule="evenodd" d="M114.521 127.821C116.092 126.202 116.93 124.025 117.653 121.888C119.909 115.226 121.447 108.321 122.23 101.331C122.371 100.072 122.602 98.6221 123.695 97.9805C124.923 103.974 123.401 110.151 121.888 116.079C120.558 121.29 119.085 126.762 115.313 130.596C114.931 130.984 114.444 131.379 113.907 131.29C113.183 131.169 112.893 130.207 113.152 129.52C113.41 128.834 114.01 128.347 114.521 127.821L114.521 127.821Z" fill="#00160A"/>
<path fill-rule="evenodd" clip-rule="evenodd" d="M493.722 180.097C494.47 179.897 495.231 180.487 495.557 181.189C495.883 181.891 495.907 182.689 496.052 183.449C496.62 186.42 499.298 188.857 502.308 189.143C502.683 190.016 501.853 190.889 501.197 191.576C499.703 193.139 498.76 195.218 498.568 197.372C498.444 198.769 498.15 200.714 496.747 200.695C495.62 200.681 495.125 199.317 494.719 198.265C493.727 195.696 491.489 193.641 488.845 192.871C488.29 192.71 488.057 192 488.209 191.443C488.362 190.885 488.785 190.449 489.189 190.035C490.926 188.253 492.689 186.142 492.67 183.654C492.66 182.308 492.422 180.445 493.722 180.097Z" fill="#FFB61D"/>
<path fill-rule="evenodd" clip-rule="evenodd" d="M546.38 413.901C544.047 416.298 543.221 420.05 544.331 423.205C543.102 423.754 542.183 422.06 541.574 420.859C540.662 419.055 538.936 417.684 536.974 417.201C539.816 415.408 541.585 412.034 541.443 408.676C542.586 407.931 543.865 409.483 544.193 410.807C544.522 412.132 545.016 413.854 546.38 413.901Z" fill="#E7EAEE"/>
<path fill-rule="evenodd" clip-rule="evenodd" d="M526.472 418.396C527.824 420.542 529.748 422.326 531.991 423.512C532.797 423.938 532.066 425.125 531.401 425.747C529.724 427.314 528.663 429.523 528.486 431.811C527.019 430.341 525.553 428.872 524.087 427.402C523.501 426.816 522.884 425.906 523.388 425.248C524.926 423.243 525.991 420.877 526.472 418.396Z" fill="#E7EAEE"/>
<path fill-rule="evenodd" clip-rule="evenodd" d="M428.524 159.942C429.859 151.444 433.084 143.092 438.751 136.62C444.418 130.148 452.691 125.73 461.293 125.737C469.895 125.744 478.582 130.616 482.157 138.44C484.007 142.489 484.461 147.046 484.335 151.495C484.096 159.957 481.823 168.354 477.762 175.782C474.099 182.479 468.834 188.503 461.999 191.901C455.163 195.298 446.644 195.755 439.999 191.999C434.737 189.025 431.056 183.687 429.302 177.903C427.548 172.119 427.587 165.912 428.524 159.942M481.101 153.511C481.256 148.242 480.387 142.801 477.616 138.317C475.932 135.59 473.572 133.284 470.808 131.663C461.893 126.435 449.759 129.244 442.354 136.453C434.949 143.663 431.74 154.319 431.409 164.649C431.233 170.159 431.825 175.809 434.168 180.799C436.51 185.789 440.797 190.057 446.136 191.429C453.123 193.223 460.496 189.845 465.974 185.152C475.114 177.322 480.747 165.541 481.101 153.511Z" fill="#FFB61D"/>
<path fill-rule="evenodd" clip-rule="evenodd" d="M516.551 154.041C515.129 155.901 513.641 158.343 514.733 160.415C515.123 161.156 514.113 162.018 513.309 161.784C512.504 161.55 512.047 160.701 511.833 159.891C511.619 159.081 511.549 158.212 511.12 157.493C510.69 156.774 509.714 156.275 509.003 156.718C507.992 156.598 507.888 155.074 508.476 154.242C509.064 153.41 510.03 152.838 510.391 151.885C510.677 151.131 510.524 150.285 510.659 149.49C510.795 148.695 511.472 147.846 512.252 148.049C512.226 149.446 512.388 150.896 513.097 152.101C513.806 153.306 515.163 154.207 516.551 154.041Z" fill="#FFB61D"/>
<path fill-rule="evenodd" clip-rule="evenodd" d="M389.305 151.288C390.417 149.994 391.814 148.888 393.453 148.417C395.093 147.946 396.994 148.194 398.274 149.321C399.667 150.548 400.104 152.597 399.808 154.429C399.511 156.26 398.587 157.925 397.615 159.506C396.354 161.557 394.984 163.541 393.513 165.448C393.054 166.044 392.55 166.658 391.846 166.923C390.917 167.274 389.881 166.933 388.964 166.55C385.744 165.203 382.751 163.315 380.149 160.988C377.767 158.857 375.57 155.733 376.535 152.686C377.15 150.745 379.028 149.34 381.042 149.041C383.057 148.741 385.144 149.451 386.746 150.708C387.512 151.31 388.67 152.026 389.305 151.288M379.131 152.415C377.61 154.508 379.261 157.439 381.178 159.176C383.569 161.344 386.408 162.946 389.221 164.529C389.582 164.732 389.986 164.943 390.392 164.855C390.753 164.777 391.021 164.481 391.259 164.199C393.165 161.941 394.871 159.516 396.353 156.96C397.493 154.994 398.33 152.106 396.494 150.767C395.04 149.709 392.922 150.562 391.69 151.871C390.458 153.181 389.683 154.89 388.336 156.082C387.285 154.425 386.167 152.703 384.462 151.731C382.757 150.758 380.285 150.828 379.131 152.415H379.131Z" fill="#FFB61D"/>
<path fill-rule="evenodd" clip-rule="evenodd" d="M367.521 94.103C371.008 91.3844 374.885 89.1666 378.996 87.5387C381.516 86.5407 384.392 85.7726 386.883 86.8413C390.874 88.5538 391.652 94.2851 389.552 98.0868C387.452 101.888 383.469 104.193 379.677 106.311C372.241 110.464 364.805 114.618 357.37 118.771C358.834 115.848 357.182 112.418 355.829 109.442C352.782 102.74 351.187 95.3817 351.186 88.0195C351.185 85.6938 351.359 83.2981 352.379 81.2081C353.4 79.1181 355.436 77.3848 357.761 77.3301C361.481 77.2425 363.955 81.1171 365.21 84.6207C366.309 87.6889 367.085 90.8729 367.521 94.103ZM383.28 88.7745C377.266 89.9964 371.663 93.1603 367.511 97.6787C367.102 98.1237 366.307 97.9276 365.933 97.4524C365.56 96.9772 365.488 96.34 365.417 95.7398C364.949 91.765 363.909 87.858 362.341 84.1758C361.466 82.1231 360.002 79.8562 357.771 79.8201C356.118 79.7933 354.679 81.1174 354.069 82.6545C353.46 84.1916 353.511 85.9027 353.628 87.5523C354.28 96.7519 356.701 105.823 360.718 114.125C367.296 110.439 373.874 106.752 380.452 103.066C382.505 101.916 384.594 100.737 386.189 99.0086C387.785 97.2798 388.835 94.8777 388.371 92.5711C387.908 90.2646 385.586 88.3061 383.28 88.7745Z" fill="#FFB61D"/>
<path fill-rule="evenodd" clip-rule="evenodd" d="M321.493 549.766C340.693 547.578 360.016 546.477 379.339 546.469C382.884 546.467 385.968 543.713 387.408 540.474C388.848 537.236 388.963 533.582 388.965 530.037C388.972 516.867 387.733 503.732 386.496 490.62C385.994 485.303 385.493 479.985 384.991 474.668C384.686 471.441 384.363 468.143 383.005 465.2C380.647 460.094 375.426 456.774 369.987 455.344C364.548 453.914 358.831 454.11 353.211 454.316C334.551 454.999 315.891 455.682 297.231 456.365C307.987 452.421 319.702 452.236 331.159 452.096C339.942 451.988 348.725 451.881 357.508 451.774C366.485 451.664 376.743 452.115 382.47 459.029C386.17 463.496 386.986 469.613 387.605 475.38C389.552 493.538 390.978 511.752 391.881 529.992C392.181 536.037 391.939 543.14 387.017 546.662C384.264 548.632 380.693 548.927 377.316 549.156C356.752 550.549 336.188 551.942 315.625 553.335C310.796 553.662 305.708 553.941 301.364 551.807C299.855 551.066 298.305 549.389 299.115 547.917C305.8 551.557 313.93 550.628 321.493 549.766Z" fill="#00160A"/>
<path fill-rule="evenodd" clip-rule="evenodd" d="M240.165 258.484C240.55 259.06 240.638 259.778 240.715 260.466C240.895 262.068 241.075 263.671 241.255 265.274C241.469 267.175 241.513 269.475 239.936 270.56C239.096 271.138 238.012 271.185 236.993 271.213C215.541 271.793 194.09 272.372 172.639 272.952C171.259 272.989 169.662 272.929 168.816 271.838C168.285 271.154 168.203 270.233 168.154 269.368C167.997 266.65 167.954 263.927 168.023 261.206C168.034 260.791 168.058 260.346 168.315 260.021C168.623 259.631 169.166 259.536 169.658 259.469C191.823 256.466 214.286 255.674 236.607 257.106C237.925 257.191 239.431 257.387 240.165 258.484M239.284 268.91C237.105 267.733 239.3 264.283 238.508 261.937C237.827 259.922 235.241 259.445 233.117 259.324C212.891 258.172 192.559 258.891 172.464 261.467C171.724 261.562 170.903 261.704 170.454 262.3C170.01 262.889 170.09 263.706 170.191 264.436C170.348 265.566 170.504 266.696 170.66 267.827C170.784 268.717 170.972 269.716 171.72 270.215C172.263 270.577 172.962 270.573 173.613 270.557C195.503 270.008 217.394 269.459 239.284 268.91Z" fill="#00160A"/>
<path fill-rule="evenodd" clip-rule="evenodd" d="M280.518 296.461C280.62 294.081 280.722 291.7 280.824 289.319C281.024 284.676 281.267 279.86 283.425 275.745C285.583 271.629 290.24 268.431 294.763 269.5C297.591 270.169 300.2 272.393 303.045 271.796C305.522 271.276 307.041 268.827 309.134 267.403C314.123 264.009 321.076 267.162 325.202 271.565C329.648 276.311 332.539 282.491 333.33 288.946C333.397 289.494 333.431 290.109 333.078 290.534C332.786 290.885 332.308 291.007 331.862 291.109C330.145 291.503 328.428 291.896 326.71 292.289C325.248 292.624 323.731 292.96 322.262 292.656C320.792 292.352 319.382 291.219 319.263 289.724C318.825 298.082 325.084 306.066 323.34 314.252C322.691 313.898 322.043 313.543 321.394 313.189C322.924 304.98 315.609 297.033 317.136 288.824C317.338 287.737 317.774 286.581 318.745 286.053C319.717 285.526 321.253 286.125 321.215 287.23C321.154 288.999 323.063 290.321 324.834 290.306C326.604 290.291 328.214 289.342 329.727 288.421C330.265 288.094 330.118 287.283 329.893 286.694C328.22 282.303 326.019 278.113 323.354 274.242C321.553 271.626 319.382 269.04 316.389 267.978C313.396 266.915 309.442 267.999 308.34 270.978C307.051 274.465 302.177 274.7 298.598 273.695C295.019 272.689 291.002 271.12 287.809 273.023C285.138 274.615 284.244 278.007 283.744 281.075C282.886 286.339 282.49 291.678 282.562 297.011C282.707 297.825 283.744 298.087 284.571 298.066C288.924 297.953 292.967 294.519 293.782 290.241C294.955 291.59 295.374 293.418 295.754 295.165C297.068 301.216 298.382 307.267 299.696 313.318C300.101 315.181 299.628 318.044 297.753 317.705C296.903 311.105 295.644 304.559 293.985 298.115C290.849 298.828 287.714 299.54 284.578 300.253C283.616 300.472 282.54 300.674 281.698 300.16C280.536 299.45 280.46 297.822 280.518 296.461Z" fill="#00160A"/>
<path fill-rule="evenodd" clip-rule="evenodd" d="M372.248 460.802C373.848 462.536 371.362 465.737 372.827 467.585C373.588 468.545 373.046 470.067 372.038 470.762C371.031 471.457 369.74 471.55 368.518 471.621C347.511 472.842 326.504 474.063 305.497 475.283C304.069 475.366 302.363 475.318 301.583 474.119C301.242 473.596 301.159 472.951 301.086 472.33C300.894 470.716 300.702 469.102 300.51 467.487C300.45 466.981 300.396 466.438 300.635 465.987C301.027 465.243 302.003 465.081 302.841 465.007C324.919 463.059 347.022 461.411 369.145 460.066C370.244 459.999 371.501 459.993 372.248 460.802ZM369.837 463.529C369.769 463.131 369.679 462.695 369.36 462.446C369.043 462.198 368.599 462.215 368.197 462.245C348.609 463.673 329.021 465.1 309.433 466.528C307.85 466.644 306.208 466.776 304.825 467.556C303.442 468.336 302.4 469.961 302.815 471.493C302.943 471.968 303.217 472.419 303.638 472.674C304.153 472.986 304.797 472.963 305.399 472.931C326.08 471.809 346.76 470.687 367.441 469.565C369.899 469.432 370.253 465.956 369.837 463.529Z" fill="#00160A"/>
<path fill-rule="evenodd" clip-rule="evenodd" d="M388.822 441.992C392.54 451.776 393.726 462.309 394.881 472.712C397.565 496.881 400.248 521.049 402.932 545.218C400.935 545.382 400.015 542.819 399.766 540.831C395.701 508.312 394.392 475.374 387.517 443.331C387.952 442.885 388.387 442.438 388.822 441.992Z" fill="#00160A"/>
<path fill-rule="evenodd" clip-rule="evenodd" d="M268.883 273.638C268.304 273.391 268.316 272.488 268.759 272.042C269.203 271.596 269.875 271.489 270.499 271.409C275.17 270.816 279.88 270.527 284.588 270.544C284.338 272.553 281.744 273.141 279.722 273.234C276.324 273.391 272.926 273.548 269.528 273.705C269.31 273.715 269.083 273.724 268.883 273.638L268.883 273.638Z" fill="#00160A"/>
<path fill-rule="evenodd" clip-rule="evenodd" d="M295.236 519.42C294.848 512.227 294.46 505.033 294.072 497.84C293.028 478.478 291.951 458.918 286.561 440.293C285.873 437.915 285.087 435.501 283.562 433.55C279.746 428.667 272.682 428.106 266.485 428.106C242.591 428.107 218.698 430.38 195.232 434.882C192.847 435.34 190.368 435.865 188.466 437.373C185.443 439.77 184.645 443.983 184.365 447.831C183.852 454.856 184.36 461.954 185.866 468.835C185.004 468.691 184.142 468.547 183.279 468.403C180.118 461.817 178.677 454.415 179.139 447.124C179.339 443.958 179.922 440.734 181.553 438.014C185.61 431.247 194.542 429.623 202.387 428.783C222.292 426.651 242.271 425.215 262.276 424.479C270.328 424.183 279.427 424.408 284.953 430.272C287.733 433.222 289.141 437.186 290.246 441.086C294.085 454.632 295.144 468.788 296.184 482.83C297.2 496.549 298.216 510.269 299.232 523.989C299.471 527.213 299.707 530.488 299.054 533.655C296.928 543.974 285.939 550.252 275.477 551.5C265.015 552.748 254.482 550.357 243.948 550.181C229.781 549.945 215.53 553.712 201.558 551.359C197.534 550.681 193.255 549.255 191.043 545.826C189.508 543.447 189.231 540.498 188.996 537.677C187.339 517.778 185.682 497.879 184.025 477.979C183.914 476.647 184.905 474.661 185.929 475.521C187.756 494.688 189.583 513.856 191.41 533.024C191.657 535.619 191.926 538.288 193.132 540.599C194.883 543.953 198.415 546.086 202.078 547.036C205.741 547.985 209.58 547.908 213.363 547.859C229.371 547.65 245.386 548.048 261.363 549.053C266.706 549.389 272.107 549.791 277.385 548.894C282.663 547.998 287.9 545.646 291.176 541.412C295.842 535.381 295.647 527.034 295.236 519.42Z" fill="#00160A"/>
<path fill-rule="evenodd" clip-rule="evenodd" d="M268.072 265.859C269.561 264.696 268.309 262.315 268.602 260.449C269.018 257.808 272.304 256.901 274.959 256.594C292.015 254.623 309.19 253.691 326.359 253.805C327.787 253.814 329.476 253.973 330.195 255.208C331.059 256.69 330.255 259.276 331.89 259.795C332.657 260.039 333.642 259.588 334.223 260.145C335.185 261.066 333.393 262.31 332.067 262.429C311.975 264.232 291.84 265.552 271.685 266.386C270.452 266.437 269.144 266.47 268.072 265.859M328.087 257.538C327.618 256.358 326.048 256.185 324.778 256.205C308.591 256.451 292.413 257.251 276.28 258.603C274.389 258.762 272.157 259.156 271.368 260.882C270.989 261.864 271.712 262.993 272.665 263.439C273.618 263.884 274.72 263.827 275.77 263.76C291.885 262.738 308 261.716 324.116 260.694C325.107 260.631 326.141 260.555 326.996 260.049C327.851 259.542 328.455 258.462 328.087 257.538Z" fill="#00160A"/>
<path fill-rule="evenodd" clip-rule="evenodd" d="M349.809 494.013C352.294 495.988 351.231 500.314 353.393 502.638C354.398 503.719 355.904 504.141 357.32 504.555C358.231 504.822 359.358 505.491 359.068 506.394C358.772 507.319 357.424 507.17 356.519 506.816C353.566 505.658 350.235 503.735 350.072 500.567C349.953 498.255 349.266 495.974 348.088 493.981C348.42 493.419 349.298 493.607 349.809 494.013V494.013Z" fill="#00160A"/>
<path fill-rule="evenodd" clip-rule="evenodd" d="M361.562 526.771C360.753 516.347 359.943 505.922 359.134 495.497C359.015 493.965 358.879 492.376 358.121 491.04C357.362 489.703 355.79 488.696 354.305 489.095C347.59 490.896 340.616 491.731 333.665 491.567C327.588 491.423 321.369 490.535 315.522 492.199C315.63 495.095 315.739 497.99 315.848 500.885C315.88 501.731 315.928 502.628 316.409 503.324C317.757 505.275 321.105 503.788 321.865 501.541C322.626 499.295 321.939 496.838 322.069 494.469C322.092 494.05 322.176 493.573 322.533 493.351C323.292 492.879 324.021 494.005 324.215 494.877C324.773 497.375 325.329 499.99 324.671 502.464C324.013 504.938 321.719 507.179 319.18 506.852C316.549 506.513 315.473 510.108 315.409 512.76C315.282 518.052 315.155 523.343 315.028 528.635C314.988 530.301 315.587 532.602 317.243 532.414C321.516 531.93 325.79 531.445 330.064 530.961C331.097 530.844 332.207 530.741 333.116 531.246C334.024 531.751 334.505 533.127 333.76 533.852C328.741 534.292 323.721 534.732 318.701 535.172C317.235 535.3 315.714 535.422 314.331 534.919C312.948 534.417 311.743 533.101 311.869 531.635C313.104 517.239 313.38 502.762 312.696 488.329C312.55 485.259 316.29 483.7 319.311 483.134C328.9 481.336 338.68 480.556 348.433 480.812C351.703 480.898 355.267 481.222 357.638 483.475C360.052 485.769 360.526 489.383 360.859 492.696C362.106 505.115 363.354 517.533 364.602 529.951C364.669 530.621 364.685 531.417 364.149 531.825C363.83 532.068 363.4 532.094 362.999 532.111C358.837 532.284 354.675 532.457 350.512 532.63C348.307 532.722 345.934 532.769 344.098 531.544C342.838 530.704 342.006 529.369 341.274 528.044C339.52 524.864 338.117 521.491 337.102 518.004C335.51 521.99 334.502 526.208 334.12 530.483C332.109 530.701 331.735 527.683 332.202 525.714C333.167 521.652 334.132 517.591 335.097 513.529C335.244 512.911 335.479 512.193 336.085 512.003C336.977 511.722 337.662 512.79 337.988 513.667C339.347 517.32 340.707 520.973 342.066 524.626C343.236 527.77 346.611 529.66 349.943 530.047C353.275 530.435 356.615 529.596 359.865 528.764C360.508 528.599 361.237 528.362 361.487 527.747C361.611 527.442 361.588 527.1 361.562 526.771ZM316.281 488.602C319.295 488.641 322.309 488.68 325.323 488.719C327.587 488.749 329.852 488.778 332.117 488.735C340.291 488.581 348.448 487.485 356.373 485.475C354.605 483.66 351.769 483.558 349.236 483.603C340.171 483.765 331.112 484.293 322.089 485.183C319.675 485.422 316.674 486.208 316.281 488.602L316.281 488.602Z" fill="#00160A"/>
<path fill-rule="evenodd" clip-rule="evenodd" d="M302.788 480.796C302.616 479.853 303.838 479.338 304.785 479.192C315.721 477.497 326.802 476.748 337.867 476.955C338.025 476.958 338.189 476.962 338.336 477.023C338.855 477.24 338.83 478.058 338.418 478.441C338.006 478.824 337.399 478.888 336.838 478.93C326.302 479.72 315.612 479.314 305.29 481.568C304.332 481.777 302.965 481.761 302.788 480.796L302.788 480.796Z" fill="#00160A"/>
<path fill-rule="evenodd" clip-rule="evenodd" d="M547.344 458.154C547.948 456.73 548.614 455.226 549.896 454.36C550.977 453.629 552.332 453.468 553.63 453.327C557.48 452.909 561.33 452.491 565.18 452.073C567.084 451.866 569.542 451.064 569.469 449.15C569.236 442.969 569.714 435.85 574.624 432.089C579.116 428.648 585.842 429.592 590.45 432.874C595.059 436.157 597.979 441.27 600.497 446.337C601.612 448.581 604.666 448.99 607.135 448.557C609.603 448.125 612.105 447.154 614.54 447.745C618.289 448.655 620.184 452.75 621.472 456.387C627.938 474.636 632.327 493.662 640.369 511.274C643.377 517.861 642.425 526.081 637.991 531.806C637.444 527.26 638.206 522.564 640.162 518.423C641.084 516.473 638.016 515.19 635.858 515.196C613.873 515.252 591.793 515.315 570.051 518.576C569.387 518.676 568.681 518.798 568.186 519.252C567.705 519.692 567.517 520.36 567.351 520.991C566.677 523.552 566.003 526.112 565.329 528.673C564.906 530.277 565.171 532.768 566.822 532.601C588.34 530.422 609.974 529.383 631.602 529.489C633.877 529.5 636.982 530.403 636.687 532.658C613.647 532.93 590.522 533.208 567.731 536.6C564.102 537.14 561.596 532.646 562.007 529C562.419 525.354 564.51 522.084 565.099 518.462C565.607 515.341 564.972 512.158 564.288 509.07C563.201 504.162 561.986 499.282 560.646 494.437C559.338 489.708 557.91 485.014 556.482 480.32C554.323 473.221 552.163 466.121 550.004 459.021C547.034 463.37 545.711 468.815 546.354 474.041C546.802 477.68 548.151 481.136 549.162 484.661C550.607 489.699 551.365 494.904 552.12 500.091C553.606 510.307 555.093 520.523 556.579 530.74C556.798 532.243 556.366 534.458 554.863 534.236C548.181 513.565 550.016 490.711 542.13 470.469C543.868 466.364 545.606 462.259 547.344 458.154ZM597.111 461.904C599.288 460.693 600.416 457.866 599.669 455.489C598.923 453.111 596.382 451.436 593.902 451.687C587.823 452.303 581.744 452.919 575.665 453.535C575.103 453.592 574.475 453.685 574.138 454.137C573.872 454.494 573.867 454.976 573.892 455.42C574.054 458.198 575.018 460.925 576.638 463.187C577.897 464.945 579.638 467.049 578.655 468.975C577.427 471.381 573.39 470.032 572.389 467.523C571.388 465.014 572.1 462.182 571.914 459.487C571.728 456.791 569.791 453.689 567.126 454.137C562.757 454.873 558.388 455.608 554.018 456.344C553.391 456.45 552.572 456.837 552.756 457.446C558.077 475.057 563.397 492.668 568.718 510.28C569.381 512.475 570.876 515.191 573.108 514.67C593.602 509.884 615.21 514.41 636.019 511.265C629.785 491.719 623.336 472.243 616.671 452.839C616.475 452.267 616.252 451.658 615.763 451.301C615.222 450.905 614.494 450.917 613.825 450.945C610.703 451.078 607.582 451.21 604.461 451.342C603.226 451.394 601.542 451.983 601.813 453.189C602.661 456.97 603.509 460.752 604.358 464.533C604.504 465.183 604.647 465.88 604.404 466.501C603.744 468.191 601.255 467.765 599.595 467.033C598.506 466.554 597.36 466.028 596.687 465.046C596.014 464.065 596.07 462.483 597.111 461.904ZM589.066 434.47C586.672 432.714 583.524 431.447 580.762 432.535C579.799 432.914 578.963 433.551 578.141 434.18C576.678 435.301 575.17 436.473 574.306 438.101C573.503 439.616 573.337 441.377 573.187 443.086C573.056 444.579 572.925 446.072 572.793 447.565C572.712 448.491 572.679 449.555 573.35 450.198C573.994 450.815 575.005 450.77 575.893 450.686C582.251 450.081 588.609 449.476 594.968 448.871C595.874 448.785 596.981 448.539 597.22 447.66C597.314 447.314 597.238 446.945 597.153 446.596C595.981 441.778 593.064 437.403 589.066 434.47M586.685 450.266C586.045 450.447 586.756 451.647 587.222 451.172C587.817 450.928 587.157 449.81 586.656 450.213L586.685 450.266Z" fill="#FFB61D"/>
<path fill-rule="evenodd" clip-rule="evenodd" d="M385.097 307.331C384.986 306.959 385.207 306.57 385.468 306.282C386.749 304.872 388.894 304.767 390.799 304.762C402.352 304.736 413.905 304.709 425.459 304.682C426.272 304.68 427.143 304.696 427.807 305.166C428.47 305.635 428.73 306.743 428.092 307.248C427.753 307.516 427.285 307.533 426.852 307.538C413.431 307.687 400.009 307.836 386.587 307.985C386.003 307.991 385.264 307.892 385.097 307.331Z" fill="#00160A"/>
<path fill-rule="evenodd" clip-rule="evenodd" d="M389.379 319.258C388.682 318.858 388.779 317.736 389.364 317.186C389.95 316.636 390.803 316.507 391.6 316.411C396.382 315.834 401.192 315.517 405.998 315.201C408.646 315.026 411.295 314.852 413.943 314.678C417.386 314.451 420.829 314.224 424.272 313.997C425.365 313.925 426.586 313.894 427.41 314.617C428.234 315.34 428.033 317.079 426.938 317.147C414.787 317.9 402.636 318.653 390.485 319.405C390.108 319.429 389.706 319.447 389.379 319.258L389.379 319.258Z" fill="#00160A"/>
<path fill-rule="evenodd" clip-rule="evenodd" d="M454.513 334.969C455.431 333.224 456.428 331.394 458.117 330.378C459.806 329.361 462.397 329.571 463.307 331.32C464.275 333.182 462.835 335.426 461.144 336.668C459.453 337.911 457.374 338.787 456.276 340.575C462.213 344.487 468.15 348.399 474.087 352.311C478.737 355.376 483.998 359.752 483.047 365.239C482.488 368.456 479.762 370.957 476.725 372.157C473.689 373.357 470.35 373.482 467.086 373.576C445.151 374.208 423.194 374.097 401.266 373.243C399.745 373.184 398.048 373.042 397.034 371.906C396.249 371.025 396.087 369.77 395.96 368.597C394.698 356.926 393.436 345.255 392.174 333.583C392.127 333.152 392.083 332.702 392.237 332.297C392.887 330.593 395.436 331.643 396.861 332.78C406.955 340.837 423.093 339.891 432.176 330.709C434.371 328.49 438.107 328.777 440.926 330.115C443.746 331.452 446.105 333.628 448.933 334.947C448.632 333.311 450.074 331.586 451.737 331.593C453.4 331.599 454.828 333.336 454.513 334.969ZM455.755 342.489C455.034 339.84 451.119 339.284 448.96 340.979C446.801 342.674 446.101 345.627 445.914 348.366C445.844 349.387 444.164 349.489 443.589 348.642C443.013 347.795 443.246 346.654 443.566 345.682C444.409 343.114 445.708 340.697 447.382 338.577C448.212 337.527 446.996 336.107 445.902 335.338C442.039 332.622 436.57 329.943 433.028 333.064C423.32 341.614 407.835 342.754 396.98 335.716C397.109 344.477 397.755 353.23 398.912 361.915C399.029 362.79 399.178 363.725 399.783 364.368C400.583 365.219 401.892 365.279 403.06 365.28C421.917 365.304 440.774 365.328 459.631 365.352C461.466 365.355 463.96 364.699 463.817 362.87C463.484 358.613 465.369 354.242 468.694 351.563C466.079 349.663 463.464 347.763 460.848 345.863C460.051 345.284 459.215 344.688 458.244 344.522C455.309 344.019 453.349 347.382 452.312 350.173C450.721 347.33 452.574 343.194 455.755 342.489ZM406.471 371.559C426.108 371.713 445.746 371.68 465.382 371.46C470.956 371.398 477.465 370.832 480.488 366.147C453.373 367.339 426.218 367.634 399.083 367.031C398.746 370.288 403.197 371.533 406.471 371.559M473.674 354.055C473.089 353.685 472.485 353.307 471.803 353.19C469.747 352.837 468.125 354.89 467.232 356.776C466.716 357.866 466.267 358.988 465.889 360.134C465.601 361.007 465.352 361.935 465.533 362.836C465.714 363.737 466.453 364.589 467.372 364.6C470.711 364.638 474.051 364.602 477.388 364.493C478.175 364.468 479.031 364.412 479.621 363.889C480.315 363.274 480.399 362.214 480.226 361.303C479.597 358.007 476.508 355.851 473.674 354.055ZM461.878 332.738C461.841 331.721 460.484 331.205 459.545 331.597C458.606 331.99 458.029 332.923 457.513 333.8C456.89 334.861 456.268 335.921 455.645 336.981C455.318 337.537 455.14 338.484 455.77 338.623C457.428 337.245 459.086 335.867 460.743 334.489C461.298 334.027 461.904 333.46 461.878 332.738ZM451.134 334.396C450.853 335.767 451.556 337.282 452.785 337.952C453.211 336.54 452.961 334.939 452.125 333.724C452.074 333.38 451.607 333.182 451.324 333.382C451.105 333.659 451.027 334.042 451.12 334.382L451.134 334.396Z" fill="#00160A"/>
<path fill-rule="evenodd" clip-rule="evenodd" d="M383.62 293.96C383.121 291.548 382.623 289.135 382.125 286.722C381.931 285.784 381.753 284.744 382.245 283.922C382.915 282.802 384.45 282.653 385.755 282.63C417.807 282.072 449.871 282.194 481.918 282.996C484.104 283.051 485.899 284.939 486.564 287.022C487.229 289.106 487.011 291.355 486.785 293.53C486.663 294.706 486.469 296.016 485.532 296.736C484.764 297.325 483.715 297.34 482.748 297.33C450.559 296.978 418.371 296.627 386.183 296.275C385.653 296.27 385.092 296.255 384.644 295.973C383.988 295.56 383.776 294.719 383.62 293.96ZM388.047 284.746C385.678 284.729 383.998 287.544 384.59 289.838C385.182 292.132 387.398 293.711 389.701 294.269C392.004 294.827 394.414 294.557 396.773 294.337C425.842 291.62 455.236 296.813 484.284 293.882C484.436 292.115 484.581 290.288 484.012 288.608C483.442 286.928 481.959 285.423 480.186 285.41C449.473 285.189 418.76 284.968 388.047 284.746Z" fill="#00160A"/>
<path fill-rule="evenodd" clip-rule="evenodd" d="M190.348 363.842C189.275 365.875 187.796 367.94 185.578 368.545C181.353 369.698 177.86 365.008 176.707 360.783C174.907 354.188 175.363 347 177.98 340.685C179.38 337.306 178.213 333.312 176.017 330.387C171.877 324.871 164.152 322.456 157.515 324.332C150.878 326.209 145.64 332.113 144.252 338.869C144.034 339.927 144.188 341.413 145.257 341.562C150.592 342.309 153.041 348.57 153.853 353.895C154.473 357.96 154.742 362.22 153.363 366.095C151.984 369.969 148.609 373.373 144.508 373.684C140.828 371.206 138.057 367.408 136.821 363.147C134.522 355.222 137.508 346.821 140.591 339.166C142.473 334.495 144.492 329.712 148.066 326.164C155.706 318.58 169.972 319.481 176.597 327.965C179.146 331.228 180.609 335.282 183.433 338.31C185.562 340.593 188.377 342.191 190.319 344.634C194.538 349.941 193.512 357.846 190.348 363.842ZM139.158 349.19C137.224 354.522 137.763 360.695 140.592 365.61C141.056 366.418 141.609 367.221 142.421 367.677C143.233 368.134 144.365 368.141 145.007 367.466C146.931 365.443 147.171 362.385 147.165 359.594C147.157 356.292 146.954 352.992 146.556 349.715C146.393 348.373 146.115 346.891 145.03 346.085C143.945 345.279 141.909 345.953 142.079 347.294C142.575 351.194 143.071 355.095 143.566 358.995C143.679 359.882 143.778 360.842 143.334 361.618C142.889 362.394 141.661 362.756 141.098 362.061C139.639 359.084 139.199 355.619 139.868 352.373C140.109 351.205 140.274 349.608 139.158 349.19M183.812 364.658C184.305 364.274 184.535 363.649 184.719 363.051C186.165 358.355 186.181 353.229 184.763 348.524C184.224 346.736 182.763 344.643 180.994 345.243C179.971 345.589 179.453 346.708 179.128 347.737C177.648 352.414 177.845 357.602 179.674 362.154C180.025 363.026 180.458 363.907 181.201 364.484C181.943 365.06 183.071 365.236 183.812 364.658ZM149.093 347.781C150.382 354.313 150.108 361.148 148.3 367.555C148.134 368.145 148.803 368.605 149.363 368.854C152.075 362.276 152.418 354.751 150.317 347.954C149.968 347.705 149.497 347.638 149.093 347.781ZM186.717 346.017C186.316 346.656 185.916 347.295 185.515 347.935C186.836 347.711 187.44 349.513 187.51 350.851C187.674 353.942 187.837 357.034 188.001 360.125C189.231 359.664 189.453 358.049 189.476 356.736C189.528 353.778 189.579 350.82 189.631 347.862C189.188 347.81 188.745 347.758 188.302 347.706C188.257 346.869 187.55 346.116 186.717 346.017Z" fill="#00160A"/>
<path fill-rule="evenodd" clip-rule="evenodd" d="M331.719 351.627C322.907 351.207 314.056 351.589 305.313 352.768C304.54 352.872 303.674 352.96 303.052 352.488C302.43 352.016 302.498 350.763 303.274 350.678C312.018 349.717 320.799 349.099 329.591 348.826C330.547 348.796 331.618 348.813 332.299 349.484C332.981 350.156 332.675 351.673 331.719 351.627Z" fill="#00160A"/>
<path fill-rule="evenodd" clip-rule="evenodd" d="M127.02 316.44C129.521 316.205 132.023 315.97 134.524 315.735C135.785 315.617 137.045 315.499 138.305 315.38C146.321 314.627 154.337 313.874 162.36 313.204C162.675 313.178 163.004 313.154 163.296 313.275C164.165 313.636 164.031 315.039 163.275 315.597C162.518 316.155 161.494 316.123 160.555 316.091C148.739 315.698 136.963 319.249 125.202 318.048C124.438 317.97 123.438 317.576 123.573 316.82C124.717 316.657 125.869 316.549 127.02 316.44Z" fill="#00160A"/>
<path fill-rule="evenodd" clip-rule="evenodd" d="M396.467 576.1C396.074 572.659 395.792 568.915 393.478 566.337C391.703 564.36 392.621 560.684 395.118 559.774C397.615 558.864 400.684 561.086 400.597 563.743C400.567 564.655 400.235 565.525 399.977 566.4C398.213 572.377 399.851 578.807 402.008 584.653C404.193 590.573 407.538 596.875 413.541 598.821C420.486 601.072 428.17 596.09 431.249 589.47C434.327 582.851 433.858 575.165 432.783 567.944C432.675 567.22 432.481 566.384 431.817 566.077C429.115 564.829 428.705 560.447 431.128 558.721C433.551 556.994 437.559 558.813 437.856 561.773C437.957 562.777 437.701 563.778 437.509 564.769C436.182 571.645 437.937 578.854 436.483 585.705C435.572 589.994 433.389 594.005 430.282 597.099C426.986 600.379 422.536 602.641 417.887 602.72C411.627 602.826 405.773 598.944 402.234 593.779C398.696 588.613 397.178 582.321 396.467 576.1Z" fill="#00160A"/>
<path fill-rule="evenodd" clip-rule="evenodd" d="M213.914 293.585C214.088 295.942 214.254 298.37 213.52 300.616C212.785 302.863 210.919 304.909 208.564 305.112C196.425 306.155 184.284 307.199 172.122 307.919C155.537 308.9 138.924 309.279 122.315 309.657C121.722 309.67 121.088 309.672 120.593 309.346C119.851 308.856 119.712 307.843 119.644 306.957C119.464 304.635 119.285 302.313 119.105 299.991C119.05 299.285 119.009 298.522 119.39 297.925C119.947 297.05 121.14 296.9 122.176 296.838C152.724 295.027 183.315 293.943 213.914 293.585ZM208.803 301.729C210.755 301.599 211.15 298.527 209.719 297.194C208.288 295.86 206.115 295.831 204.159 295.88C179.019 296.504 153.869 297.129 128.779 298.836C126.972 298.959 125.092 299.109 123.53 300.026C121.968 300.942 120.84 302.87 121.437 304.58C122.285 307.009 125.562 307.276 128.129 307.105C155.02 305.313 181.912 303.521 208.803 301.729Z" fill="#00160A"/>
<path fill-rule="evenodd" clip-rule="evenodd" d="M182.7 352.255C182.724 352.894 182.749 353.533 182.773 354.171C182.823 355.5 182.872 356.838 182.68 358.154C181.014 357.978 180.497 355.833 180.4 354.16C180.353 353.364 180.338 352.475 180.871 351.882C181.404 351.289 182.67 351.459 182.7 352.255L182.7 352.255Z" fill="#00160A"/>
<path fill-rule="evenodd" clip-rule="evenodd" d="M302.733 357.698C304.369 356.188 306.856 356.235 309.08 356.298C316.119 356.498 323.179 355.954 330.104 354.678C330.921 354.528 331.36 355.797 330.851 356.453C330.343 357.109 329.423 357.247 328.598 357.331C320.793 358.124 312.955 358.595 305.111 358.74C304.176 358.758 302.991 358.596 302.733 357.698Z" fill="#00160A"/>
<path fill-rule="evenodd" clip-rule="evenodd" d="M565.509 384.087C564.737 386.698 562.173 388.312 559.727 389.508C547.487 395.495 533.098 396.96 519.902 393.565C515.47 392.424 510.421 389.786 510.232 385.213C510.092 381.852 512.775 379.035 515.616 377.233C519.975 374.47 525.056 373.074 530.123 372.09C539.896 370.191 550.492 369.799 559.339 374.366C563.045 376.279 566.691 380.087 565.509 384.087M513.253 384.705C513.261 388.398 517.381 390.56 520.953 391.497C533.358 394.751 546.927 393.347 558.403 387.622C560.245 386.703 562.188 385.492 562.773 383.519C563.559 380.869 561.505 378.199 559.227 376.634C552.37 371.922 543.299 372.566 535.026 373.452C528.369 374.165 521.275 375.096 516.2 379.463C514.631 380.813 513.249 382.636 513.253 384.705L513.253 384.705Z" fill="#00160A"/>
<path fill-rule="evenodd" clip-rule="evenodd" d="M205.372 167.774C204.955 165.4 206.592 163.041 208.702 161.875C210.812 160.709 213.299 160.484 215.705 160.343C237.159 159.08 258.579 162.526 280.041 163.658C282.803 163.804 285.715 163.957 288.039 165.457C290.363 166.958 291.727 170.326 290.119 172.577C289.342 173.666 288.056 174.271 286.781 174.673C283.101 175.836 279.153 175.682 275.298 175.516C255.235 174.653 235.171 173.791 215.108 172.928C211.124 172.757 206.063 171.701 205.372 167.774M208.126 164.334C206.992 165.932 207.941 168.315 209.579 169.39C211.217 170.465 213.281 170.586 215.238 170.674C236.502 171.631 257.765 172.588 279.029 173.545C281.101 173.638 283.395 173.659 284.965 172.303C286.535 170.948 286.328 167.715 284.279 167.389C260.635 163.63 236.641 162.069 212.708 162.732C211.028 162.779 209.099 162.963 208.126 164.334" fill="#00160A"/>
<path fill-rule="evenodd" clip-rule="evenodd" d="M440.635 147.171C443.899 140.371 449.191 133.361 456.712 132.781C461.722 132.395 467.037 133.271 471.002 136.358C478.193 141.956 478.694 152.811 476.125 161.555C473.096 171.861 466.336 181.406 456.639 186.028C454.327 187.131 451.811 187.955 449.251 187.855C442.448 187.588 437.494 180.904 436.03 174.255C434.022 165.143 436.598 155.583 440.635 147.171M449.096 185.365C454.124 186.05 458.862 182.847 462.41 179.218C469.059 172.416 473.523 163.51 474.994 154.112C475.417 151.404 475.593 148.594 474.856 145.954C473.407 140.76 468.484 137.007 463.202 135.927C458.122 134.889 452.539 136.128 448.623 139.527C446.741 141.16 445.28 143.223 444.004 145.363C439.841 152.345 437.475 160.469 437.765 168.592C437.896 172.262 438.591 175.992 440.449 179.16C442.307 182.327 445.457 184.87 449.096 185.365Z" fill="#FFB61D"/>
<path fill-rule="evenodd" clip-rule="evenodd" d="M275.726 435.788C276.394 435.753 277.112 435.729 277.678 436.087C278.377 436.529 278.633 437.409 278.834 438.211C279.276 439.969 279.719 441.797 279.364 443.574C279.009 445.35 277.607 447.057 275.797 447.136C271.18 447.338 266.563 447.539 261.945 447.741C260.135 447.82 258.013 448.079 257.113 449.652C256.504 450.718 256.685 452.042 256.885 453.254C257.451 456.689 259.051 461.031 262.53 460.905C264.844 460.821 266.907 462.578 267.903 464.668C268.899 466.759 269.048 469.138 269.18 471.45C269.305 473.626 268.75 476.6 266.571 476.654C264.813 476.698 264.328 479.073 264.384 480.83C264.772 493.051 265.161 505.271 265.549 517.491C265.611 519.46 263.088 520.288 261.128 520.486C244.703 522.144 228.106 522.1 211.69 520.356C211.101 520.293 210.349 520.063 210.336 519.471C210.032 505.663 209.728 491.855 209.425 478.047C209.407 477.242 209.012 476.129 208.236 476.341C205.789 477.01 203.329 474.74 202.823 472.255C202.316 469.769 203.185 467.233 204.041 464.845C204.437 463.742 204.881 462.572 205.828 461.88C207.85 460.404 211.588 461.455 212.493 459.121C212.643 458.735 212.672 458.312 212.657 457.898C212.531 454.292 209.173 451.447 205.636 450.734C202.099 450.021 198.453 450.959 195.009 452.033C194.219 449.054 194.017 445.921 194.417 442.866C194.511 442.145 194.658 441.387 195.142 440.845C195.833 440.071 196.984 439.964 198.019 439.909C223.921 438.535 249.824 437.162 275.726 435.788ZM206.665 463.764C206.167 464.342 206.057 465.149 205.967 465.907C205.734 467.882 205.5 469.858 205.266 471.833C205.217 472.249 205.171 472.688 205.338 473.071C205.697 473.892 206.781 474.034 207.677 474.056C212.432 474.174 217.187 474.292 221.942 474.411C222.744 474.43 223.585 474.442 224.297 474.073C225.443 473.479 225.913 471.866 225.267 470.75C225.849 470.69 226.431 470.631 227.013 470.571C226.756 472.294 228.512 473.736 230.235 473.99C231.958 474.243 233.69 473.717 235.427 473.579C239.067 473.292 242.703 474.72 246.33 474.291C246.711 474.246 247.119 474.167 247.386 473.89C247.735 473.529 247.728 472.964 247.7 472.462C247.562 470.054 247.425 467.647 247.287 465.239C247.244 464.481 247.179 463.665 246.692 463.083C245.996 462.251 244.75 462.225 243.666 462.267C238.431 462.47 233.196 462.672 227.961 462.875C227.596 462.889 227.191 462.92 226.938 463.184C226.654 463.479 226.674 463.944 226.712 464.352C226.888 466.225 227.064 468.099 227.24 469.972C226.545 470.04 225.864 470.243 225.246 470.567C225.092 469.091 224.937 467.615 224.782 466.138C224.642 464.792 224.114 463.068 222.761 463.05C218.441 462.992 214.12 462.935 209.799 462.877C208.676 462.862 207.398 462.913 206.665 463.764ZM231.558 478.288C231.486 477.294 231.056 475.978 230.064 476.085C223.904 476.747 217.668 476.709 211.515 475.972C211.667 489.378 211.917 502.783 212.265 516.186C212.309 517.911 214.487 518.601 216.203 518.777C221.302 519.3 226.436 519.478 231.56 519.311C231.98 519.297 232.434 519.268 232.754 518.996C233.175 518.638 233.202 518.01 233.196 517.457C233.05 504.388 232.503 491.324 231.558 478.288ZM262.368 477.549C262.2 477.26 261.816 477.2 261.483 477.172C256.183 476.723 250.856 476.597 245.54 476.795C245.059 476.813 244.543 476.845 244.162 477.14C243.582 477.588 243.546 478.434 243.563 479.167C243.856 492.547 244.149 505.927 244.442 519.308C250.293 519.873 256.251 519.32 261.899 517.688C262.25 517.587 262.623 517.466 262.85 517.18C263.095 516.87 263.111 516.444 263.117 516.05C263.227 507.441 263.005 498.832 262.783 490.226C262.678 486.171 262.573 482.116 262.469 478.062C262.464 477.886 262.457 477.701 262.368 477.549ZM196.651 443.63C195.635 445.227 196.727 447.483 198.397 448.375C200.067 449.268 202.069 449.181 203.959 449.072C215.396 448.409 226.834 447.746 238.271 447.084C249.178 446.452 260.086 445.819 270.976 444.933C272.571 444.803 274.246 444.64 275.564 443.732C276.882 442.824 277.648 440.906 276.764 439.572C275.877 438.234 273.97 438.172 272.367 438.255C248.602 439.481 224.837 440.707 201.072 441.932C199.43 442.017 197.533 442.243 196.651 443.63M242.365 518.996C241.562 505.934 241.403 492.833 241.889 479.756C241.917 479.005 241.941 478.223 241.641 477.534C240.766 475.521 237.95 475.527 235.781 475.862C234.789 476.016 233.523 476.49 233.597 477.491C234.527 490 235.458 502.529 235.249 515.071C235.221 516.731 236.172 518.372 237.626 519.174C239.081 519.976 240.976 519.905 242.365 518.996ZM266.91 470.776C266.627 469.05 266.332 467.286 265.49 465.753C264.649 464.22 263.142 462.936 261.395 462.849C258.076 462.683 254.758 462.518 251.439 462.353C250.575 462.31 249.381 462.57 249.423 463.434C249.549 466.06 249.676 468.687 249.802 471.313C249.858 472.459 250.071 473.843 251.134 474.278C251.476 474.418 251.856 474.429 252.226 474.437C256.552 474.536 260.879 474.635 265.206 474.734C266.032 474.753 266.724 474.027 266.95 473.232C267.175 472.438 267.043 471.591 266.91 470.776ZM245.96 457.834C245.527 456.011 245.076 454.144 244.039 452.583C243.003 451.021 241.243 449.801 239.374 449.939C236.493 450.15 233.612 450.362 230.731 450.574C228.936 450.706 226.904 450.964 225.852 452.424C224.579 454.19 225.452 456.654 225.108 458.804C224.987 459.559 225.577 460.282 226.283 460.575C226.99 460.869 227.783 460.834 228.547 460.795C233.704 460.53 238.861 460.264 244.019 459.999C244.776 459.96 245.684 459.822 245.986 459.126C246.161 458.724 246.062 458.261 245.96 457.834ZM254.998 454.531C254.017 453.187 254.041 451.196 255.055 449.876C253.247 448.753 250.715 448.961 249.115 450.363C247.514 451.765 246.975 454.248 247.85 456.187C248.158 456.871 247.982 457.681 248.199 458.399C248.507 459.419 249.574 460.06 250.632 460.191C251.69 460.322 252.75 460.044 253.78 459.769C255.13 459.408 256.774 458.686 256.761 457.288C256.75 456.173 255.656 455.432 254.998 454.531ZM222.769 459.317C223.368 457.358 222.562 455.124 221.025 453.77C219.487 452.417 217.333 451.889 215.293 452.073C214.473 452.146 213.618 452.349 213.025 452.92C212.431 453.491 212.219 454.518 212.754 455.143C213.149 455.606 213.825 455.741 214.238 456.187C214.869 456.867 214.656 457.955 214.945 458.837C215.598 460.829 218.303 461.017 220.39 460.826C221.105 460.761 221.894 460.66 222.364 460.118C222.562 459.89 222.681 459.605 222.769 459.317ZM223.107 452.726C223.591 452.258 223.679 451.435 223.305 450.875C222.471 450.627 221.539 451.123 221.101 451.874C221.427 452.62 222.343 453.051 223.126 452.827M246.891 450.646C247.013 450.319 246.942 449.928 246.712 449.665C245.921 449.415 245 449.639 244.412 450.224C245.017 450.91 246.117 451.095 246.913 450.645L246.891 450.646Z" fill="#00160A"/>
<path fill-rule="evenodd" clip-rule="evenodd" d="M565.736 395.121C540.381 405.036 515.025 414.951 489.67 424.866C478.763 429.131 466.145 435.532 464.975 447.185C479.792 435.786 498.094 428.983 516.759 427.938C503.864 444.184 487.583 457.729 469.261 467.451C452.807 476.182 431.976 485.494 430.565 504.067C448.235 483.025 475.404 470.286 502.881 470.159C485.302 495.906 457.114 514.169 426.431 519.69C427.484 527.602 428.537 535.514 429.59 543.426C440.015 543.056 450.504 544.548 460.413 547.809C467.47 578.126 474.527 608.442 481.584 638.759C483.32 646.22 484.849 654.792 480.281 660.941C475.749 667.04 467.19 668.09 459.61 668.628C429.737 670.752 399.863 672.876 369.989 674.999C366.413 658.795 362.836 642.591 359.259 626.386C308.869 631.065 258.478 635.744 208.088 640.423C197.476 641.409 186.253 642.292 176.651 637.669C141.822 620.901 99.5899 653.357 62.8033 641.483C95.1242 640.874 127.345 635.236 157.953 624.835C169.053 621.063 182.344 610.73 176.544 600.542C148.16 620.347 111.74 628.254 77.6976 622.001C79.6964 588.942 78.411 555.685 73.8665 522.878C98.0885 519.413 121.96 513.499 144.998 505.256C151.406 502.963 157.999 500.324 162.562 495.274C167.126 490.224 168.971 482.066 164.961 476.566C129.92 495.238 89.4621 503.595 49.8913 500.334C51.9561 545.108 54.0209 589.883 56.0858 634.657C50.2367 589.915 47.1348 544.814 46.8033 499.692C67.1727 497.886 87.5421 496.08 107.911 494.273C104.636 479.734 101.34 464.862 103.023 450.053C104.705 435.244 112.327 420.248 125.724 413.717C115.589 392.1 100.271 372.934 81.4201 358.283C59.3214 341.107 30.9094 328.157 20.8178 302.051C14.1453 284.79 17.4182 264.713 26.6573 248.678C35.8965 232.644 50.5367 220.292 66.4489 210.844C44.5416 205.213 27.9479 183.375 28.3919 160.76C28.8358 138.145 46.2738 116.975 68.3852 112.209C57.9602 99.7853 41.5446 94.0912 29.5542 83.1712C15.5861 70.4503 8.56707 49.93 13.6551 31.7355C18.7431 13.541 36.6573 -0.774139 55.5327 0.0324868C71.0371 0.695058 84.6813 10.5013 95.5038 21.6233C112.288 38.8722 124.771 60.2757 131.52 83.3776C136.018 98.7758 152.504 106.609 166.427 114.578C180.35 122.547 194.808 136.428 190.885 151.982C185.699 130.697 168.285 112.856 147.132 107.155C136.11 104.185 132.093 91.0686 128.547 80.2178C121.648 59.1024 109.87 39.5976 94.3956 23.6603C82.7663 11.6831 67.5617 1.23166 50.8919 2.13147C33.7313 3.05778 18.6037 17.017 14.6804 33.7488C10.7571 50.4805 17.3351 68.8142 29.8566 80.5852C42.6105 92.5748 60.8564 98.4477 71.1387 112.614C48.8378 117.146 31.2068 138.608 31.0897 161.364C30.9725 184.121 48.3817 205.763 70.6348 210.524C54.9526 219.704 40.2784 231.365 30.603 246.746C20.9276 262.128 16.7801 281.65 22.5693 298.874C35.9595 338.714 91.7709 348.223 111.467 385.352C116.801 367.832 108.982 349.41 104.963 331.541C100.944 313.673 103.215 290.727 119.875 283.118C115.006 259.651 110.137 236.185 105.268 212.718C101.64 195.232 99.8201 173.078 114.863 163.452C104.264 160.165 94.8572 153.163 88.6664 143.954C95.3518 154.187 108.228 159.993 120.324 158.229C105.039 125.095 88.0906 92.7275 69.5648 61.2901C89.5266 91.3891 107.193 123.01 122.361 155.787C192.515 153.889 262.777 156.05 332.682 162.257C341.963 163.081 351.952 164.28 358.812 170.585C368.672 179.645 383.475 182.95 396.251 178.943C400.316 189.02 403.307 200.339 399.851 210.641C396.396 220.943 384.156 228.806 374.372 224.08C376.926 237.219 379.48 250.359 382.034 263.498C407.05 263.799 432.063 264.31 457.071 265.031C470.325 265.413 484.178 266.016 495.698 272.582C507.217 279.149 515.346 293.694 510.215 305.921C513.488 295.817 516.76 285.712 520.033 275.608C531.568 293.918 537.234 315.865 536.002 337.47C539.998 331.39 543.994 325.31 547.99 319.23C533.793 296.886 531.986 267.188 543.368 243.287C554.532 261.775 560.82 283.177 561.431 304.765C565.594 265.858 593.16 230.389 629.834 216.748C623.471 231.409 617.109 246.071 610.746 260.732C605.298 273.285 598.378 287.208 585.288 291.196C576.653 293.826 564.15 293.667 562.584 302.557C587.385 296.053 613.783 295.731 638.735 301.628C619.508 324.745 582.455 330.437 557.175 314.157C545.249 327.458 534.916 342.186 526.467 357.927C540.819 340.09 563.154 328.936 586.035 328.178C573.742 342.707 559.876 355.904 544.758 367.465C552.782 368.236 561.458 369.293 567.278 374.87C573.099 380.447 573.244 392.185 565.736 395.121ZM231.045 248.702C237.695 248.625 245.143 248.862 249.785 253.624C253.327 257.257 254.276 262.616 255.048 267.63C258.579 290.562 261.884 313.528 264.964 336.524C265.737 342.292 260.901 347.615 255.376 349.444C249.851 351.273 243.845 350.47 238.083 349.648C242.887 345.502 250.997 348.474 256.167 344.795C260.804 341.496 260.777 334.721 260.222 329.057C258.14 307.822 255.306 286.66 251.725 265.626C251.092 261.908 250.317 257.952 247.683 255.253C244.176 251.658 238.571 251.418 233.549 251.412C212.932 251.386 192.315 251.361 171.698 251.335C168.145 251.331 164.406 251.373 161.321 253.136C152.444 258.21 155.717 271.611 160.129 280.835C172.631 278.301 185.405 277.112 198.159 277.298C209.458 277.462 223.548 281.131 225.454 292.269C229.64 316.74 233.825 341.21 238.011 365.68C240.206 378.511 241.416 394.099 231.162 402.118C226.039 406.125 219.239 407.08 212.786 407.896C196.92 409.902 181.053 411.908 165.187 413.914C171.795 471.775 178.403 529.637 185.012 587.498C185.749 593.952 187.098 601.371 192.773 604.532C196.13 606.402 200.202 606.249 204.039 606.04C254.594 603.283 305.1 599.632 355.526 595.089C353.509 590.493 353.469 585.069 355.418 580.443C360.526 610.344 365.633 640.245 370.741 670.146C379.683 663.982 378.308 650.602 375.934 640.004C369.923 613.171 363.913 586.338 357.902 559.505C355.469 563.969 353.035 568.433 350.602 572.897C349.407 567.324 352.751 561.557 357.39 558.244C362.028 554.93 367.745 553.571 373.319 552.376C390.455 548.702 407.776 545.896 425.196 543.972C420.134 508.262 415.072 472.553 410.009 436.843C378.887 445.391 345.929 442.701 313.772 439.944C304.248 439.128 292.144 435.922 291.235 426.406C288.952 402.484 286.669 378.562 284.386 354.64C284.088 351.521 282.281 347.321 279.306 348.303C271.996 350.717 267.648 340.302 267.05 332.626C265.173 308.553 263.296 284.479 261.419 260.405C261.173 257.248 261.109 253.604 263.463 251.486C265.112 250.003 267.486 249.731 269.694 249.53C285.446 248.089 301.198 246.649 316.951 245.209C325.946 244.386 336.163 243.961 342.709 250.186C347.329 254.579 348.879 261.241 349.854 267.541C351.651 279.153 352.246 290.95 351.627 302.683C350.378 291.214 349.13 279.745 347.882 268.276C347.32 263.115 346.634 257.643 343.374 253.604C337.81 246.709 327.458 246.825 318.628 247.551C302.854 248.849 287.081 250.147 271.307 251.445C269.183 251.62 266.881 251.871 265.337 253.34C263.328 255.252 263.385 258.416 263.586 261.181C265.276 284.447 266.966 307.712 268.656 330.978C268.975 335.369 269.409 340.063 272.185 343.48C274.961 346.898 280.984 347.971 283.578 344.413C280.025 336.601 284.94 327.035 292.216 322.482C299.492 317.929 308.421 317.128 316.977 316.445C331.732 315.268 346.487 314.091 361.243 312.914C360.232 282.373 356.938 251.909 351.399 221.858C346.295 220.431 341.648 217.414 338.267 213.334C335.736 219.852 328.199 223.995 321.34 222.637C314.481 221.279 309.091 214.577 309.235 207.586C308.421 215.631 301.413 222.609 293.364 223.387C285.316 224.166 277.1 218.66 274.76 210.92C270.906 215.218 265.905 218.922 260.155 219.446C254.406 219.969 248.046 216.338 247.111 210.641C239.56 220.437 222.011 219.443 215.614 208.857C209.035 219.715 190.304 219.448 184.037 208.407C181.223 218.615 165.513 219.431 157.973 211.998C150.432 204.565 148.964 193.115 147.915 182.579C135.468 194.572 133.222 213.838 135.585 230.96C137.947 248.083 144.103 264.577 145.597 281.797C149.007 282.654 152.747 282.113 155.774 280.324C152.504 270.443 150.354 257.168 159.23 251.733C162.79 249.553 167.196 249.442 171.37 249.393C191.262 249.163 211.153 248.933 231.045 248.702ZM428.097 414.988C454.19 413.692 481.107 417.093 505.904 408.87C509.741 407.597 513.672 405.92 516.144 402.721C509.81 399.81 503.083 394.791 503.238 387.821C503.34 383.244 506.512 379.288 510.085 376.426C513.836 373.421 518.203 371.19 522.836 369.911C523.211 368.764 521.195 368.516 520.196 369.193C519.198 369.871 517.682 370.709 517.018 369.702C516.839 369.431 516.803 369.094 516.771 368.772C514.282 343.444 510.594 318.235 505.723 293.255C504.259 285.745 502.083 277.379 495.463 273.541C491.889 271.468 487.605 271.12 483.483 270.835C452.455 268.688 421.369 267.374 390.27 266.892C382.921 266.779 374.699 267.052 369.546 272.294C365.638 276.271 364.518 282.177 364.104 287.738C362.823 304.956 366.51 322.096 368.909 339.194C371.782 359.677 372.816 380.366 374.712 400.962C374.964 403.703 375.27 406.559 376.752 408.878C379.294 412.853 384.454 414.1 389.127 414.755C396.03 415.723 403.011 416.132 409.98 415.978C416.027 415.844 422.056 415.288 428.097 414.988ZM213.954 282.128C205.121 278.245 195.004 279.285 185.419 280.398C170.921 282.081 156.423 283.764 141.925 285.447C134.957 286.256 127.982 287.066 121.088 288.366C119.426 288.68 117.759 289.025 116.191 289.658C110.046 292.142 106.383 298.767 105.531 305.34C104.678 311.912 106.139 318.538 107.54 325.016C111.892 345.148 115.752 365.468 116.799 386.039C117.006 390.111 117.11 394.237 118.23 398.158C119.349 402.079 121.634 405.851 125.208 407.815C127.956 409.326 131.186 409.639 134.316 409.845C163.004 411.73 191.677 407.104 220.055 402.493C224.093 401.837 228.341 401.088 231.488 398.476C236.349 394.441 237.076 387.342 237.041 381.024C236.976 369.357 235.564 357.698 232.84 346.352C229.655 333.083 224.653 320.03 224.521 306.385C224.462 300.366 225.252 293.881 222.112 288.746C220.257 285.712 217.21 283.559 213.954 282.128ZM77.4398 534.802C81.2964 562.512 82.5921 590.577 81.305 618.524C81.2372 619.998 83.0272 620.748 84.4757 621.025C103.027 624.571 122.133 620.027 140.135 614.311C150.368 611.062 160.609 607.359 169.46 601.28C173.508 598.499 177.605 594.309 176.848 589.456C171.984 558.278 169.309 526.76 168.849 495.208C152.469 508.007 131.683 513.438 111.538 518.563C101.989 520.992 92.3119 523.437 82.46 523.355C80.0785 523.335 78.101 525.427 77.4355 527.714C76.7699 530.001 77.1115 532.443 77.4398 534.802ZM453.946 548.809C423.263 545.821 391.964 549.33 362.705 559.037C364.461 572.402 366.862 585.681 369.895 598.815C371.109 604.074 372.425 609.309 373.741 614.544C376.303 624.739 378.865 634.933 381.427 645.128C381.784 646.547 382.231 648.098 383.454 648.901C384.545 649.617 385.958 649.535 387.26 649.427C417.556 646.9 447.836 644.163 478.095 641.215C471.48 611.728 464.865 582.242 458.25 552.755C457.996 551.622 457.69 550.401 456.789 549.669C456.008 549.036 454.946 548.906 453.946 548.809ZM408.717 419.369C402.04 419.709 395.264 420.041 388.745 418.56C382.226 417.079 375.882 413.526 372.534 407.739C370.613 409.951 366.793 410.117 364.687 408.08C362.581 406.043 362.619 402.22 364.765 400.225C356.284 400.302 347.803 400.378 339.321 400.455C343.197 402.738 342.879 409.47 338.872 411.515C334.865 413.56 329.319 410.106 329.226 405.608C329.185 403.59 330.423 401.323 332.434 401.142C331.6 399.713 329.435 400.559 327.788 400.403C325.306 400.168 323.95 397.464 323.079 395.128C319.548 385.654 316.335 376.065 313.123 366.479C315.373 370.16 320.438 371.816 324.428 370.175C325.837 369.595 325.88 367.568 325.28 366.167C324.232 363.721 321.844 361.835 319.191 361.627C316.538 361.419 313.777 363.04 312.88 365.545C311.55 364.551 312.117 362.252 313.512 361.351C314.907 360.451 316.694 360.53 318.351 360.63C333.994 361.575 349.695 361.56 365.336 360.585C366.048 360.541 366.833 360.461 367.318 359.939C367.867 359.348 367.814 358.436 367.727 357.634C367.129 352.132 366.531 346.63 365.933 341.128C365.867 340.518 365.773 339.851 365.317 339.44C364.815 338.987 364.058 339.008 363.384 339.056C343.777 340.453 324.221 342.564 304.768 345.382C302.697 345.682 300.771 343.944 300.117 341.956C299.464 339.969 299.766 337.809 300.075 335.739C300.183 335.013 300.321 334.227 300.859 333.727C301.354 333.267 302.072 333.159 302.743 333.073C322.982 330.49 343.353 328.94 363.75 328.431C363.255 330.446 360.627 330.88 358.552 330.917C339.622 331.253 320.713 332.771 301.971 335.458C300.475 338.017 302.526 341.464 305.288 342.54C308.051 343.616 311.145 343.041 314.059 342.493C330.116 339.471 346.407 337.69 362.739 337.171C365.07 337.097 365.349 333.742 364.859 331.461C363.721 326.164 362.583 320.867 361.445 315.571C350.135 317.712 338.582 318.567 327.081 318.113C320.275 317.844 313.506 319.033 306.798 320.218C301.098 321.225 295.023 322.418 290.904 326.485C286.089 331.238 285.226 338.671 285.518 345.431C285.998 356.521 288.812 367.369 290.201 378.382C291.899 391.839 291.462 405.479 292.765 418.979C293.116 422.616 293.617 426.321 295.248 429.591C296.878 432.861 299.843 435.668 303.457 436.207C333.154 440.635 363.435 441.138 393.263 437.699C396.018 437.381 398.798 437.023 401.399 436.061C405.504 434.542 409.024 431.497 411.119 427.654C411.959 426.111 412.587 424.347 412.28 422.617C411.974 420.887 410.471 419.28 408.717 419.369ZM171.297 495.235C174.404 529.428 177.512 563.621 180.62 597.814C181.179 603.96 181.717 610.309 179.796 616.173C177.875 622.038 172.822 627.339 166.654 627.541C170.275 632.837 176.524 635.866 182.844 636.975C189.163 638.084 195.643 637.497 202.031 636.906C254.673 632.043 307.314 627.179 359.955 622.316C358.825 615.737 357.695 609.159 356.565 602.581C356.312 601.105 355.587 599.232 354.093 599.344C317.899 602.041 281.705 604.738 245.511 607.435C230.649 608.543 215.713 609.651 200.859 608.435C193.342 607.821 184.059 604.834 183.318 597.329C177.384 537.282 170.515 477.327 162.713 417.494C162.593 416.574 162.444 415.59 161.814 414.907C160.974 413.996 159.584 413.927 158.345 413.921C150.944 413.883 143.543 413.845 136.142 413.807C138.303 426.069 141.109 438.217 144.544 450.185C145.179 452.397 146.235 454.979 148.501 455.377C156.639 456.806 163.062 463.5 166.41 471.054C169.758 478.608 170.549 487.007 171.297 495.235ZM142.861 282.398C136.508 250.178 131.134 217.766 126.746 185.22C126.498 183.379 126.258 181.471 126.8 179.694C127.916 176.032 131.921 174.114 135.646 173.23C142.928 171.503 150.533 172.079 157.997 172.629C226.237 177.661 294.7 179.674 363.118 178.662C360.397 173.142 354.924 169.378 349.104 167.382C343.283 165.386 337.063 164.942 330.924 164.518C270.698 160.356 210.381 156.456 150.015 157.183C142.63 157.272 135.158 157.442 128.027 159.365C120.896 161.288 114.034 165.161 109.92 171.295C103.437 180.961 105.005 193.73 107.012 205.194C111.711 232.042 117.428 258.712 124.146 285.126C130.385 284.217 136.623 283.308 142.861 282.398ZM289.795 219.425C293.056 219.459 296.445 219.276 299.331 217.757C304.413 215.082 306.669 208.918 307.005 203.185C307.341 197.451 306.209 191.705 306.573 185.973C306.657 184.667 307.386 182.935 308.654 183.263C309.572 189.862 310.489 196.46 311.407 203.058C311.914 206.701 312.441 210.412 314.037 213.726C315.633 217.039 318.502 219.952 322.114 220.646C324.189 221.044 326.355 220.687 328.332 219.944C333.066 218.164 337.033 213.634 336.853 208.58C336.605 201.602 336.356 194.623 336.108 187.645C336.01 184.885 334.983 181.206 332.225 181.351C313.832 182.314 295.385 182.229 277.003 181.096C275.663 181.013 275.309 182.912 275.451 184.248C276.187 191.169 276.922 198.091 277.658 205.012C278.214 210.238 279.4 216.38 284.195 218.531C285.932 219.31 287.89 219.405 289.795 219.425ZM384.126 653.745C383.245 654.362 382.663 655.312 382.127 656.245C379.337 661.101 377.096 666.271 375.458 671.626C407.653 669.377 439.822 666.763 471.958 663.786C473.166 663.674 474.476 663.516 475.343 662.667C475.905 662.116 476.194 661.351 476.466 660.612C477.669 657.344 478.871 654.077 480.074 650.809C480.66 649.219 481.18 647.241 480.035 645.991C479.084 644.953 477.467 644.986 476.064 645.098C446.682 647.452 417.315 649.987 387.965 652.703C386.629 652.826 385.225 652.974 384.126 653.745ZM440.879 455.39C440.009 445.232 438.235 433.832 429.946 427.898C426.711 436.805 423.446 445.847 422.706 455.295C421.966 464.743 424.054 474.812 430.391 481.858C431.282 482.848 432.272 483.809 432.744 485.054C433.216 486.299 432.977 487.943 431.821 488.604C423.206 481.108 419.641 469.087 419.842 457.67C420.044 446.254 423.543 435.184 427.01 424.305C427.772 421.915 425.593 419.4 423.147 418.843C420.701 418.286 418.175 419.103 415.8 419.911C415.338 420.068 415.134 420.596 414.988 421.062C413.345 426.295 411.688 431.844 412.96 437.179C418.441 460.168 417.733 484.295 423.312 507.26C423.518 508.108 423.741 508.974 424.235 509.693C427.935 502.458 431.635 495.224 435.335 487.989C437.074 484.59 438.822 481.166 439.908 477.505C442.018 470.387 441.513 462.787 440.879 455.39ZM571.768 288.524C572.483 289.114 573.442 289.3 574.363 289.403C584.826 290.573 594.7 283.451 600.494 274.66C606.288 265.87 609.025 255.484 612.824 245.665C616.389 236.449 620.948 227.619 626.398 219.376C615.487 229.614 602.055 236.783 590.666 246.487C579.277 256.191 569.585 269.801 570.388 284.741C570.463 286.122 570.701 287.644 571.768 288.524ZM152.716 189.517C154.203 196.037 153.588 203.282 157.2 208.91C160.702 214.365 168.089 216.965 174.236 214.906C180.383 212.847 184.713 206.321 184.221 199.857C184.109 198.388 183.778 196.946 183.447 195.51C182.152 189.885 180.857 184.26 179.562 178.635C179.433 178.075 179.289 177.486 178.892 177.071C178.323 176.476 177.412 176.407 176.589 176.375C168.677 176.073 160.765 175.77 152.852 175.467C152.091 175.438 151.256 175.432 150.664 175.911C149.915 176.519 149.872 177.634 149.97 178.593C150.349 182.333 151.88 185.851 152.716 189.517ZM366.897 195.598C367.086 204.604 372.953 212.435 379.141 218.981C379.745 219.62 380.365 220.262 381.12 220.714C382.341 221.444 383.827 221.616 385.244 221.495C390.024 221.084 394.113 217.469 396.131 213.116C398.148 208.763 398.376 203.784 397.941 199.006C397.507 194.228 396.449 189.522 396.023 184.744C395.937 183.785 395.585 182.534 394.623 182.538C386.164 182.57 377.705 182.602 369.246 182.635C368.164 182.639 367.017 182.661 366.103 183.24C365.189 183.819 364.679 185.172 365.357 186.015C367.428 188.592 366.827 192.293 366.897 195.598ZM495.533 474.173C472.357 473.765 451.111 487.504 434.901 504.072C432.169 506.865 429.501 509.795 427.682 513.253C427.36 513.865 427.106 514.717 427.634 515.164C427.914 515.402 428.316 515.416 428.684 515.415C442.167 515.367 455.134 509.672 466.089 501.811C477.044 493.95 486.274 483.974 495.533 474.173ZM208.761 213.271C212.072 211.365 214.203 207.57 214.106 203.751C214.057 201.814 213.485 199.935 213.025 198.053C211.84 193.21 211.38 188.191 211.663 183.214C211.724 182.154 211.814 181.065 211.496 180.052C211.177 179.039 210.332 178.108 209.271 178.05C200.514 177.572 191.756 177.093 182.998 176.615C182.683 176.598 182.339 176.589 182.085 176.775C181.69 177.064 181.713 177.651 181.786 178.134C182.863 185.261 186.312 191.974 186.533 199.179C186.615 201.829 186.26 204.546 187.003 207.092C187.953 210.353 190.669 212.927 193.82 214.195C196.97 215.464 200.505 215.536 203.848 214.933C205.558 214.625 207.255 214.137 208.761 213.271ZM559.196 310.84C565.539 312.629 571.147 316.37 577.3 318.73C590.941 323.962 607.178 321.778 618.951 313.127C624.007 309.412 629.062 305.697 634.117 301.982C627.955 303.441 621.581 303.999 615.259 303.635C604.695 303.026 594.263 299.862 583.712 300.655C574.736 301.329 566.007 304.955 559.196 310.84ZM378.073 262.03C376.826 255.124 375.58 248.218 374.333 241.312C372.662 232.056 370.991 222.801 369.32 213.545C369.202 212.888 369.058 212.184 368.572 211.727C368.085 211.27 367.136 211.269 366.871 211.881C365.202 215.733 361.785 218.786 357.771 220.013C355.335 220.757 355.127 224.08 355.41 226.611C357.407 244.469 359.772 262.285 362.501 280.046C363.295 272.782 369.52 266.474 376.773 265.583C378.184 265.41 378.326 263.429 378.073 262.03ZM244.818 205.859C244.043 198.414 243.066 190.99 241.887 183.598C241.644 182.074 240.995 180.174 239.453 180.106C231.482 179.756 223.51 179.407 215.539 179.057C215.255 179.045 214.955 179.035 214.703 179.169C214.06 179.51 214.165 180.448 214.355 181.151C216.193 187.977 217.169 195.034 217.251 202.102C217.271 203.841 217.251 205.647 217.979 207.227C219.051 209.552 221.49 210.886 223.808 211.972C227.847 213.864 232.264 215.528 236.672 214.841C241.08 214.154 245.28 210.296 244.818 205.859ZM248.265 205.901C249.069 209.796 250.543 214.327 254.359 215.447C257.58 216.392 261.062 216.653 264.293 215.742C267.523 214.831 270.469 212.662 271.915 209.633C272.944 207.477 273.176 205.036 273.31 202.651C273.677 196.117 273.425 189.547 272.557 183.06C272.51 182.713 272.459 182.356 272.283 182.052C271.818 181.247 270.722 181.134 269.792 181.114C261.675 180.937 253.558 180.76 245.441 180.583C244.778 180.569 243.852 181.258 244.413 181.612C245.321 189.762 246.607 197.87 248.265 205.901ZM521.01 286.515C514.669 300.851 512.802 317.127 515.731 332.526C516.901 338.678 519.202 345.206 524.527 348.501C526.094 349.471 528.706 349.757 529.286 348.008C536.022 327.685 532.879 304.333 521.01 286.515ZM110.017 466.504C112.707 468.35 115.739 469.695 118.912 470.451C122.923 471.407 127.087 471.418 131.208 471.517C140.839 471.749 150.457 472.487 160.01 473.727C161.342 473.899 162.444 472.457 162.409 471.114C162.374 469.77 161.556 468.584 160.709 467.54C155.614 461.264 148.174 456.938 140.199 455.615C134.549 454.678 128.773 455.203 123.048 455.039C117.324 454.874 111.349 453.905 106.784 450.447C106.542 453.735 106.523 457.04 106.726 460.331C106.808 461.663 106.943 463.044 107.622 464.193C108.191 465.156 109.095 465.871 110.017 466.504ZM341.709 211.084C342.607 212.714 344.05 213.971 345.528 215.103C347.129 216.33 348.859 217.479 350.826 217.929C355.668 219.038 360.62 215.45 362.661 210.921C364.702 206.391 364.495 201.199 364.023 196.254C363.665 192.515 363.179 188.788 362.564 185.082C362.462 184.465 362.343 183.819 361.955 183.327C361.273 182.465 360.026 182.365 358.927 182.336C353.024 182.179 347.12 182.022 341.216 181.865C339.909 181.831 338.053 182.456 338.441 183.704C340.178 189.294 340.936 195.187 340.669 201.034C340.513 204.447 340.06 208.092 341.709 211.084M550.638 314.869C556.906 304.754 558.782 292.018 555.697 280.526C552.97 270.365 546.631 261.363 544.621 251.036C539.937 265.25 535.22 280.551 539.457 294.904C541.629 302.26 546.016 308.748 550.638 314.869ZM446.799 474.005C465.441 469.203 482.649 458.967 495.765 444.876C499.689 440.66 503.706 436.531 507.813 432.492C497.753 433.871 487.932 436.982 478.914 441.647C465.155 448.764 453.082 459.846 446.799 474.005ZM560.376 350.268C567.232 343.825 574.088 337.381 580.945 330.937C557.758 333.893 536.104 347.291 523.111 366.721C526.46 369.301 531.265 367.782 535.171 366.166C540.605 363.919 546.085 361.647 550.922 358.305C554.328 355.951 557.359 353.104 560.376 350.268ZM109.425 491.096C109.482 491.691 109.553 492.321 109.913 492.798C110.703 493.843 112.312 493.586 113.568 493.219C127.956 489.015 142.143 484.119 156.061 478.555C157.065 478.154 158.235 477.519 158.255 476.439C147.578 475.698 136.9 474.958 126.222 474.217C123.61 474.036 120.988 473.853 118.428 473.307C114.576 472.485 110.904 470.834 107.733 468.499C107.965 476.05 108.695 483.576 109.425 491.096ZM446.733 418.849C445.871 419.471 445.523 420.569 445.227 421.589C444.21 425.092 443.189 428.808 444.133 432.331C444.614 434.126 445.579 435.747 446.533 437.342C449.172 441.754 451.812 446.165 454.451 450.577C454.697 450.987 454.963 451.418 455.387 451.641C456.647 452.302 457.891 450.748 458.476 449.45C462.275 441.025 466.159 432.116 465.298 422.915C465.165 421.5 464.781 419.894 463.517 419.246C462.936 418.948 462.262 418.91 461.61 418.877C457.697 418.683 453.784 418.489 449.872 418.294C448.789 418.241 447.611 418.213 446.733 418.849ZM506.537 387.658C506.437 393.588 511.61 398.546 517.284 400.272C522.958 401.998 529.047 401.255 534.944 400.622C545.312 399.509 556.278 398.591 564.802 392.583C566.693 391.25 568.481 389.605 569.325 387.451C570.643 384.09 569.318 380.122 566.841 377.496C564.363 374.87 560.929 373.369 557.491 372.268C545.206 368.335 531.565 368.789 519.568 373.528C513.239 376.028 506.652 380.854 506.537 387.658ZM108.448 448.231C109.565 449.273 111.829 449.539 112.264 448.075C113.756 443.059 117.111 438.758 121.062 435.326C125.014 431.894 129.569 429.244 134.095 426.615C135.316 425.906 135.239 424.147 135.003 422.755C134.546 420.059 134.089 417.363 133.632 414.667C133.516 413.984 133.288 413.17 132.619 412.987C132.072 412.837 131.532 413.207 131.085 413.556C127.838 416.092 124.592 418.627 121.345 421.162C114.84 426.242 107.869 432.07 106.458 440.202C105.967 443.035 106.346 446.27 108.448 448.231M133.773 430.083C126.482 434.636 118.764 439.677 115.451 447.609C115.244 448.103 115.054 448.622 115.07 449.157C115.102 450.212 115.953 451.102 116.928 451.507C117.902 451.913 118.988 451.931 120.044 451.943C126.286 452.017 132.528 452.09 138.769 452.164C139.073 452.167 139.402 452.163 139.642 451.976C140.02 451.681 139.982 451.107 139.907 450.633C138.911 444.341 137.915 438.049 136.92 431.756C136.778 430.861 136.489 429.79 135.616 429.547C134.98 429.369 134.333 429.733 133.773 430.083ZM443.879 419.235C439.283 418.05 434.326 418.308 429.879 419.965C430.74 422.792 432.266 425.413 434.299 427.556C441.151 434.78 443.177 445.268 443.954 455.194C444.37 460.495 444.516 465.818 444.393 471.135C447.403 466.492 450.412 461.849 453.422 457.206C453.721 456.745 454.03 456.256 454.062 455.707C454.095 455.157 453.846 454.634 453.593 454.145C450.623 448.41 446.259 443.465 443.503 437.624C440.748 431.783 439.903 424.325 443.879 419.235ZM135.982 176.203C133.447 176.606 130.556 177.25 129.352 179.516C128.52 181.083 128.766 182.979 129.033 184.733C130.135 191.957 131.236 199.182 132.338 206.406C137.976 196.268 143.255 185.936 148.532 175.607C147.555 174.502 145.824 174.642 144.368 174.873C141.573 175.317 138.777 175.76 135.982 176.203ZM482.981 421.496C483.762 422.531 485.799 421.385 485.32 420.18C492.849 422.342 501.057 420.803 508.169 417.519C515.281 414.234 521.49 409.313 527.601 404.412C525.035 404.053 522.468 403.695 519.902 403.336C519.378 403.263 518.699 403.273 518.499 403.762C517.117 407.145 514.142 409.679 510.857 411.279C507.571 412.879 503.956 413.654 500.382 414.416C497.902 414.944 495.421 415.473 492.941 416.001C489.099 416.819 484.767 417.998 482.981 421.496ZM346.766 369.11C347.248 368.988 347.766 368.843 348.074 368.452C348.553 367.847 348.313 366.976 348.188 366.214C348.062 365.452 348.255 364.438 349.016 364.306C349.709 364.444 350.029 365.267 350.046 365.973C350.063 366.68 349.907 367.417 350.163 368.076C350.732 369.544 352.758 369.602 354.319 369.403C355.243 369.285 356.167 369.167 357.091 369.05C357.38 369.013 357.689 368.967 357.905 368.77C358.588 368.144 357.637 367.122 357.425 366.22C357.262 365.522 357.588 364.768 357.374 364.085C357.01 362.921 355.462 362.742 354.242 362.783C344.917 363.092 335.592 363.402 326.266 363.711C326.426 365.476 326.909 367.211 327.684 368.804C327.85 369.148 328.047 369.502 328.378 369.692C328.715 369.885 329.126 369.872 329.513 369.854C331.831 369.747 334.149 369.639 336.467 369.531C336.665 369.522 336.872 369.51 337.037 369.401C337.46 369.121 337.313 368.476 337.119 368.008C336.784 367.201 336.449 366.395 336.115 365.589C335.823 364.887 337.093 364.472 337.628 365.011C338.162 365.551 338.182 366.397 338.434 367.113C338.957 368.6 340.538 369.507 342.102 369.698C343.667 369.889 345.238 369.498 346.766 369.11ZM482.199 418.476C482.707 417.935 481.586 417.37 480.85 417.46C476.65 417.975 472.451 418.49 468.252 419.005C467.691 419.074 466.949 419.382 467.083 419.931C468.462 425.581 467.945 431.678 465.632 437.014C465.192 438.031 464.903 439.583 465.957 439.924C470.336 432.064 475.82 424.821 482.199 418.476ZM339.121 373.372C338.989 372.915 338.841 372.436 338.494 372.113C338.099 371.745 337.529 371.652 336.993 371.593C334.242 371.292 331.438 371.481 328.751 372.148C329.592 374.874 330.432 377.599 331.272 380.325C331.432 380.841 331.646 381.421 332.147 381.623C332.404 381.727 332.691 381.709 332.967 381.69C335.683 381.499 338.4 381.309 341.116 381.118C340.526 378.517 339.861 375.934 339.121 373.372ZM321.435 382.902C321.737 383.067 322.106 383.017 322.445 382.961C324.905 382.56 327.364 382.16 329.823 381.759C328.936 378.915 328.048 376.071 327.161 373.227C327.031 372.81 326.869 372.352 326.484 372.144C326.18 371.98 325.811 372.015 325.467 372.055C323.275 372.31 321.082 372.565 318.889 372.82C318.477 372.868 317.989 372.971 317.836 373.357C317.732 373.619 317.83 373.913 317.928 374.177C318.894 376.784 319.86 379.391 320.826 381.998C320.955 382.346 321.108 382.724 321.435 382.902ZM349.066 371.541C348.546 371.089 347.776 371.12 347.09 371.177C344.924 371.355 342.758 371.533 340.592 371.711C341.24 374.486 342.055 377.223 343.032 379.9C343.16 380.251 343.305 380.621 343.603 380.846C343.975 381.127 344.485 381.111 344.951 381.083C346.429 380.994 347.908 380.905 349.386 380.816C350.067 380.775 350.895 380.629 351.124 379.987C351.233 379.678 351.162 379.337 351.091 379.017C350.641 377.014 350.191 375.011 349.742 373.009C349.621 372.474 349.48 371.901 349.066 371.541ZM336.145 391.48C335.931 391.514 335.703 391.554 335.547 391.705C335.243 391.998 335.382 392.502 335.542 392.893C336.111 394.285 336.68 395.678 337.249 397.07C337.46 397.587 337.698 398.136 338.169 398.435C338.605 398.711 339.153 398.717 339.668 398.714C341.634 398.702 343.599 398.69 345.564 398.679C345.852 398.677 346.164 398.667 346.386 398.483C346.788 398.151 346.638 397.513 346.453 397.026C345.697 395.033 344.941 393.04 344.185 391.047C343.942 390.407 343.052 390.398 342.376 390.504C340.299 390.829 338.222 391.155 336.145 391.48ZM352.68 371.147C352.267 371.148 351.803 371.171 351.524 371.477C351.188 371.845 351.295 372.421 351.422 372.903C351.981 375.015 352.54 377.128 353.098 379.24C353.197 379.611 353.311 380.008 353.609 380.251C354.005 380.574 354.577 380.513 355.082 380.436C356.945 380.152 358.808 379.867 360.671 379.583C360.471 377.42 360.128 375.272 359.644 373.155C359.493 372.493 359.284 371.771 358.711 371.407C358.282 371.135 357.742 371.128 357.234 371.13C355.716 371.136 354.198 371.141 352.68 371.147ZM356.472 398.43C355.869 396.238 355.265 394.045 354.661 391.852C354.431 391.015 354.104 390.066 353.294 389.75C352.895 389.595 352.451 389.629 352.025 389.666C350.037 389.839 348.048 390.012 346.06 390.185C346.584 392.149 347.205 394.087 347.919 395.99C348.279 396.948 348.824 398.034 349.834 398.197C352.026 398.552 354.262 398.63 356.472 398.43ZM359.933 398.278C361.735 398.425 363.713 398.525 365.17 397.454C364.538 394.998 363.907 392.542 363.275 390.086C363.133 389.533 362.943 388.917 362.436 388.654C362.064 388.46 361.617 388.513 361.202 388.571C359.416 388.82 357.631 389.068 355.845 389.317C356.27 391.917 356.99 394.468 357.988 396.906C358.141 397.281 358.314 397.669 358.634 397.915C358.996 398.194 359.479 398.241 359.933 398.278ZM520.521 363.314C521.897 360.489 523.274 357.664 524.65 354.839C524.795 354.542 524.943 354.221 524.891 353.895C524.839 353.578 524.608 353.324 524.387 353.09C522.428 351.019 520.469 348.947 518.509 346.875C517.695 347.987 517.789 349.499 517.919 350.871C518.345 355.374 518.772 359.878 519.198 364.382C519.798 364.515 520.252 363.866 520.521 363.314ZM361.913 370.82C361.656 370.802 361.363 370.797 361.183 370.982C360.982 371.19 361.026 371.525 361.085 371.808C361.473 373.678 361.86 375.548 362.248 377.418C362.392 378.111 362.562 378.852 363.085 379.329C364.777 380.872 368.037 378.218 369.61 379.883C369.887 377.227 369.688 374.523 369.026 371.937C368.979 371.755 368.924 371.563 368.785 371.438C368.624 371.293 368.39 371.271 368.174 371.256C366.087 371.111 364 370.966 361.913 370.82ZM322.981 384.689C322.755 384.72 322.52 384.754 322.334 384.886C321.923 385.178 321.939 385.784 321.998 386.285C322.155 387.622 322.329 389.007 323.028 390.158C323.728 391.308 325.11 392.16 326.411 391.812C328.274 391.312 330.138 390.812 332.002 390.312C331.921 388.531 331.56 386.763 330.937 385.092C330.782 384.675 330.586 384.236 330.203 384.01C329.805 383.776 329.308 383.831 328.85 383.893C326.894 384.158 324.937 384.424 322.981 384.689ZM366.449 369.06C367.01 368.975 367.608 368.873 368.025 368.488C369.266 367.341 367.847 365.01 368.853 363.653C369.246 363.122 368.284 362.648 367.625 362.676C364.681 362.8 361.737 362.925 358.793 363.049C358.907 364.267 359.119 365.476 359.425 366.66C359.767 367.98 361.054 368.883 362.386 369.176C363.717 369.468 365.101 369.265 366.449 369.06ZM342.655 384.917C342.276 383.096 339.838 382.67 338.009 383.011C336.181 383.352 334.138 384.012 332.584 382.99C332.683 384.912 333.132 386.817 333.903 388.581C334.065 388.951 334.261 389.338 334.613 389.537C335.01 389.761 335.501 389.69 335.951 389.612C337.753 389.301 339.556 388.99 341.359 388.678C342.252 388.524 343.43 387.817 342.96 387.041C342.585 386.423 342.802 385.624 342.655 384.917ZM331.519 392.393C330.046 392.642 328.573 392.892 327.1 393.141C326.303 393.276 325.32 393.596 325.235 394.4C325.02 396.434 327.046 398.073 329.05 398.478C331.054 398.883 333.134 398.487 335.169 398.688C335.085 396.96 334.723 395.245 334.102 393.63C333.954 393.246 333.778 392.849 333.452 392.598C332.923 392.19 332.177 392.281 331.519 392.393ZM370.334 388.448C368.38 388.241 366.393 388.345 364.47 388.754C365.533 391.284 366.287 393.943 366.712 396.654C366.906 397.897 368.681 397.921 369.9 397.611C370.355 397.495 370.851 397.35 371.111 396.96C371.334 396.623 371.324 396.188 371.305 395.784C371.2 393.552 371.096 391.319 370.991 389.087C370.985 388.946 370.975 388.797 370.894 388.681C370.775 388.51 370.542 388.47 370.334 388.448ZM338.419 408.449C340.262 406.609 339.317 402.896 336.819 402.161C334.321 401.425 331.516 404.035 332.069 406.58C332.64 409.21 336.513 410.35 338.419 408.449ZM352.905 386.885C354.077 385.355 352.322 383.096 350.423 382.763C348.524 382.43 346.6 383.158 344.672 383.13C343.962 383.119 343.932 384.188 344.163 384.859C344.462 385.728 344.76 386.597 345.059 387.466C345.181 387.822 345.402 388.248 345.777 388.225C347.152 388.139 348.526 388.053 349.901 387.967C350.998 387.898 352.236 387.758 352.905 386.885ZM371.904 401.659C371.762 401.275 371.552 400.9 371.221 400.658C370.924 400.442 370.553 400.35 370.188 400.306C367.303 399.958 364.503 402.836 364.929 405.71C366.157 407.17 368.469 407.573 370.118 406.615C371.767 405.657 372.563 403.449 371.904 401.659ZM354.096 384.282C354.033 385.546 355.145 386.625 356.363 386.966C357.582 387.307 358.879 387.087 360.125 386.865C360.763 386.751 361.478 386.587 361.812 386.031C362.524 384.847 361.11 382.676 362.415 382.222C361.539 382.101 360.664 381.981 359.788 381.861C358.631 381.702 357.435 381.546 356.313 381.866C355.19 382.186 354.155 383.116 354.096 384.282ZM364.565 385.9C365.892 387.053 368.113 386.894 369.346 385.641C370.579 384.387 370.74 382.263 369.81 380.77C367.487 381.201 365.165 381.632 362.842 382.062C363.135 383.46 363.487 384.962 364.565 385.9ZM544.018 363.702C542.209 364.372 540.401 365.042 538.592 365.712C537.694 366.045 536.783 366.384 536.005 366.943C538.963 368.097 542.694 366.589 544.018 363.702ZM375.927 220.173C375.88 219.374 375.035 218.721 374.25 218.877C374.3 219.69 375.111 220.373 375.921 220.286L375.927 220.173Z" fill="#00160A"/>
</svg>
