<svg width="677" height="444" viewBox="0 0 677 444" fill="none" xmlns="http://www.w3.org/2000/svg">
<path fill-rule="evenodd" clip-rule="evenodd" d="M654.106 296.673C643.694 321.269 625.633 325.548 606.509 345.172C587.386 364.797 529.953 353.567 510.194 364.988C456.622 395.954 454.937 430.982 364.5 435.52C331.981 437.151 303.458 433.452 274.382 429.684C243.902 425.734 207.771 437.807 166.531 412.509C65.9291 350.795 3.34509 249.33 0.999939 195.99C-0.844279 154.043 29.2145 125.132 49.4568 105.917C92.4844 65.0728 147.877 76.3011 199.769 61.8546C272.987 41.4707 319.925 -1.61274 372.376 1.00005C446.422 -0.937532 492.617 58.9967 550.9 61.8546C592.34 63.8867 731.172 114.622 654.106 296.673Z" fill="#64FCD9"/>
<path fill-rule="evenodd" clip-rule="evenodd" d="M206.903 402.443C208.352 405.841 208.468 410.992 204.908 411.979C200.212 409.667 196.865 404.816 196.371 399.605C177.11 400.445 157.85 401.285 138.589 402.125C131.43 402.437 122.594 403.963 120.463 410.805C119.631 405.414 112.512 404.175 107.058 404.248C90.7589 404.467 74.46 404.686 58.1611 404.905C57.9126 397.464 57.6641 390.024 57.4156 382.583C57.3674 381.142 57.3337 379.631 57.9803 378.341C59.7163 374.88 64.7021 375.248 68.4712 376.137C67.2597 364.023 66.0481 351.91 64.8366 339.796C59.2167 341.082 61.0246 326.672 55.368 327.785C51.9437 328.459 48.7154 325.314 47.9845 321.901C47.2537 318.489 48.3197 314.976 49.3745 311.65C52.5536 310.679 57.1096 311.64 60.3314 310.679C63.5532 309.718 65.5166 307.861 65.4041 304.501C63.0669 234.722 58.021 165.034 50.2817 95.6471C45.3407 97.7725 39.457 93.9366 37.4692 88.9387C35.4814 83.9408 36.3329 78.3115 37.3729 73.0343C37.7378 71.1823 38.1861 69.2145 39.5461 67.9055C41.2798 66.2368 43.9446 66.1323 46.3509 66.1268C121.861 65.955 197.371 65.7832 272.881 65.6114C274.527 65.6076 276.34 65.6652 277.557 66.7737C278.669 67.7872 278.962 69.3953 279.193 70.8821C280.09 76.6635 280.971 82.6911 279.206 88.2692C277.442 93.8473 272.166 98.7828 266.355 98.1003C269.534 166.967 272.712 235.833 275.891 304.699C281.071 303.567 287.129 305.484 289.713 310.115C292.297 314.745 289.941 321.743 284.766 322.902C288.067 325.647 286.474 331.489 282.841 333.777C279.208 336.065 274.587 335.831 270.312 335.441C266.036 335.05 261.473 334.634 257.682 336.649C258.577 344.947 258.465 353.353 257.351 361.625C261.028 359.432 266.005 359.661 269.465 362.183C271.867 363.934 274.049 359.673 274.027 356.701C273.974 349.778 273.921 342.856 273.868 335.933C277.618 344.533 278.661 354.289 276.815 363.486C281.437 363.847 286.06 364.207 290.683 364.568C292.072 364.676 293.577 364.833 294.597 365.784C295.611 366.731 295.875 368.215 296.051 369.591C297.189 378.477 297.019 387.529 295.548 396.365C265.597 394.289 237.178 394.952 207.405 398.825C206.658 398.825 205.454 399.046 206.903 402.443Z" fill="white"/>
<ellipse cx="171.5" cy="248" rx="0.5" ry="2" transform="rotate(21 171.5 248)" fill="#FFB61D"/>
<path fill-rule="evenodd" clip-rule="evenodd" d="M405.535 258.218C405.535 258.218 401.334 162.775 403.771 115.098C404.037 109.893 404.327 104.558 402.786 99.579C401.245 94.6001 397.446 89.9693 392.324 89.0048C391.314 80.0734 391.449 71.0132 392.724 62.116C466.545 62.4998 540.366 62.8837 614.188 63.2676C614.454 68.8846 614.721 74.5015 614.988 80.1185C615.24 85.4368 613.134 92.9665 607.916 91.9074C605.797 91.4771 604.78 94.402 604.668 96.5622C603.752 114.307 602.836 132.051 601.921 149.796C599.199 202.531 596.476 255.346 598.303 308.12C603.021 308.356 607.739 308.591 612.457 308.826C613.708 311.789 614.987 314.94 614.52 318.123C614.053 321.305 611.099 324.353 607.954 323.68C610.695 330.07 603.383 338.081 596.77 335.934C597.301 343.575 597.831 351.216 598.362 358.856C598.462 360.298 598.611 361.859 599.589 362.922C602.641 366.239 609.179 361.119 612.402 364.27C612.838 371.785 613.274 379.3 613.711 386.815C613.83 388.865 613.842 391.199 612.353 392.612C611.353 393.56 609.913 393.84 608.554 394.07C582.074 398.547 554.929 399.076 528.294 395.634C529.725 402.482 530.83 410.574 525.988 415.623C522.416 419.347 522.795 424.691 524.404 422.169C524.092 425.442 521.047 428.222 517.759 428.236C514.937 428.534 515.499 423.82 517.424 421.735C521.652 417.159 527.119 413.064 528.465 406.981C529.811 400.898 515.084 404 515.5 407.724C512.836 404.718 513.183 399.542 516.226 396.919C508.293 398.729 500.063 399.225 491.97 398.382C502.191 396.833 512.413 395.284 522.634 393.734C519.724 385.681 486.554 407.002 485.82 423.031C484.229 413.807 485.401 404.124 489.147 395.546C488.246 394.115 487.078 392.852 485.722 391.843C495.041 388.194 476.326 408.198 473.287 400.598C463.044 401.764 452.801 402.931 442.559 404.097C442.929 405.973 443.896 407.726 445.286 409.04C439.212 409.919 433.113 404.132 433.673 398.02C430.685 403.409 435.295 409.834 440.04 413.765C444.785 417.695 450.538 422.111 450.336 428.269C445.62 429.922 439.824 426.56 438.918 421.645C440.632 424.838 438.68 417.848 436.61 418.503C432.769 419.717 429.96 430.458 431.809 426.887C431.606 431.689 426.959 435.839 422.164 435.5C418.767 428.828 424.38 419.501 431.867 419.379C434.953 419.328 436.783 415.46 435.97 412.483C435.157 409.506 432.667 407.336 430.301 405.354C428.709 407.434 426.652 409.156 424.325 410.358C424.25 406.848 424.94 403.322 426.334 400.099C423.187 403.674 421.412 408.428 421.447 413.191C419.841 409.265 419.984 404.66 421.831 400.842C412.52 402.428 403.065 403.172 393.62 403.061C392.064 392.273 390.509 381.485 388.953 370.698C394.794 369.118 400.844 368.318 406.895 368.324C403.863 350.178 406.895 349.674 403.128 341.503C402.617 340.393 400.799 342.515 399.562 340.014C398.325 337.514 397.773 331.002 397.773 331.002C397.773 331.002 392.722 330.264 392.324 328.905C390.761 323.57 389.005 318.804 392.805 315.934C396.855 312.875 403.198 315.496 407.443 312.711C406.55 309.188 407.767 296.875 404.862 289.221C402.575 283.197 397.814 285.891 392.743 281.534C389.453 278.707 385.865 275.828 384.428 271.735C382.992 267.642 384.951 262.036 389.247 261.438C393.448 260.854 396.625 265.01 398.773 268.667C397.806 265.44 400.389 261.654 403.747 261.377C407.902 274.479 405.535 258.218 405.535 258.218Z" fill="white"/>
<ellipse cx="478" cy="233" rx="1" ry="2" fill="#FFB61D"/>
<path fill-rule="evenodd" clip-rule="evenodd" d="M117.572 123.307C118.007 123.647 118.084 124.276 117.743 124.71L104.613 141.472C104.273 141.906 103.644 141.983 103.21 141.642C102.775 141.302 102.698 140.673 103.039 140.238L116.168 123.477C116.509 123.042 117.138 122.966 117.572 123.307Z" fill="#E7EAEE"/>
<path fill-rule="evenodd" clip-rule="evenodd" d="M134.674 128.106C135.095 128.464 135.145 129.096 134.787 129.516L117.215 150.134C116.857 150.554 116.226 150.604 115.805 150.246C115.385 149.888 115.335 149.257 115.693 148.836L133.265 128.219C133.623 127.798 134.254 127.748 134.674 128.106Z" fill="#E7EAEE"/>
<path fill-rule="evenodd" clip-rule="evenodd" d="M162.55 129.467C162.987 129.805 163.067 130.433 162.729 130.87L148.275 149.538C147.937 149.975 147.309 150.055 146.872 149.717C146.436 149.379 146.356 148.75 146.694 148.314L161.148 129.646C161.486 129.209 162.114 129.129 162.55 129.467Z" fill="#E7EAEE"/>
<path fill-rule="evenodd" clip-rule="evenodd" d="M201.565 127.959C202.013 128.283 202.114 128.908 201.791 129.356L190.021 145.66C189.698 146.108 189.073 146.209 188.625 145.886C188.177 145.562 188.076 144.937 188.399 144.489L200.169 128.185C200.492 127.737 201.117 127.636 201.565 127.959Z" fill="#E7EAEE"/>
<path fill-rule="evenodd" clip-rule="evenodd" d="M468.949 125.042C469.341 125.431 469.344 126.064 468.955 126.457L455.171 140.356C454.782 140.748 454.149 140.75 453.757 140.361C453.365 139.973 453.362 139.339 453.751 138.947L467.535 125.048C467.924 124.656 468.557 124.654 468.949 125.042Z" fill="#E7EAEE"/>
<path fill-rule="evenodd" clip-rule="evenodd" d="M488.017 128.913C488.4 129.311 488.388 129.944 487.99 130.327L469.88 147.757C469.482 148.14 468.849 148.128 468.466 147.73C468.083 147.332 468.095 146.699 468.493 146.316L486.603 128.886C487.001 128.503 487.634 128.516 488.017 128.913Z" fill="#E7EAEE"/>
<path fill-rule="evenodd" clip-rule="evenodd" d="M531.522 137.655C531.904 138.054 531.89 138.687 531.491 139.068L519.552 150.488C519.152 150.87 518.519 150.856 518.138 150.457C517.756 150.057 517.77 149.424 518.169 149.043L530.109 137.623C530.508 137.241 531.141 137.256 531.522 137.655Z" fill="#E7EAEE"/>
<path fill-rule="evenodd" clip-rule="evenodd" d="M554.236 138.458C554.612 138.862 554.589 139.495 554.184 139.871L541.804 151.379C541.399 151.755 540.767 151.732 540.391 151.328C540.015 150.923 540.038 150.29 540.442 149.914L552.822 138.406C553.227 138.03 553.86 138.053 554.236 138.458Z" fill="#E7EAEE"/>
<path fill-rule="evenodd" clip-rule="evenodd" d="M336.262 211.71C335.863 208.204 335.691 204.672 335.748 201.144C333.529 200.275 331.061 200.418 328.683 200.573C319.604 201.167 310.525 201.761 301.446 202.355C299.945 202.453 298.413 202.548 296.96 202.159C295.477 201.762 293.779 200.905 292.55 201.827C291.485 202.625 291.573 204.221 291.768 205.538C292.133 208.015 292.499 210.493 292.864 212.97C292.927 213.392 293.01 213.852 293.336 214.125C293.637 214.377 294.062 214.4 294.454 214.41C307.192 214.749 319.943 214.632 332.673 214.06C334.286 213.987 336.445 213.314 336.262 211.71V211.71Z" fill="white"/>
<path fill-rule="evenodd" clip-rule="evenodd" d="M379.832 152.359C380.113 151.255 379.081 150.174 377.967 149.937C376.853 149.699 375.709 150.046 374.605 150.323C370.202 151.43 357.971 151.425 356.31 151.436C351.451 151.47 346.592 151.503 341.732 151.537C340.581 151.544 339.606 152.492 339.197 153.569C338.788 154.645 338.825 155.832 338.868 156.983C338.912 158.171 338.956 159.36 339 160.548C339.027 161.257 339.12 162.085 339.728 162.45C339.991 162.608 340.307 162.645 340.612 162.677C345.323 163.174 350.072 163.306 354.803 163.073C363.173 162.66 371.546 161.105 379.882 161.965C379.048 158.837 379.031 155.496 379.832 152.359Z" fill="white"/>
<path fill-rule="evenodd" clip-rule="evenodd" d="M530.406 399.99C530.505 399.303 531.067 398.762 531.689 398.452C533.383 397.608 535.523 398.196 536.953 399.436C538.382 400.676 539.23 402.449 539.907 404.217C540.148 404.846 540.349 405.629 539.904 406.136C539.737 406.326 539.502 406.441 539.269 406.54C537.312 407.367 534.969 407.275 533.127 406.215C531.286 405.155 530.015 403.128 529.953 401.004C530.75 401.11 531.141 401.994 531.556 402.683C532.979 405.051 536.397 405.944 538.797 404.575C536.525 402.275 533.569 400.66 530.406 399.99Z" fill="#00160A"/>
<path fill-rule="evenodd" clip-rule="evenodd" d="M518.697 379.751C519.387 378.895 520.077 378.039 520.767 377.183C520.31 381.028 517.15 384.395 513.342 385.093C512.167 384.19 510.175 384.791 509.695 386.194C508.987 386.338 508.275 385.782 508.042 385.099C507.81 384.415 507.959 383.657 508.222 382.984C508.619 381.97 509.26 381.073 509.895 380.187C512.035 377.202 514.51 373.99 518.109 373.254C519.039 373.063 520.089 373.081 520.838 373.664C521.587 374.247 521.796 375.542 521.047 376.126C520.179 374.961 518.432 374.77 517.076 375.294C515.721 375.817 514.666 376.891 513.655 377.935C512.676 378.946 511.697 379.957 510.718 380.969C510.18 381.525 509.689 382.551 510.362 382.932C511.13 381.283 513.453 381.149 514.796 379.923C515.96 378.862 516.74 376.829 518.293 377.094C517.483 378.961 516.011 380.532 514.202 381.463C513.424 381.862 512.521 382.209 512.134 382.992C513.334 383.541 514.787 383.231 515.903 382.528C517.019 381.825 517.869 380.778 518.697 379.751Z" fill="#00160A"/>
<path fill-rule="evenodd" clip-rule="evenodd" d="M486.157 375.794C488.054 376.129 490.111 375.066 490.935 373.325C491.76 371.584 491.279 369.32 489.818 368.064C490.239 367.548 491.054 367.483 491.644 367.794C492.234 368.105 492.62 368.708 492.842 369.337C493.552 371.35 492.76 373.648 491.376 375.274C489.992 376.9 488.096 377.988 486.241 379.044C485.382 379.533 484.483 380.035 483.496 380.096C482.51 380.157 481.411 379.634 481.152 378.68C481.067 378.368 481.085 378.01 481.281 377.753C482.242 376.494 484.506 379.482 485.54 378.282C485.291 377.321 485.043 376.361 484.795 375.4C485.242 375.556 485.691 375.712 486.157 375.794Z" fill="#00160A"/>
<path fill-rule="evenodd" clip-rule="evenodd" d="M468.767 372.84C466.651 372.582 465.145 370.295 465.376 368.176C465.607 366.057 467.268 364.273 469.244 363.474C469.849 363.229 470.605 363.085 471.104 363.505C471.603 363.926 471.26 365.016 470.637 364.823C469.111 364.351 467.652 365.885 467.23 367.425C466.961 368.406 466.944 369.517 467.487 370.376C468.031 371.235 469.253 371.699 470.121 371.17C470.747 370.789 471.385 371.671 471.533 372.389C471.682 373.107 472.011 374.055 472.739 373.969C473.937 373.374 474.384 371.937 475.066 370.787C475.748 369.637 477.291 368.637 478.341 369.465C478.476 369.572 478.597 369.718 478.605 369.889C478.613 370.076 478.487 370.239 478.366 370.382C477.197 371.764 475.905 373.042 474.511 374.196C473.577 374.969 472.285 375.716 471.23 375.12C470.231 374.556 469.905 372.978 468.767 372.84Z" fill="#00160A"/>
<path fill-rule="evenodd" clip-rule="evenodd" d="M478.953 394.52C477.918 393.601 476.863 392.657 476.187 391.449C475.511 390.241 475.272 388.697 475.927 387.477C476.106 387.143 476.383 386.82 476.757 386.76C477.131 386.699 477.561 387.047 477.452 387.41C476.975 388.999 477.669 390.864 479.068 391.754C479.609 392.098 480.335 392.742 479.881 393.195C479.34 393.734 480.325 394.464 481.079 394.587C482.527 394.824 483.974 395.06 485.421 395.297C485.139 396.49 483.667 397.069 482.468 396.813C481.269 396.557 480.294 395.713 479.378 394.898C479.236 394.772 479.094 394.646 478.953 394.52Z" fill="#00160A"/>
<path fill-rule="evenodd" clip-rule="evenodd" d="M425.636 430.803C425.779 429.916 425.923 429.029 426.067 428.141C426.149 427.632 426.236 427.112 426.48 426.658C426.773 426.115 427.266 425.714 427.747 425.328C429.065 424.268 430.383 423.208 431.702 422.148C432.74 422.939 432.948 424.615 432.136 425.636C432.069 424.696 431.459 423.814 430.603 423.419C429.645 426.264 427.91 428.844 425.636 430.803Z" fill="#00160A"/>
<path fill-rule="evenodd" clip-rule="evenodd" d="M527.363 417.788C527.85 420.399 528.849 422.914 530.288 425.146C531.422 426.905 530.385 429.204 529.347 431.021C528.88 431.203 528.438 430.594 528.515 430.099C528.593 429.603 528.956 429.208 529.19 428.764C530.11 427.022 528.968 424.955 527.953 423.266C526.939 421.577 526.067 419.273 527.363 417.788L527.363 417.788Z" fill="#00160A"/>
<path fill-rule="evenodd" clip-rule="evenodd" d="M338.626 214.007C338.606 214.612 338.577 215.249 338.261 215.765C337.684 216.707 336.417 216.891 335.315 216.974C320.457 218.088 305.526 218.248 290.647 217.454C290.462 217.444 290.271 217.432 290.104 217.351C289.694 217.152 289.584 216.629 289.522 216.177C289.108 213.155 288.694 210.132 288.28 207.109C287.984 204.946 287.733 202.567 288.932 200.743C290.562 198.264 294.017 197.969 296.984 197.927C310.465 197.738 323.947 197.549 337.429 197.361C337.997 197.353 338.669 197.398 338.97 197.88C339.145 198.158 339.139 198.508 339.129 198.836C338.961 203.893 338.794 208.95 338.626 214.007ZM336.263 211.71C335.863 208.204 335.691 204.672 335.748 201.144C333.53 200.275 331.062 200.418 328.684 200.573C319.605 201.167 310.525 201.761 301.446 202.355C299.946 202.453 298.413 202.548 296.961 202.159C295.477 201.762 293.78 200.905 292.551 201.827C291.486 202.625 291.574 204.221 291.768 205.538C292.134 208.015 292.499 210.493 292.865 212.97C292.927 213.392 293.01 213.852 293.337 214.125C293.637 214.377 294.063 214.4 294.455 214.411C307.193 214.749 319.943 214.632 332.673 214.06C334.286 213.987 336.445 213.314 336.263 211.71V211.71Z" fill="#FFB61D"/>
<path fill-rule="evenodd" clip-rule="evenodd" d="M516.46 404.79C517.139 402.397 518.341 400.155 519.959 398.266C519.93 400.831 518.581 403.347 516.46 404.79L516.46 404.79Z" fill="#00160A"/>
<path fill-rule="evenodd" clip-rule="evenodd" d="M522.549 419.257C522.105 420.624 521.422 421.913 520.539 423.048C520.163 423.531 519.683 424.021 519.071 424.051C519.866 422.201 520.779 420.218 522.549 419.257L522.549 419.257Z" fill="#00160A"/>
<path fill-rule="evenodd" clip-rule="evenodd" d="M533.445 426.58C534.428 427.267 535.41 427.955 536.393 428.643C536.611 428.796 536.855 429.071 536.7 429.288C535.207 429.146 533.857 428.022 533.445 426.58Z" fill="#00160A"/>
<path fill-rule="evenodd" clip-rule="evenodd" d="M535.246 426.196C534.23 426.507 533.369 424.844 534.209 424.194C534.779 424.746 535.199 425.452 535.413 426.217L535.246 426.196Z" fill="#00160A"/>
<path fill-rule="evenodd" clip-rule="evenodd" d="M522.329 397.569C523.07 398.507 523.094 399.858 522.695 400.984C522.295 402.111 521.532 403.065 520.782 403.997C520.083 404.866 519.197 405.822 518.084 405.737C517.893 404.98 518.596 404.329 519.169 403.798C520.913 402.182 522.055 399.931 522.329 397.569Z" fill="#00160A"/>
<path fill-rule="evenodd" clip-rule="evenodd" d="M530.595 422.117C531.836 420.985 533.699 420.585 535.296 421.106C536.892 421.627 538.16 423.049 538.496 424.694C538.742 425.901 538.865 427.59 540.09 427.71C540.311 428.498 538.905 428.796 538.397 428.154C537.889 427.513 537.982 426.604 537.854 425.796C537.512 423.633 535.173 422.006 533.027 422.438C532.151 422.614 530.957 422.933 530.595 422.117L530.595 422.117Z" fill="#00160A"/>
<path fill-rule="evenodd" clip-rule="evenodd" d="M438.098 435.994C437.504 434.088 438.866 431.897 438.029 430.085C437.754 429.49 437.271 429.021 436.848 428.519C435.452 426.859 434.662 424.702 434.656 422.533C434.654 421.873 434.954 421.004 435.611 421.068C436.475 421.152 436.254 422.442 436.196 423.308C436.088 424.953 437.521 426.222 438.423 427.602C439.765 429.657 439.97 432.407 438.946 434.638C438.569 435.46 439.317 436.314 439.836 437.053C441.187 438.978 441.075 441.802 439.576 443.613C439.013 443.236 438.988 442.405 439.194 441.76C439.4 441.114 439.777 440.51 439.816 439.833C439.898 438.413 438.521 437.351 438.098 435.994H438.098Z" fill="#00160A"/>
<path fill-rule="evenodd" clip-rule="evenodd" d="M467.279 235.331C468.056 234.473 469.385 235.408 470.469 235.814C472.569 236.602 474.888 235.086 477.108 235.406C475.871 237.957 472.378 238.256 469.566 237.891C468.862 237.8 468.121 237.673 467.578 237.215C467.035 236.757 466.802 235.857 467.279 235.331L467.279 235.331Z" fill="#00160A"/>
<path fill-rule="evenodd" clip-rule="evenodd" d="M472.744 227.203C472.332 226.678 472.395 225.936 472.478 225.274C472.537 224.803 472.597 224.332 472.656 223.861C472.796 222.753 473.252 221.342 474.369 221.334C475.536 221.325 475.981 222.847 476.005 224.014C476.026 225.025 475.972 226.114 475.358 226.918C474.744 227.722 473.37 227.998 472.744 227.203V227.203Z" fill="#00160A"/>
<path fill-rule="evenodd" clip-rule="evenodd" d="M465.73 221.931C466.278 222.057 466.404 222.769 466.415 223.332C466.453 225.197 466.068 227.622 464.234 227.966C463.337 226.272 463.504 224.069 464.648 222.53C464.909 222.179 465.304 221.833 465.73 221.931L465.73 221.931Z" fill="#00160A"/>
<path fill-rule="evenodd" clip-rule="evenodd" d="M469.355 224.376C469.493 224.616 469.401 224.917 469.322 225.182C468.542 227.791 469.406 230.816 471.445 232.621C469.92 233.584 467.79 232.255 467.263 230.53C466.736 228.806 467.299 226.958 467.86 225.244C468.088 224.545 468.989 223.737 469.355 224.376L469.355 224.376Z" fill="#00160A"/>
<path fill-rule="evenodd" clip-rule="evenodd" d="M382.636 164.675C379.959 164.845 377.283 165.016 374.607 165.186C363.027 165.923 351.447 166.661 339.868 167.398C338.233 167.502 336.036 167.17 335.847 165.543C335.26 160.504 335.368 155.384 336.164 150.373C336.496 148.284 339.202 147.726 341.315 147.657C354.107 147.235 366.898 146.814 379.689 146.392C381.264 146.34 382.66 147.549 383.32 148.98C383.981 150.41 384.058 152.031 384.125 153.605C384.252 156.616 384.38 159.627 384.508 162.639C384.53 163.162 384.534 163.74 384.196 164.14C383.83 164.572 383.2 164.639 382.636 164.675ZM379.832 152.359C380.114 151.255 379.081 150.174 377.967 149.937C376.853 149.699 375.71 150.046 374.605 150.323C370.202 151.43 357.972 151.425 356.311 151.436C351.451 151.47 346.592 151.503 341.733 151.537C340.581 151.544 339.606 152.492 339.197 153.569C338.788 154.645 338.826 155.832 338.868 156.983C338.912 158.171 338.957 159.36 339.001 160.548C339.027 161.257 339.12 162.085 339.729 162.45C339.992 162.608 340.308 162.645 340.613 162.677C345.324 163.174 350.073 163.306 354.804 163.073C363.174 162.66 371.547 161.105 379.883 161.965C379.049 158.837 379.031 155.496 379.832 152.359Z" fill="#FFB61D"/>
<path fill-rule="evenodd" clip-rule="evenodd" d="M188.832 369.471C188.287 369.648 187.468 369.675 187.37 369.111C188.198 368.124 189.91 368.079 190.789 369.02C190.321 369.531 189.54 369.727 188.886 369.498L188.832 369.471Z" fill="#00160A"/>
<path fill-rule="evenodd" clip-rule="evenodd" d="M477.985 218.567C478.728 219.362 479.411 220.253 479.722 221.295C479.929 221.986 478.944 222.526 478.277 222.25C477.609 221.975 477.234 221.284 476.837 220.681C476.44 220.079 475.854 219.467 475.134 219.519C474.404 219.571 473.929 218.574 474.289 217.937C474.648 217.299 475.519 217.099 476.221 217.306C476.923 217.513 477.486 218.033 477.985 218.567L477.985 218.567Z" fill="#00160A"/>
<path fill-rule="evenodd" clip-rule="evenodd" d="M219.239 350.578C218.363 346.374 217.391 342.149 215.559 338.266C213.727 334.382 210.953 330.822 207.191 328.753C205.209 327.663 203.019 327.017 200.932 326.145C198.377 325.077 195.968 323.663 193.789 321.954C195.734 320.857 198.144 321.887 200.126 322.914C204.748 325.309 209.476 327.784 212.962 331.649C217.602 336.792 219.512 343.793 220.891 350.581C220.391 350.868 219.738 350.867 219.239 350.578Z" fill="#00160A"/>
<path fill-rule="evenodd" clip-rule="evenodd" d="M197.57 386.866C197.579 386.531 197.654 386.134 197.962 386C198.939 385.574 199.267 388.328 200.148 387.728C201.173 387.03 202.619 388.556 202.084 389.675C201.55 390.793 199.865 390.953 198.881 390.199C197.897 389.445 197.538 388.106 197.57 386.866Z" fill="#00160A"/>
<path fill-rule="evenodd" clip-rule="evenodd" d="M194.304 374.704C193.202 372.861 193.598 370.488 194.383 368.488C194.856 367.282 195.58 366.017 196.816 365.631C198.053 365.244 199.677 366.438 199.188 367.638C198.034 368.007 196.832 368.447 196.047 369.371C195.261 370.295 195.091 371.852 196.004 372.649C196.458 373.046 196.367 373.772 196.166 374.34C195.964 374.907 195.687 375.519 195.89 376.086C196.092 376.653 197.087 376.839 197.229 376.253C197.386 375.609 198.385 375.635 198.858 376.1C199.33 376.565 199.518 377.252 199.955 377.751C200.391 378.25 201.337 378.434 201.633 377.841C201.915 377.276 202.835 377.313 203.218 377.815C203.601 378.316 203.523 379.051 203.219 379.604C202.558 380.807 200.865 381.303 199.658 380.648C198.949 380.263 198.46 379.581 197.859 379.042C197.258 378.503 196.4 378.091 195.658 378.41C194.95 378.715 194.332 377.744 194.367 376.974C194.402 376.203 194.699 375.366 194.304 374.704Z" fill="#00160A"/>
<path fill-rule="evenodd" clip-rule="evenodd" d="M168.377 248.51C169.808 247.272 170.317 245.081 169.579 243.338C169.303 242.687 169.035 241.67 169.722 241.5C171.811 243.328 171.988 246.927 170.089 248.951C169.758 249.303 169.316 249.628 168.838 249.563C168.359 249.499 168.011 248.826 168.377 248.51L168.377 248.51Z" fill="#00160A"/>
<path fill-rule="evenodd" clip-rule="evenodd" d="M165.064 237.478C166.131 237.507 166.934 238.583 167.026 239.646C167.117 240.709 166.679 241.741 166.212 242.7C165.923 243.293 165.441 243.977 164.791 243.866C164.3 243.782 164.015 243.279 163.803 242.829C163.333 241.828 162.878 240.758 162.983 239.657C163.088 238.556 163.958 237.448 165.064 237.478V237.478Z" fill="#00160A"/>
<path fill-rule="evenodd" clip-rule="evenodd" d="M172.552 242.481C171.637 242.731 171.13 241.435 171.158 240.486C171.184 239.647 171.303 238.769 171.794 238.088C172.285 237.406 173.507 236.588 173.974 237.716C174.44 238.844 174.163 240.552 173.293 241.843C173.107 242.12 172.874 242.394 172.552 242.481Z" fill="#00160A"/>
<path fill-rule="evenodd" clip-rule="evenodd" d="M162.036 249.103C162.35 249.045 162.663 248.986 162.977 248.927C163.072 249.973 164.087 250.681 165.065 251.065C166.042 251.45 167.132 251.694 167.866 252.445C168.132 252.717 168.315 253.214 168.006 253.435C167.87 253.533 167.689 253.53 167.523 253.519C164.958 253.35 162.168 251.671 162.036 249.103Z" fill="#00160A"/>
<path fill-rule="evenodd" clip-rule="evenodd" d="M161.697 235.988C160.999 235.83 160.98 234.71 161.555 234.284C162.13 233.857 162.934 233.954 163.621 234.154C165.138 234.594 166.533 235.445 167.619 236.591C165.732 237.432 163.376 234.784 161.697 235.988V235.988Z" fill="#00160A"/>
<path fill-rule="evenodd" clip-rule="evenodd" d="M117.945 373.78C119.763 374.631 122.198 372.913 122.006 370.915C123.176 371.928 124.468 373.356 123.942 374.812C123.746 375.356 123.317 375.782 122.861 376.136C121.263 377.377 119.236 377.925 117.237 378.238C115.143 378.566 112.793 378.603 111.144 377.271C109.516 375.956 109.069 373.392 110.156 371.603C110.424 371.162 110.803 370.749 111.303 370.626C112.4 370.356 113.322 371.637 113.309 372.767C113.296 373.896 112.731 374.944 112.543 376.058C112.509 376.256 112.488 376.462 112.537 376.658C112.742 377.471 113.989 377.5 114.608 376.934C115.227 376.368 115.456 375.503 115.884 374.781C116.312 374.059 117.185 373.425 117.945 373.78ZM117.981 377.273C118.335 376.942 118.689 376.612 119.043 376.281C118.909 375.856 118.339 375.64 117.958 375.87C117.577 376.1 117.503 376.705 117.816 377.021L117.981 377.273Z" fill="#00160A"/>
<path fill-rule="evenodd" clip-rule="evenodd" d="M109.591 385.724C110.016 386.923 111.678 387.23 112.839 386.71C113.066 386.608 113.297 386.469 113.401 386.242C113.701 385.585 112.741 384.922 112.878 384.213C112.994 383.613 113.791 383.443 114.389 383.568C114.988 383.693 115.603 383.976 116.183 383.785C116.856 383.563 117.176 382.805 117.344 382.117C117.513 381.429 117.645 380.668 118.181 380.205C118.718 379.742 119.801 379.942 119.824 380.65C119.867 382.02 118.821 383.176 117.726 384.002C116.631 384.827 115.378 385.532 114.66 386.7C113.977 387.809 113.582 389.453 112.286 389.581C111.87 389.622 111.46 389.474 111.083 389.294C108.378 387.998 106.768 384.747 107.378 381.81C107.648 380.508 108.951 379.077 110.09 379.765C111.01 380.322 110.826 381.717 110.357 382.685C109.887 383.654 109.232 384.71 109.591 385.724V385.724Z" fill="#00160A"/>
<path fill-rule="evenodd" clip-rule="evenodd" d="M182.075 297.464C183.309 314.632 194.654 329.162 205.514 342.516C208.599 346.309 211.887 350.256 216.433 352.056C224.992 355.444 235.619 350.313 243.527 355.025C202.151 355.121 160.779 357.386 119.64 361.81C116.1 362.191 112.443 362.577 109.039 361.532C105.635 360.487 102.524 357.609 102.383 354.051C100.575 308.58 98.7673 263.109 96.9596 217.638C96.6248 209.214 96.2861 200.756 94.7489 192.467C92.7371 181.619 92.689 170.515 92.6473 159.482C92.593 145.137 92.5387 130.791 92.4844 116.445C139.117 114.426 185.823 114.084 232.481 115.418C234.395 118.265 234.782 121.838 235.102 125.254C240.517 183.083 242.198 241.189 243.876 299.247C244.379 316.644 244.882 334.04 245.385 351.437C244.522 351.149 243.659 350.861 242.796 350.574C240.762 295.636 238.728 240.697 236.694 185.759C236.655 184.71 236.548 183.521 235.721 182.875C235.088 182.38 234.217 182.361 233.413 182.364C190.161 182.522 146.91 182.679 103.659 182.837C100.306 182.849 95.595 184.593 96.683 187.765C101.937 203.081 100.084 219.765 100.147 235.957C100.182 244.955 100.828 253.938 101.474 262.913C102.263 273.858 103.051 284.804 103.839 295.75C105.711 290.892 107.583 286.035 109.455 281.177C109.889 280.05 110.281 278.647 109.48 277.743C103.53 271.031 105.395 259.04 113.103 254.452C114.583 253.571 116.239 252.92 117.451 251.697C120.862 248.254 119.249 242.183 121.765 238.041C125.499 231.892 137.035 231.662 137.436 224.479C137.798 217.991 143.688 212.758 150.066 211.515C156.444 210.272 163.053 212.295 168.797 215.333C174.404 218.299 179.963 223.111 180.204 229.449C180.299 231.943 179.541 234.382 178.792 236.762C176.076 245.386 172.887 254.667 165.387 259.716C175.063 269.88 181.07 283.467 182.075 297.464ZM174.947 320.416C180.515 331.378 191.083 339.186 196.517 350.214C196.761 350.709 197.014 351.234 197.475 351.537C197.999 351.883 198.672 351.866 199.3 351.848C204.053 351.713 208.823 352.2 213.45 353.294C202.496 343.793 194.234 331.605 186.739 319.192C184.036 314.714 181.343 309.96 181.078 304.736C180.304 289.504 174.713 274.551 165.303 262.548C161.844 258.136 154.4 258.989 150.427 262.945C146.453 266.9 145.181 272.787 144.602 278.364C144.414 280.179 144.286 282.062 144.887 283.785C145.489 285.508 147.003 287.039 148.826 287.103C150.65 287.168 152.425 285.25 151.793 283.538C152.44 284.926 153.088 286.314 153.736 287.701C151.078 290.559 145.922 289.629 143.478 286.587C141.033 283.546 140.826 279.229 141.661 275.418C143.631 266.42 151.144 258.883 160.134 256.883C160.24 255.129 157.645 254.607 156.047 255.339C154.45 256.07 152.927 257.42 151.196 257.115C149.614 256.837 148.712 258.798 148.15 260.303C144.986 268.783 135.934 273.164 128.614 278.487C126.118 280.302 123.655 282.355 120.659 283.095C117.663 283.834 113.926 282.738 112.858 279.842C103.693 303.523 101.522 329.863 106.687 354.725C107.054 356.492 108.68 357.781 110.414 358.281C112.148 358.782 113.994 358.64 115.793 358.495C142.47 356.337 169.148 354.18 195.825 352.022C189.471 339.778 177.517 330.967 172.072 318.292C170.802 315.335 169.906 312.204 168.293 309.419C165.851 305.202 161.869 301.958 159.875 297.512C157.468 300.824 155.06 304.135 152.652 307.447C152.111 308.192 152.361 309.226 152.633 310.107C153.237 312.058 153.868 314.061 155.153 315.648C156.438 317.235 158.549 318.329 160.527 317.822C164.561 316.787 169.156 318.529 171.49 321.979C166.556 321.048 161.622 320.118 156.688 319.187C155.974 319.053 155.224 318.902 154.67 318.431C154.2 318.031 153.93 317.451 153.674 316.889C152.756 314.873 151.838 312.857 150.92 310.84C150.12 309.082 149.335 306.96 150.356 305.32C151.22 303.931 153.016 303.514 154.364 302.587C158.082 300.027 157.595 294.364 155.901 290.18C154.206 285.996 151.667 281.689 152.646 277.282C154.652 283.801 156.704 290.419 160.448 296.121C163.212 300.33 166.84 303.943 169.374 308.294C171.613 312.14 172.932 316.449 174.947 320.416ZM95.7251 120.615C95.8392 130.803 95.9533 140.991 96.0674 151.179C96.0925 153.424 96.9179 156.461 99.1562 156.283C143.383 152.768 187.81 151.769 232.15 153.292C233.378 153.335 234.393 152.206 234.666 151.008C234.938 149.81 234.656 148.564 234.392 147.364C232.381 138.219 231.425 128.842 231.548 119.478C231.568 117.993 229.589 117.492 228.104 117.465C184.634 116.67 141.146 116.91 97.6881 118.184C97.2606 118.196 96.8092 118.216 96.4495 118.448C95.779 118.879 95.7161 119.817 95.7251 120.615M236.548 178.148C236.715 170.506 236.251 162.849 235.163 155.283C231.603 156.621 227.699 157.032 223.939 156.463C220.21 155.899 216.424 155.866 212.652 155.835C195.367 155.693 178.079 155.55 160.795 155.855C139.881 156.224 118.983 157.249 98.0993 158.439C97.5288 158.472 96.913 158.522 96.4808 158.895C95.9195 159.381 95.8723 160.22 95.8715 160.962C95.8655 166.883 96.1196 172.804 96.6328 178.702C96.6639 179.059 96.7052 179.44 96.9321 179.717C97.2896 180.153 97.9429 180.16 98.5063 180.129C139.806 177.903 181.203 179.34 222.563 179.378C227.257 179.382 232.013 179.361 236.548 178.148ZM140.167 220.815C139.047 223.52 139.001 226.662 137.395 229.11C134.133 234.081 126.03 234.012 122.979 239.116C120.509 243.249 122.396 249.262 119.153 252.821C117.522 254.61 115.009 255.25 112.974 256.56C108.708 259.304 106.928 265.076 108.238 269.976C109.548 274.876 113.546 278.795 118.228 280.747C119.06 281.094 119.953 281.391 120.848 281.281C121.858 281.156 122.729 280.534 123.55 279.932C129.216 275.778 134.881 271.624 140.547 267.471C142.633 265.941 144.799 264.319 145.925 261.99C147.834 258.046 146.456 252.713 149.467 249.529C150.629 248.301 152.297 247.608 153.34 246.277C154.383 244.946 154.255 242.454 152.601 242.104C150.798 241.723 151.273 238.854 152.705 237.693C154.137 236.532 156.171 235.806 156.71 234.043C157.218 232.382 156.454 229.895 158.098 229.331C159.044 229.007 159.981 229.743 160.819 230.289C164.512 232.697 170.088 231.437 172.388 227.675C173.282 226.213 175.581 227.769 176 229.431C176.418 231.093 176.481 233.234 178.058 233.904C179.62 231.453 179.15 228.12 177.619 225.65C176.088 223.179 173.676 221.402 171.266 219.777C166.32 216.444 160.894 213.408 154.947 212.96C149 212.512 142.449 215.305 140.167 220.815ZM157.893 242.221C156.518 247.263 149.435 249.448 148.854 254.641C150.178 256.095 152.608 255.408 154.245 254.319C155.08 253.765 155.886 253.104 156.341 252.212C156.797 251.32 156.825 250.149 156.184 249.379C155.627 248.71 156.883 247.803 157.628 248.253C158.372 248.704 158.559 249.675 158.785 250.516C159.268 252.308 160.256 253.961 161.606 255.234C162.731 256.295 164.374 257.117 165.793 256.505C166.378 256.252 166.842 255.788 167.275 255.32C171.763 250.47 174.554 244.08 175.061 237.492C175.119 236.743 175.086 235.859 174.473 235.427C173.871 235.002 173.054 235.248 172.324 235.348C171.593 235.447 170.624 235.173 170.59 234.437C171.424 233.629 172.851 233.531 173.788 234.218C174.183 234.507 174.57 233.824 174.556 233.335C174.516 231.936 174.066 230.551 173.276 229.395C171.537 231.334 169.281 232.907 166.72 233.384C164.16 233.861 161.291 233.092 159.64 231.078C158.643 233.206 158.201 235.59 158.368 237.933C158.428 238.774 157.205 239.033 156.406 238.762C155.608 238.492 154.695 238.019 153.992 238.486C153.31 238.938 153.387 240.039 153.933 240.65C154.478 241.26 155.313 241.506 156.102 241.725C156.699 241.89 157.296 242.056 157.893 242.221ZM107.566 290.865C107.688 290.347 107.744 289.669 107.278 289.414C106.103 292.869 105 296.347 103.969 299.847C103.573 301.191 103.204 302.707 103.884 303.932C104.374 303.953 104.626 303.363 104.738 302.885C105.681 298.878 106.624 294.871 107.566 290.865Z" fill="#00160A"/>
<path fill-rule="evenodd" clip-rule="evenodd" d="M218.012 391.935C243.473 389.882 269.052 389.281 294.582 390.137C293.837 381.553 293.093 372.97 292.349 364.386C266.303 365.56 240.257 366.734 214.212 367.908C213.41 375.533 210.453 382.919 205.77 388.99C203.514 391.915 205.454 396.046 206.903 399.444C208.352 402.841 208.468 407.992 204.908 408.979C200.212 406.667 196.865 401.816 196.371 396.605C177.11 397.445 157.85 398.285 138.589 399.125C131.43 399.437 122.594 400.963 120.463 407.805C119.631 402.414 112.512 401.175 107.058 401.248C90.7589 401.467 74.46 401.686 58.1611 401.905C57.9126 394.464 57.6641 387.024 57.4156 379.584C57.3674 378.142 57.3337 376.631 57.9803 375.341C59.7163 371.88 64.7021 372.248 68.4712 373.137C67.2597 361.023 66.0481 348.91 64.8366 336.796C59.2167 338.082 61.0246 323.672 55.368 324.785C51.9437 325.459 48.7154 322.314 47.9845 318.901C47.2537 315.489 48.3197 311.977 49.3745 308.65C52.5536 307.679 57.1096 308.64 60.3314 307.679C63.5532 306.718 65.5166 304.861 65.4041 301.501C63.0669 231.722 58.021 162.035 50.2817 92.6472C45.3407 94.7727 39.457 90.9367 37.4692 85.9388C35.4814 80.9409 36.3329 75.3116 37.3729 70.0344C37.7378 68.1824 38.1861 66.2147 39.5461 64.9057C41.2798 63.2369 43.9446 63.1324 46.3509 63.1269C121.861 62.9551 197.371 62.7833 272.881 62.6115C274.527 62.6078 276.34 62.6653 277.557 63.7738C278.669 64.7873 278.962 66.3954 279.193 67.8822C280.09 73.6636 280.971 79.6912 279.206 85.2693C277.442 90.8474 272.166 95.7829 266.355 95.1005C269.534 163.967 272.712 232.833 275.891 301.699C281.071 300.567 287.129 302.484 289.713 307.115C292.297 311.745 289.941 318.743 284.766 319.902C288.067 322.647 286.474 328.489 282.841 330.777C279.208 333.065 274.587 332.832 270.312 332.441C266.036 332.05 261.473 331.634 257.682 333.649C258.577 341.947 258.465 350.353 257.351 358.625C261.028 356.432 266.005 356.661 269.465 359.183C271.867 360.934 274.049 356.674 274.027 353.701C273.974 346.779 273.921 339.856 273.868 332.933C277.618 341.533 278.661 351.289 276.815 360.486C281.437 360.847 286.06 361.207 290.683 361.568C292.072 361.676 293.577 361.833 294.597 362.784C295.611 363.731 295.875 365.215 296.051 366.591C297.189 375.477 297.019 384.529 295.548 393.366C265.597 391.289 235.44 392.197 205.668 396.07C208.755 392.878 213.585 392.291 218.012 391.935ZM129.153 369.39C131.301 363.414 139.15 362.341 145.499 362.269C148.422 362.237 151.345 362.204 154.267 362.171C160.588 362.1 166.934 362.031 173.203 362.841C173.983 363.771 174.763 364.701 175.543 365.631C178.041 364.837 181.007 365.89 182.445 368.083C186.721 363.643 191.997 359.779 198.095 358.881C204.193 357.983 211.13 360.802 213.462 366.508C214.304 363.614 215.356 360.543 217.787 358.763C220.219 356.982 224.424 357.416 225.42 360.26C229.344 355.908 237.276 356.271 240.787 360.963C240.827 358.678 243.925 357.875 246.163 358.338C248.4 358.8 250.869 359.793 252.825 358.612C254.931 357.341 255.059 354.389 254.94 351.931C251.017 271.263 247.095 190.594 243.172 109.926C243.145 109.359 243.093 108.736 242.691 108.336C242.272 107.918 241.616 107.885 241.024 107.878C189.712 107.225 138.401 106.572 87.0894 105.919C85.9872 105.905 84.7518 105.944 83.9838 106.734C83.2596 107.48 83.2118 108.632 83.2081 109.672C82.9823 174.388 85.5607 239.115 90.9337 303.608C91.1448 306.142 92.5438 309.56 94.9808 308.835C95.1043 316.115 95.2279 323.396 95.3515 330.676C95.3795 332.325 95.2731 334.253 93.9187 335.196C93.1657 335.719 92.1992 335.794 91.2838 335.852C83.7921 336.324 76.3003 336.796 68.8086 337.268C69.9786 348.846 71.1486 360.423 72.3186 372.001C79.0237 372.226 85.748 371.873 92.3927 370.948C89.2092 360.893 88.0896 350.19 89.1235 339.694C91.3706 339.879 92.0783 342.786 92.1928 345.038C92.4678 350.441 92.7428 355.844 93.0177 361.247C93.1632 364.105 93.3797 367.163 95.1398 369.419C96.8999 371.676 100.808 372.442 102.527 370.154C108.65 362.004 122.572 361.604 129.153 369.39ZM271.448 269.219C268.733 211.239 266.017 153.259 263.302 95.2794C192.992 94.5684 122.682 93.8574 52.3724 93.1464C62.4747 163.911 65.3741 235.482 68.2605 306.906C74.8773 307.689 81.5867 307.688 88.2031 306.902C86.2985 278.691 84.3938 250.481 82.4891 222.27C81.8122 212.245 81.1352 202.216 80.8034 192.173C80.5273 183.818 80.4903 175.457 80.4534 167.098C80.3678 147.752 80.2823 128.406 80.1968 109.06C80.1874 106.935 80.8544 104.08 82.9795 104.091C136.319 104.351 189.658 104.612 242.997 104.873C244.171 104.879 245.555 104.997 246.164 106C246.459 106.487 246.496 107.081 246.525 107.65C248.689 150.303 250.853 192.958 252.547 235.633C252.829 242.749 253.098 249.866 253.367 256.983C253.927 271.786 254.487 286.589 255.047 301.392C255.101 302.804 257.031 303.144 258.442 303.051C263.291 302.729 268.139 302.407 272.988 302.086C272.475 291.13 271.961 280.175 271.448 269.219ZM39.2312 84.2391C40.2372 87.7372 43.1642 90.9577 46.8014 91.0983C99.6655 93.1422 152.631 90.0543 205.492 92.1719C226.914 93.0301 248.498 94.7347 269.698 91.5355C271.148 91.3166 272.673 91.0403 273.793 90.0929C274.842 89.2059 275.374 87.8625 275.792 86.554C277.51 81.1641 277.925 75.3637 276.993 69.784C276.759 68.3888 276.35 66.8659 275.164 66.095C274.279 65.5199 273.157 65.4986 272.102 65.4961C240.257 65.4202 208.413 65.3443 176.568 65.2684C171.419 65.2562 166.271 65.2439 161.122 65.2316C144.256 65.1914 127.389 65.1512 110.523 65.111C88.5964 65.0588 66.6689 65.0066 44.7453 65.3461C41.1794 65.4013 39.7027 69.8709 39.2144 73.4036C38.7159 77.0092 38.2252 80.7409 39.2312 84.2391ZM178.718 370.538C162.413 371.129 146.108 371.72 129.803 372.311C131.148 372.611 131.285 374.54 130.703 375.789C130.121 377.038 129.121 378.22 129.252 379.592C129.663 383.9 128.327 388.351 125.611 391.721C123.687 394.109 120.926 397.087 122.519 399.708C127.097 397.452 132.353 397.131 137.449 396.851C156.172 395.821 174.895 394.79 193.618 393.76C194.837 389.221 188.13 384.987 189.992 380.673C190.417 379.687 189.738 378.601 189.092 377.744C186.451 374.24 183.103 370.379 178.718 370.538ZM60.8578 379.886C61.2529 386.255 62.0525 392.6 63.2501 398.867C79.2977 398.819 95.3454 398.77 111.393 398.721C112.194 398.718 113.335 398.076 112.815 397.466C110.267 394.479 107.72 391.493 105.173 388.507C103.755 386.845 102.284 385.073 101.9 382.923C101.318 379.672 103.164 375.668 100.79 373.371C88.3253 375.487 75.6417 376.311 63.0079 375.826C61.272 375.76 60.7502 378.153 60.8578 379.886ZM193.611 386.621C195.084 389.126 194.177 392.923 196.522 394.64C200.484 397.542 199.844 405.048 204.549 406.456C205.388 405.612 206.25 404.734 206.681 403.624C207.112 402.515 206.999 401.103 206.094 400.329C203.611 398.209 203.038 394.503 203.717 391.309C204.396 388.115 206.104 385.254 207.567 382.334C209.26 378.954 210.652 375.423 211.719 371.796C212.196 370.175 212.513 368.17 211.28 367.015C210.253 366.054 208.429 366.024 207.795 364.767C207.465 364.113 207.577 363.294 207.211 362.659C206.812 361.966 205.971 361.686 205.201 361.469C202.692 360.762 200.093 360.132 197.501 360.412C194.909 360.692 192.291 362.051 191.165 364.403C190.211 366.395 186.859 365.426 185.308 366.998C183.736 368.589 185.207 371.316 187.007 372.644C188.807 373.973 191.128 375.12 191.585 377.31C191.996 379.277 190.664 381.357 191.279 383.27C191.699 384.572 192.917 385.441 193.611 386.621ZM52.5536 321.816C53.3259 323.035 55.0138 323.189 56.4566 323.192C67.767 323.217 79.0345 321.93 90.2716 320.644C92.3032 320.412 92.8027 317.662 92.461 315.646C92.1194 313.63 91.6175 311.181 93.1694 309.849C80.2269 308.92 67.2081 309.057 54.2879 310.257C53.6539 310.316 52.9624 310.405 52.5223 310.865C52.0443 311.365 52.0223 312.133 52.0288 312.824C52.0496 315.037 52.0704 317.25 52.0912 319.463C52.0988 320.273 52.1199 321.132 52.5536 321.816ZM125.351 369.129C122.95 367.487 120.132 365.766 117.322 366.521C116.599 366.715 115.776 367.055 115.157 366.634C112.057 364.522 107.118 366.277 106.046 369.872C105.703 371.019 104.462 371.612 103.707 372.541C102.952 373.47 103.233 375.401 104.417 375.227C105.401 375.083 105.905 376.513 105.486 377.415C105.067 378.317 104.18 378.918 103.679 379.777C102.345 382.066 104.192 384.845 105.939 386.837C108.667 389.947 111.395 393.058 114.123 396.168C116.423 398.79 118.773 401.496 119.955 404.777C121.652 403.645 121.302 401.086 120.679 399.144C120.056 397.201 119.471 394.762 120.97 393.377C121.591 392.804 122.504 392.512 122.886 391.758C123.268 391.004 122.191 389.861 121.717 390.561C120.869 391.811 119.456 392.925 117.978 392.617C116.499 392.308 115.854 389.857 117.262 389.309C117.754 390.309 119.269 389.762 120.161 389.094C121.433 388.141 122.705 387.188 123.977 386.235C125.628 384.999 127.406 383.559 127.728 381.522C128.072 379.351 126.729 376.741 128.228 375.134C126.975 374.051 127.676 371.894 126.821 370.476C126.475 369.902 125.905 369.507 125.351 369.129ZM255.562 318.93C256.98 318.241 258.591 318.097 260.161 317.961C268.221 317.26 276.273 316.47 284.315 315.591C285.316 315.482 286.352 315.36 287.218 314.846C288.961 313.811 289.493 311.345 288.71 309.475C287.927 307.605 286.107 306.325 284.172 305.721C282.237 305.117 280.174 305.098 278.147 305.116C271.434 305.176 264.723 305.587 258.053 306.346C256.87 306.481 255.546 306.707 254.859 307.679C254.242 308.55 254.354 309.723 254.493 310.782C254.849 313.498 255.206 316.214 255.562 318.93ZM63.7769 332.648C64.7017 334.121 66.6344 334.649 68.3699 334.538C70.1054 334.428 71.7669 333.813 73.4826 333.529C79.0029 332.616 84.9581 335.127 90.1205 332.969C90.531 332.797 90.9482 332.582 91.1973 332.214C91.4431 331.85 91.4892 331.391 91.5234 330.954C91.6867 328.864 91.7433 326.766 91.6929 324.67C91.685 324.343 91.6569 323.977 91.4113 323.762C91.2215 323.595 90.9512 323.566 90.6993 323.546C81.5617 322.842 72.4865 325.694 63.3228 325.56C62.7081 325.551 62.5547 326.409 62.6187 327.021C62.7292 328.078 62.8655 329.133 63.0274 330.183C63.1591 331.038 63.3169 331.916 63.7769 332.648ZM283.669 320.714C283.586 320.278 283.473 319.817 283.15 319.513C282.691 319.083 281.981 319.113 281.355 319.171C274.055 319.843 266.759 320.562 259.467 321.325C258.471 321.43 257.325 321.628 256.829 322.498C256.224 323.56 256.977 324.86 257.026 326.081C257.057 326.846 256.812 327.669 257.172 328.345C257.649 329.243 258.874 329.347 259.891 329.329C262.844 329.279 265.797 329.182 268.749 329.084C273.354 328.932 277.96 328.78 282.566 328.628C283.473 328.598 283.86 327.468 283.946 326.563C284.13 324.614 284.037 322.638 283.669 320.714ZM255.557 361.284C255.183 361.079 254.908 360.724 254.531 360.523C253.732 360.096 252.739 360.474 251.992 360.988C251.245 361.501 250.556 362.164 249.672 362.366C248.789 362.567 247.65 362.004 247.7 361.099C247.768 359.857 245.971 359.368 244.849 359.904C243.726 360.441 242.912 361.514 241.752 361.965C240.982 362.265 240.075 362.283 239.443 362.816C238.81 363.348 238.954 364.716 239.779 364.658C248.299 364.059 256.819 363.459 265.339 362.86C266.057 362.809 266.891 362.69 267.247 362.065C267.789 361.116 266.614 359.969 265.522 359.99C264.43 360.012 263.476 360.688 262.462 361.093C260.703 361.795 258.74 361.683 256.851 361.56C256.407 361.531 255.947 361.498 255.557 361.284ZM152.473 368.675C159.069 368.26 165.665 367.844 172.261 367.429C172.651 367.404 173.08 367.362 173.351 367.08C173.876 366.532 173.313 365.55 172.576 365.365C171.84 365.18 171.082 365.48 170.346 365.665C169.61 365.851 168.715 365.876 168.217 365.302C167.172 364.097 165.113 366.53 163.753 365.695C161.878 364.544 159.665 363.875 157.473 364.059C155.28 364.242 153.129 365.336 151.886 367.151C151.581 367.598 151.386 368.317 151.853 368.591C152.036 368.699 152.262 368.689 152.473 368.675ZM223.813 359.086C222.804 358.516 221.57 359.286 220.756 360.11C219.781 361.098 218.929 362.691 219.788 363.78C220.377 364.528 221.465 364.596 222.417 364.602C224.682 364.616 226.948 364.629 229.213 364.643C229.619 364.645 230.043 364.644 230.405 364.459C230.962 364.175 231.227 363.541 231.45 362.957C231.891 361.797 232.225 360.237 231.211 359.521C230.831 359.254 230.35 359.19 229.889 359.134C228.91 359.015 227.768 358.951 227.098 359.674C226.19 360.653 226.554 362.673 225.283 363.08C224.635 361.768 225.087 359.806 223.813 359.086ZM147.609 368.202C147.932 368.187 148.264 368.171 148.558 368.035C149.615 367.544 149.367 365.777 148.347 365.213C147.327 364.649 146.04 364.98 145.009 365.525C144.074 366.02 142.961 365.473 141.961 365.124C139.208 364.161 135.941 364.865 133.829 366.877C133.285 367.395 132.79 368.198 133.156 368.854C137.974 368.636 142.792 368.419 147.609 368.202ZM233.05 364.887C233.216 364.994 233.422 365.011 233.618 365.02C235.117 365.089 236.988 364.554 237.23 363.073C237.37 362.214 236.777 361.298 235.936 361.073C234.497 360.69 233.225 362.184 232.824 363.618C232.699 364.062 232.662 364.637 233.05 364.887ZM218.337 361.971C218.405 361.344 218.059 360.4 217.499 360.691C216.925 361.75 216.572 362.929 216.471 364.129C216.435 364.566 216.441 365.041 216.698 365.396C216.955 365.752 217.549 365.882 217.828 365.543C217.963 365.379 217.991 365.154 218.014 364.942C218.122 363.952 218.229 362.962 218.337 361.971ZM123.891 388.22C123.452 389.09 123.765 390.266 124.578 390.802C125.146 390.105 125.751 389.263 125.54 388.388C125.33 387.514 123.77 387.246 123.64 388.136M178.625 368.507C179.213 368.595 179.96 368.508 180.177 367.953C179.547 367.486 178.697 367.328 177.942 367.539C177.766 367.768 177.701 368.078 177.77 368.358C178.016 368.522 178.329 368.58 178.616 368.515L178.625 368.507Z" fill="#00160A"/>
<path fill-rule="evenodd" clip-rule="evenodd" d="M566.92 116.941C569.234 117.002 571.856 117.205 573.313 119.004C574.512 120.484 574.513 122.569 574.456 124.472C572.222 199.404 569.557 274.324 566.461 349.225C563.687 327.394 564.727 305.278 565.771 283.296C567.602 244.727 569.434 206.157 571.266 167.588C571.13 174.15 568.851 182.911 562.29 182.718C525.991 181.648 489.691 180.577 453.391 179.507C450.575 179.424 447.132 178.921 446.134 176.287C486.011 177.367 525.888 178.447 565.765 179.527C567.49 173.274 567.948 166.675 567.103 160.244C527.1 159.458 487.097 158.672 447.094 157.886C446.263 155.716 449.576 154.494 451.898 154.543C489.735 155.356 527.572 156.168 565.409 156.981C567.412 157.024 568.171 154.406 568.303 152.406C568.867 143.877 569.431 135.347 569.995 126.818C570.119 124.945 570.171 122.851 568.923 121.45C567.63 120 565.452 119.856 563.51 119.815C524.665 118.996 485.82 118.177 446.975 117.358C444.403 168.312 443.601 219.356 444.573 270.366C448.549 260.056 456.889 251.511 467.1 247.286C460.336 240.966 458.144 230.243 461.884 221.776C457.578 223.995 453.941 217.13 455.252 212.466C455.638 211.092 457.779 209.768 458.344 208.402C459.695 205.131 459.061 203.076 458.428 198.581C457.795 194.087 463.947 192.811 467.623 194.999C471.299 197.188 474.936 201.017 479.038 199.801C484.013 198.327 489.289 202.272 491.165 207.11C493.041 211.948 492.415 217.348 491.761 222.495C490.816 229.926 488.408 239.032 481.069 240.53C480.521 245.829 488.313 246.591 493.565 247.479C500.727 248.689 506.617 254.148 510.063 260.543C513.508 266.937 514.862 274.225 515.948 281.407C519.427 304.417 520.54 328.454 513.03 350.481C530.131 350.209 547.232 349.938 564.334 349.666C554.39 353.131 543.637 353.266 533.106 353.29C504.31 353.358 475.512 352.876 446.734 351.844C445.003 351.782 443.12 351.659 441.828 350.506C440.444 349.27 440.169 347.242 440.01 345.394C438.986 333.493 439.107 321.494 440.372 309.616C441.437 322.815 442.502 336.014 443.568 349.213C457.542 349.73 471.516 350.248 485.491 350.765C490.799 350.962 497.53 350.232 499.183 345.183C499.173 346.848 499.163 348.513 499.152 350.178C502.813 350.975 506.628 351.056 510.319 350.413C516.734 331.562 518.033 310.998 514.041 291.489C509.726 291.028 506.063 295.119 505.152 299.362C504.241 303.604 505.262 307.985 505.764 312.296C507.034 323.205 504.861 334.491 499.631 344.149C504.101 331.364 505.085 317.38 502.45 304.095C500.534 294.43 496.73 284.967 497.119 275.122C500.254 281 501.755 287.739 501.411 294.392C505.669 292.622 509.928 290.852 514.187 289.082C513.493 279.494 512.707 269.576 508.136 261.12C503.565 252.663 494.103 246.05 484.672 247.913C483.835 253.806 479.828 259.999 473.887 260.379C467.946 260.759 463.371 251.643 468.438 248.518C456.454 251.908 449.405 263.953 443.62 274.983C441.307 279.391 438.939 284.058 439.103 289.033C439.266 294.008 442.967 299.241 447.945 299.218C453.713 293.041 457.062 284.664 457.142 276.214C458.638 298.065 458.575 320.023 456.954 341.865C456.789 344.079 454.41 347.014 453.175 345.168C456.208 328.54 456.567 311.428 454.236 294.687C448.865 302.092 441.483 308.023 433.094 311.672C429.243 313.348 428.253 318.433 428.883 322.585C429.513 326.738 431.215 330.829 430.67 334.994C430.124 339.158 427.87 342.993 422.026 341.503C416.181 340.014 407.733 342.419 407.733 342.419C407.733 342.419 408.828 361.605 410.731 367.316C418.067 373.01 429.079 362.225 437.553 366.027C442.823 368.391 448.827 368.26 454.601 368.086C458.205 367.978 463.275 365.266 461.175 362.335C452.001 363.299 442.724 363.286 433.553 362.296C429.609 361.871 426.721 358.055 426.031 354.148C425.341 350.242 426.347 346.258 427.346 342.419C427.956 345.559 427.736 351.044 428.074 353.29C428.413 355.537 429.399 359.256 431.867 359.497C451.228 361.389 457.723 360.159 471.275 356.998C473.657 356.443 476.592 355.741 479.038 355.757C481.965 355.775 484.702 357.353 487.543 358.057C497.405 360.5 507.742 359.738 517.873 358.959C537.425 357.457 556.978 355.955 576.53 354.453C584.489 341.054 569.392 320.721 580.118 309.414C581.023 241.439 581.928 173.464 582.834 105.489C531.968 103.882 481.052 103.885 430.187 105.498C426.711 164.503 426.052 223.673 428.212 282.74C424.988 274.308 424.761 265.069 424.62 256.042C423.855 207.249 424.43 158.435 426.343 109.673C426.431 107.439 426.662 104.914 428.413 103.523C429.727 102.479 431.535 102.389 433.213 102.346C483.523 101.059 533.866 101.081 584.175 102.413C584.175 150.765 586.739 192.14 583.403 236.871C581.551 261.689 582.834 284.685 582.834 309.616C587.678 310.198 594.084 307.902 595.628 303.274C597.172 298.646 596.578 293.616 596.085 288.762C589.467 223.57 604.497 157.782 599.604 92.4372C536.916 89.5661 474.113 89.2068 411.397 91.3603C410.099 91.4048 408.677 91.4998 407.733 92.3912C406.675 93.3894 406.594 95.0162 406.585 96.4705C406.235 150.386 405.885 204.302 405.535 258.218C402.251 210.592 401.334 162.775 403.771 115.098C404.037 109.893 404.327 104.558 402.786 99.579C401.245 94.6001 397.446 89.9693 392.324 89.0048C391.314 80.0734 391.449 71.0132 392.724 62.116C466.545 62.4998 540.366 62.8837 614.188 63.2676C614.454 68.8846 614.721 74.5015 614.988 80.1185C615.24 85.4368 613.134 92.9665 607.916 91.9074C605.797 91.4771 604.78 94.402 604.668 96.5622C603.752 114.307 602.836 132.051 601.921 149.796C599.199 202.531 596.476 255.346 598.303 308.12C603.021 308.356 607.739 308.591 612.457 308.826C613.708 311.789 614.987 314.94 614.52 318.123C614.053 321.305 611.099 324.353 607.954 323.68C610.695 330.07 603.383 338.081 596.77 335.934C597.301 343.575 597.831 351.216 598.362 358.856C598.462 360.298 598.611 361.859 599.589 362.922C602.641 366.239 609.179 361.119 612.402 364.27C612.838 371.785 613.274 379.3 613.711 386.815C613.83 388.865 613.842 391.199 612.353 392.612C611.353 393.56 609.913 393.84 608.554 394.07C582.074 398.547 554.929 399.076 528.294 395.634C529.725 402.482 530.83 410.574 525.988 415.623C522.416 419.347 515.59 422.249 517.217 427.146C520.144 426.527 522.795 424.691 524.404 422.169C524.092 425.442 521.047 428.222 517.759 428.236C514.937 428.534 515.499 423.82 517.424 421.735C521.652 417.159 527.119 413.064 528.465 406.981C529.811 400.898 522.844 393.463 517.914 397.273C514.949 399.564 515.084 404 515.5 407.724C512.836 404.718 513.183 399.542 516.226 396.919C508.293 398.729 500.063 399.225 491.97 398.382C502.191 396.833 512.413 395.284 522.634 393.734C519.724 385.681 520.483 376.381 524.659 368.905C518.264 368.201 511.753 368.557 505.472 369.955C503.715 370.346 501.919 370.845 500.514 371.971C499.038 373.154 498.147 374.902 497.34 376.613C490.495 391.126 486.554 407.002 485.82 423.031C484.229 413.807 485.401 404.124 489.147 395.546C488.246 394.115 487.078 392.852 485.722 391.843C495.041 388.194 499.511 375.586 494.572 366.881C493.795 365.512 492.834 364.25 491.741 363.117C485.174 356.311 473.581 355.124 465.771 360.458C462.433 364.66 464.046 366.074 462.632 368.565C461.77 370.085 459.857 371.038 459.036 372.609C458.728 373.197 458.651 374.076 458.344 374.664C460.627 376.528 463.491 377.671 466.431 377.89C466.141 381.043 465.851 384.197 465.561 387.351C467.229 387.642 468.897 387.932 470.566 388.222C468.332 390.446 470.323 395.079 473.473 394.989C476.451 404.459 479.428 413.929 482.405 423.399C479.366 415.799 476.326 408.198 473.287 400.598C463.044 401.764 452.801 402.931 442.559 404.097C442.929 405.973 443.896 407.726 445.286 409.04C439.212 409.919 433.113 404.132 433.673 398.02C430.685 403.409 435.295 409.834 440.04 413.765C444.785 417.695 450.538 422.111 450.336 428.269C445.62 429.922 439.824 426.56 438.918 421.645C440.632 424.838 444.336 426.844 447.947 426.534C445.599 424.177 443.251 421.819 440.903 419.461C442.639 420.502 444.374 421.542 446.109 422.583C446.889 420.557 445.087 418.283 442.986 417.736C440.885 417.188 438.68 417.848 436.61 418.503C432.769 419.717 428.799 421.004 425.815 423.711C422.832 426.417 421.119 430.968 422.898 434.582C426.7 433.274 429.96 430.458 431.809 426.887C431.606 431.689 426.959 435.839 422.164 435.5C418.767 428.828 424.38 419.501 431.867 419.379C434.953 419.328 436.783 415.46 435.97 412.483C435.157 409.506 432.667 407.336 430.301 405.354C428.709 407.434 426.652 409.156 424.325 410.358C424.25 406.848 424.94 403.322 426.334 400.099C423.187 403.674 421.412 408.428 421.447 413.191C419.841 409.265 419.984 404.66 421.831 400.842C412.52 402.428 403.065 403.172 393.62 403.061C392.064 392.273 390.509 381.485 388.953 370.698C394.794 369.118 400.844 368.318 406.895 368.324C403.863 350.178 406.895 349.674 403.128 341.503C402.617 340.393 400.799 342.515 399.562 340.014C398.325 337.514 397.773 331.002 397.773 331.002C397.773 331.002 392.722 330.264 392.324 328.905C390.761 323.57 389.005 318.804 392.805 315.934C396.855 312.875 403.198 315.496 407.443 312.711C405.847 306.415 405.538 299.795 406.54 293.377C409.034 297.616 408.146 303.006 409.518 307.73C410.89 312.453 417.356 316.423 420.447 312.597C415.917 304.518 409.844 292.901 403.707 285.965C399.784 281.531 394.219 282.59 390.146 277.694C386.073 272.799 384.865 271.828 383.428 267.735C381.992 263.642 383.951 258.036 388.247 257.438C392.448 256.854 395.625 261.01 397.773 264.667C396.806 261.44 399.389 257.654 402.747 257.377C406.902 270.479 414.43 282.496 424.407 291.951C427.537 294.918 433.855 296.913 435.1 292.783C432.88 289.311 436.737 285.333 438.884 281.816C441.479 277.565 441.593 272.306 441.631 267.325C442.011 217.839 442.39 168.352 442.77 118.865C442.8 114.971 448.067 113.843 451.96 113.944C490.28 114.943 528.6 115.942 566.92 116.941ZM395.183 87.2223C395.759 87.6658 396.545 87.6855 397.273 87.6862C412.213 87.6997 427.154 87.7133 442.095 87.7269C450.753 87.7348 459.412 87.7426 468.07 87.7505C484.652 87.7656 501.233 87.7806 517.815 87.7957C547.513 87.8227 577.212 87.8497 606.91 87.8767C608.526 87.8782 610.441 87.7187 611.262 86.3263C611.68 85.6155 611.694 84.7459 611.695 83.9209C611.705 78.3665 611.715 72.8121 611.726 67.2577C611.727 66.6799 611.705 66.0406 611.308 65.6206C610.885 65.1732 610.197 65.1395 609.581 65.1358C539.145 64.7196 468.709 64.3033 398.274 63.8871C397.401 63.8819 396.424 63.9177 395.816 64.5433C395.267 65.1074 395.199 65.9692 395.163 66.7554C394.895 72.5908 394.626 78.4262 394.358 84.2615C394.308 85.3281 394.336 86.5713 395.183 87.2223ZM522.598 385.271C522.159 384.838 521.343 385.298 521.23 385.904C521.116 386.509 521.446 387.101 521.77 387.626C522.903 389.466 524.18 391.325 526.055 392.399C527.875 393.442 530.044 393.626 532.135 393.786C539.329 394.34 546.524 394.893 553.719 395.446C558.345 395.802 562.98 396.158 567.619 396.078C582.029 395.829 596.137 391.385 610.548 391.316C611.732 391.31 612.057 389.695 612.002 388.513C611.719 382.362 611.435 376.211 611.151 370.06C611.074 368.395 610.414 366.174 608.752 366.309C581.287 368.541 553.687 369.121 526.152 368.042C526.312 373.617 524.693 379.23 521.589 383.864C524.561 383.995 527.549 383.765 530.466 383.181C528.26 382.456 525.934 382.097 523.612 382.123C527.531 380.041 532.877 381.204 535.576 384.727C535.824 385.052 536.062 385.429 536.027 385.837C535.958 386.63 534.987 386.951 534.201 387.08C530.183 387.743 525.496 388.132 522.598 385.271ZM422.629 389.216C421.975 389.691 421.053 390.165 420.428 389.653C420.126 389.405 420.014 388.999 419.918 388.62C419.423 386.661 418.925 384.655 419.111 382.643C419.297 380.631 420.303 378.575 422.114 377.679C423.953 376.768 426.12 375.179 425.557 373.206C425.021 371.329 422.532 371.016 420.581 371.072C411.457 371.334 402.333 371.595 393.209 371.857C392.837 371.868 392.424 371.896 392.166 372.165C391.858 372.488 391.914 373.002 391.991 373.442C393.444 381.747 394.896 390.051 396.349 398.356C396.462 399.003 396.631 399.734 397.201 400.06C397.578 400.276 398.039 400.256 398.472 400.23C404.392 399.865 410.299 399.298 416.181 398.53C421.016 397.899 426.719 397.428 429.973 401.06C429.951 397.855 432.361 395.245 434.033 392.509C435.704 389.774 436.437 385.655 433.825 383.798C431.12 381.875 428.768 379.456 426.92 376.699C425.787 378.119 427.156 380.11 427.434 381.905C427.906 384.947 425.12 387.409 422.629 389.216ZM384.742 262.477C384.837 263.371 385.403 264.135 385.949 264.85C388.529 268.226 391.109 271.602 393.689 274.978C390.753 272.613 387.818 270.247 384.882 267.882C387.945 274.513 393.693 279.857 400.53 282.429C401.668 282.858 402.849 283.219 403.863 283.89C405.636 285.064 406.688 287.029 407.72 288.888C411.245 295.242 415.35 301.274 419.968 306.884C422.028 309.388 424.774 312.038 427.981 311.564C434.804 310.555 441.149 306.646 445.118 301.005C443.289 299.082 441.459 297.158 439.629 295.235C438.994 294.567 438.315 293.872 437.428 293.623C436.541 293.374 435.402 293.776 435.189 294.672C434.552 297.347 431.114 298.506 428.486 297.697C425.858 296.887 423.896 294.743 422.069 292.688C413.307 282.83 404.174 272.22 402.063 259.201C400.528 258.443 399.517 260.908 399.562 262.619C399.612 264.525 399.662 266.43 399.711 268.336C394.885 266.363 393.225 258.665 388.012 258.688C390.422 262.834 393.107 266.82 396.043 270.612C391.716 268.517 388.153 264.886 386.139 260.521C385.24 260.551 384.648 261.582 384.742 262.477ZM581.159 348.432C580.522 351.704 578.749 354.919 575.81 356.491C573.709 357.616 571.251 357.802 568.874 357.965C553.138 359.047 537.403 360.129 521.667 361.211C523.423 363.568 525.641 366.165 528.579 366.101C550.622 365.62 572.664 365.14 594.707 364.66C595.483 364.643 596.38 364.565 596.821 363.926C597.158 363.438 597.103 362.79 597.034 362.201C596.065 353.941 595.096 345.68 594.127 337.42C594.064 336.888 593.977 336.307 593.578 335.95C593.108 335.531 592.396 335.584 591.771 335.662C589.031 336.006 586.29 336.349 583.55 336.692C582.437 336.832 580.995 337.356 581.11 338.471C581.454 341.787 581.796 345.16 581.159 348.432ZM446.41 401.349C454.037 400.771 461.631 399.767 469.146 398.344C470.476 398.092 472.107 397.503 472.199 396.152C470.638 396.275 469.046 395.364 468.362 393.956C467.677 392.548 467.945 390.733 469.006 389.582C467.803 389.618 466.543 389.641 465.469 389.099C464.395 388.557 463.605 387.249 464.06 386.135C464.802 384.32 464.878 382.241 464.27 380.377C463.904 379.257 463.038 378.066 461.864 378.163C459.851 378.331 457.838 376.799 457.464 374.814C457.089 372.829 458.406 370.669 460.342 370.092C460.233 369.585 459.552 369.505 459.036 369.54C449.013 370.216 438.99 370.893 428.968 371.569C428.619 371.593 428.206 371.659 428.061 371.976C427.971 372.172 428.019 372.401 428.074 372.609C429.021 376.221 431.408 379.433 434.593 381.382C432.991 379.74 434.433 376.64 436.661 376.094C438.889 375.549 441.191 376.843 442.753 378.523C444.315 380.202 445.399 382.276 446.928 383.987C447.374 384.485 447.876 384.986 448.031 385.637C448.185 386.288 447.792 387.12 447.123 387.133C446.827 387.139 446.553 386.989 446.296 386.843C443.104 385.034 439.911 383.224 436.719 381.414C437.398 380.137 439.387 380.565 440.487 381.504C441.587 382.443 442.552 383.778 443.992 383.918C443.374 382.86 442.756 381.802 442.138 380.745C441.215 379.164 439.751 377.339 437.98 377.807C436.548 378.186 435.92 380.007 436.31 381.437C436.7 382.866 437.798 383.976 438.854 385.016C440.506 386.643 442.805 388.401 444.904 387.417C445.531 387.123 446.136 388.106 445.787 388.703C445.438 389.301 444.647 389.461 443.955 389.448C441.976 389.411 440.038 388.405 438.868 386.808C438.46 389.087 438.053 391.367 437.645 393.647C440.321 394.557 442.408 397.014 442.873 399.803C443.106 401.204 444.994 401.456 446.41 401.349ZM479.826 201.209C478.279 201.281 476.839 202.033 475.302 202.224C473.403 202.461 471.41 201.777 470.055 200.424C468.353 198.723 463.206 194.333 461.381 195.99C459.556 197.648 459.179 204.144 461.28 207.652C461.678 208.317 461.284 209.21 460.681 209.699C460.079 210.189 459.312 210.42 458.642 210.812C456.758 211.913 455.814 214.399 456.494 216.473C457.173 218.547 459.405 219.993 461.576 219.765C460.001 217.84 460.198 214.707 462.002 212.994C463.806 211.282 466.945 211.248 468.785 212.921C469.971 213.999 471.855 213.769 473.322 213.123C474.788 212.477 476.125 211.481 477.697 211.167C479.755 210.756 482.018 211.696 483.179 213.445C484.339 215.193 484.326 217.644 483.148 219.381C482.042 221.011 482.978 223.605 484.87 224.152C486.763 224.699 488.939 223.006 488.874 221.037C488.766 217.779 491.06 214.762 490.788 211.514C490.559 208.781 488.574 206.548 486.583 204.662C484.693 202.872 482.425 201.088 479.826 201.209ZM464.241 214.214C462.307 214.66 461.642 217.653 463.206 218.876C464.555 217.69 466.724 217.566 468.2 218.589C467.446 219.87 465.386 219.167 464.089 219.891C462.99 220.505 462.736 221.949 462.632 223.203C462.35 226.597 462.283 230.009 462.433 233.412C462.533 235.679 462.74 237.992 463.65 240.071C464.56 242.15 466.29 243.986 468.505 244.485C470.445 244.922 472.505 244.281 474.158 243.174C475.811 242.068 477.122 240.532 478.383 238.995C479.984 237.044 481.561 235.023 482.518 232.687C483.474 230.352 483.752 227.632 482.733 225.324C481.892 223.419 481.516 221.312 481.647 219.234C481.751 217.583 482.113 215.723 481.078 214.431C479.819 212.858 477.329 213.186 475.49 214.01C473.652 214.834 471.791 216.036 469.799 215.739C467.869 215.453 466.142 213.776 464.241 214.214ZM392.91 324.909C392.909 325.723 393.126 326.598 393.465 327.233C394.358 328.905 402.455 327.27 403.707 327.144C410.885 326.427 418.062 325.71 425.239 324.992C426.34 324.882 427.668 324.6 428.012 323.549C428.183 323.027 428.045 322.461 427.906 321.93C427.582 320.689 427.257 319.448 426.932 318.207C426.737 317.459 426.521 316.673 425.976 316.124C425.066 315.207 423.595 315.257 422.308 315.371C413.591 316.141 404.874 316.912 396.158 317.682C395.003 317.784 393.648 318.017 393.141 319.059C392.919 319.516 392.914 320.044 392.914 320.552C392.913 322.004 392.911 323.457 392.91 324.909ZM578.691 320.042C579.017 320.495 579.662 320.541 580.22 320.543C590.119 320.591 600.018 320.639 609.917 320.686C610.57 320.69 611.267 320.68 611.808 320.316C612.707 319.713 612.79 318.445 612.78 317.362C612.768 316.06 612.75 314.723 612.275 313.51C611.8 312.296 610.762 311.214 609.466 311.076C600.152 310.084 590.824 313.429 581.481 312.764C580.112 312.667 578.91 313.832 578.492 315.139C578.074 316.447 578.255 317.86 578.439 319.22C578.478 319.507 578.522 319.807 578.691 320.042ZM578.286 325.259C578.022 328.047 578.217 330.877 578.859 333.603C587.072 333.322 595.278 332.859 603.471 332.214C604.826 332.108 606.604 331.539 606.506 330.183C606.402 328.759 606.299 327.334 606.195 325.91C606.162 325.444 606.117 324.947 605.828 324.579C605.432 324.074 604.72 323.976 604.081 323.92C596.106 323.222 588.083 323.081 580.088 323.501C579.64 323.525 579.157 323.563 578.815 323.854C578.423 324.187 578.334 324.748 578.286 325.259ZM427.594 329.51C427.452 328.427 425.967 328.259 424.881 328.381C417.107 329.255 409.333 330.128 401.559 331.002C401.228 331.039 400.881 331.083 400.612 331.28C400.082 331.669 400.09 332.45 400.162 333.105C400.384 335.123 400.82 337.321 402.401 338.594C404.535 340.312 407.638 339.572 410.318 339.003C415.308 337.944 420.492 337.802 425.532 338.586C426.634 338.757 427.671 337.847 428.036 336.793C428.401 335.74 428.26 334.587 428.115 333.482C427.942 332.158 427.768 330.834 427.594 329.51ZM479.063 255.403C479.895 254.304 480.657 253.151 481.342 251.954C481.865 251.042 482.356 249.981 482.052 248.974C481.854 248.319 481.35 247.811 480.935 247.267C479.641 245.571 479.14 243.295 479.604 241.214C479.644 241.036 479.69 240.847 479.628 240.675C479.387 240.004 478.407 240.645 478.04 241.257C476.459 243.895 473.731 245.818 470.714 246.421C470.058 246.553 470.232 247.574 469.885 248.076C468.438 250.177 465.456 252.96 468.2 256.214C470.261 258.658 470.698 259.196 471.275 259.373C474.248 260.285 477.185 257.882 479.063 255.403ZM500.66 368.407C501.47 368.261 502.281 368.115 503.091 367.969C504.669 367.685 506.304 367.377 507.612 366.451C509.339 365.228 510.417 362.99 512.474 362.49C512.973 362.369 513.662 361.857 513.24 361.565C513.137 361.494 513.003 361.493 512.878 361.494C507.356 361.563 501.837 361.808 496.331 362.229C497.017 364.031 497.814 365.791 498.718 367.495C498.897 367.832 499.1 368.188 499.441 368.361C499.81 368.549 500.252 368.48 500.66 368.407ZM516.849 362.575C514.294 362.947 512.115 364.625 510.362 366.52C509.937 366.978 510.381 367.88 511.004 367.823C511.68 366.755 513.136 366.573 514.398 366.498C517.294 366.327 520.19 366.156 523.086 365.985C522.328 363.518 519.403 362.203 516.849 362.575ZM484.058 232.579C483.526 234.698 482.344 236.649 480.713 238.103C480.817 238.645 481.609 238.592 482.125 238.398C483.979 237.701 485.892 236.937 487.243 235.488C488.594 234.039 489.204 231.701 488.112 230.048C487.739 231.698 484.471 230.938 484.058 232.579ZM435.728 398.466C435.098 399.752 435.072 401.601 436.311 402.321C437.371 402.937 438.893 402.22 439.241 401.044C439.59 399.869 438.856 398.531 437.738 398.029C437.045 397.718 436.062 397.784 435.728 398.466ZM430.271 367.822C430.083 368.12 430.034 368.618 430.367 368.728C432.65 368.485 434.953 368.43 437.245 368.565C437.503 368.01 437.159 367.325 436.644 366.994C436.129 366.663 435.493 366.598 434.884 366.541C433.206 366.385 431.168 366.396 430.271 367.822ZM532.133 385.826C532.516 385.705 532.78 385.286 532.723 384.889C530.056 384.333 527.267 384.371 524.616 384.999C526.862 386.3 529.659 386.607 532.133 385.826ZM422.001 386.09C422.64 383.612 423.088 381.084 423.341 378.536C420.855 380.026 420.178 383.837 422.001 386.09ZM485.188 229.993C486.202 229.911 487.097 229.046 487.214 228.035C487.332 227.024 486.658 225.978 485.689 225.666C484.775 226.578 484.271 227.887 484.339 229.177C484.352 229.426 484.398 229.7 484.591 229.859C484.753 229.992 484.98 230.01 485.188 229.993ZM439.947 404.359C439.123 403.506 437.632 403.419 436.715 404.171C437.102 405.047 437.788 405.788 438.632 406.241C439.02 406.449 439.493 406.596 439.893 406.412C440.622 406.077 440.504 404.936 439.947 404.359ZM440.639 399.035C440.72 397.778 440.044 396.503 438.959 395.864C437.874 395.225 436.431 395.253 435.371 395.933C437.332 396.551 439.148 397.62 440.639 399.035ZM425.602 381.964C425.443 381.579 425.116 381.175 424.703 381.231C423.848 382.589 423.855 384.439 424.718 385.791C425.764 384.865 426.135 383.255 425.602 381.964ZM426.604 405.742C426.401 406.089 426.585 406.599 426.962 406.738C427.515 406.457 427.879 405.838 427.855 405.218C427.409 405.03 426.828 405.314 426.703 405.781M567.996 157.983C567.737 158.173 567.478 158.364 567.219 158.554C567.381 158.848 567.543 159.142 567.705 159.436C568.178 159.193 568.369 158.524 568.096 158.069L567.996 157.983Z" fill="#00160A"/>
<ellipse cx="464" cy="234" rx="1" ry="2" fill="#FFB61D"/>
<path fill-rule="evenodd" clip-rule="evenodd" d="M484.913 345.064C486.618 324.936 488.049 304.783 490.028 284.681C490.522 279.666 504.668 285.74 498.797 329.225C497.869 336.1 493.447 346.373 485.556 346.9L484.913 345.064Z" fill="#E7EAEE"/>
<path fill-rule="evenodd" clip-rule="evenodd" d="M138.137 276.124C139.406 303.446 135.011 286.137 146.395 293.454C148.333 294.699 150.451 297.024 150.083 299.297C149.36 303.762 145.056 306.92 143.526 311.176C135.952 332.243 170.275 333.184 176.501 336.498C178.582 337.605 177.647 341.653 176.27 343.567C171.265 350.525 142.137 331.633 138.468 328.809C114.15 310.096 117.048 297.854 136.139 278.632L138.137 276.124Z" fill="#E7EAEE"/>
<ellipse cx="162" cy="246" rx="1" ry="2" fill="#FFB61D"/>
</svg>
