<svg width="200" height="184" viewBox="0 0 200 184" fill="none" xmlns="http://www.w3.org/2000/svg">
<path fill-rule="evenodd" clip-rule="evenodd" d="M111.199 146.172C120.595 139.846 137.986 138.743 134.796 124.937C131.679 110.979 119.963 110.467 98.3408 97.8675C77.3201 84.0213 82.6225 74.3493 51.6101 73.0483C22.0287 73.0609 31.0336 115.685 9.24002 109.103C-12.5535 102.521 11.9537 156.961 15.8299 160.991C22.6473 168.078 40.6003 176.534 49.3572 175.336C56.0073 174.449 77.4019 169.526 87.8767 164.417C98.1088 159.648 99.2148 154.665 111.199 146.172Z" fill="#64FCD9"/>
<path d="M194.888 9.08118L194.95 9.08284C195.472 9.11374 195.87 9.56198 195.839 10.084L195.735 11.8901L195.669 13.0984C194.975 25.9273 193.329 36.8317 193.715 45.8088L193.775 47.1085C194.239 56.782 196.707 70.4578 199.202 91.1225C199.421 91.2761 199.574 91.5205 199.601 91.8072C199.652 92.3277 199.271 92.7905 198.75 92.8409C186.554 94.0228 175.206 94.8094 164.706 95.2009L163.271 95.2521L161.631 95.3055C151.016 95.6348 136.072 95.7947 116.798 95.7853C116.275 95.785 115.851 95.3609 115.851 94.838C115.851 94.5883 109.119 11.8064 109.119 11.8064C109.119 11.8064 194.629 9.08265 194.888 9.08118Z" fill="white"/>
<path d="M178.385 165.063L178.98 165.124C187.443 166.009 192.999 167.287 195.561 168.892L195.721 168.995C197.689 170.304 197.441 171.666 194.612 173.84C191.519 176.217 183.918 178.457 172.544 179.824C158.305 181.535 139.162 181.811 115.121 180.323L112.6 180.166C98.721 179.324 88.0723 179.097 68.3639 178.99L62.9235 178.959C51.19 178.877 46.2029 178.715 41.3884 178.199L40.9307 178.148C34.895 177.458 31.5594 176.197 30.4418 174.22L30.4009 174.145C30.3797 174.105 30.3795 174.106 30.5417 173.942C30.8663 173.613 31.5321 173.229 32.5225 172.83L32.7791 172.729C34.9258 171.903 38.3187 171.057 42.9374 170.201L43.8122 170.042C53.0331 168.385 66.784 166.702 85.0559 164.993L87.9945 164.721L90.5032 164.63C131.619 163.156 160.921 163.302 178.385 165.063Z" fill="white"/>
<path fill-rule="evenodd" clip-rule="evenodd" d="M159.324 9.27866C159.678 8.89377 160.277 8.86873 160.662 9.22273C161.047 9.57674 161.072 10.1757 160.718 10.5606C160.718 10.5606 117.646 59.5224 117.254 58.1598C117.039 57.41 135.152 35.6472 138.001 32.7136L138.792 31.9146C140.128 30.5274 146.743 22.957 159.324 9.27866Z" fill="#E7EAEE"/>
<path fill-rule="evenodd" clip-rule="evenodd" d="M137.648 20.0198C138.076 19.7205 138.667 19.8254 138.966 20.2542C139.265 20.6829 139.16 21.2732 138.732 21.5726C137.303 22.5697 115.028 45.0406 114.555 44.8616C114.082 44.6827 116.365 42.0128 116.365 42.0128C117.825 40.4859 130.862 26.6308 130.862 26.6308C131.957 25.462 132.969 24.4082 133.938 23.4323C134.896 22.4663 136.132 21.0777 137.648 20.0198Z" fill="#E7EAEE"/>
<path fill-rule="evenodd" clip-rule="evenodd" d="M159.448 165.063L160.043 165.124C168.506 166.009 174.061 167.287 176.624 168.892L176.784 168.995C178.752 170.304 178.503 171.666 175.675 173.84C172.582 176.217 139.162 178.402 115.121 176.914L112.6 176.757C98.721 175.916 88.0722 173.416 68.3639 173.309L62.9235 173.278C51.19 173.196 46.2029 178.715 41.3884 178.199L40.9307 178.148C34.895 177.458 31.5594 176.197 30.4418 174.22L30.4009 174.145C30.3797 174.105 30.3795 174.106 30.5417 173.942C30.8663 173.613 31.5321 173.229 32.5225 172.83L32.7791 172.729C34.9258 171.903 38.3187 171.057 42.9374 170.201L43.8122 170.042C53.0331 168.385 66.784 166.702 85.0559 164.993L87.9945 164.721L90.5032 164.63C131.619 163.156 141.983 163.302 159.448 165.063Z" fill="#E7EAEE"/>
<path d="M47.255 94.2701C47.5498 95.0429 57.6109 96.2549 63.1251 99.5143C65.2396 100.764 66.8405 106.173 66.7367 106.276C64.237 108.741 62.8785 109.998 61.5329 110.755C56.8024 113.417 53.1566 112.725 49.6266 112.168C45.3833 111.498 42.8621 106.84 44.5164 102.972C44.7757 102.366 45.4289 101.481 46.5102 100.235L46.6542 100.071C46.6497 100.027 46.6503 99.9814 46.6558 99.9352C46.7052 99.5177 46.7114 99.0895 46.674 98.6501L46.5903 97.8622C46.4916 96.9816 46.3005 95.4872 46.0164 94.7426C45.8859 94.4006 46.0574 94.0176 46.3994 93.8871C46.7414 93.7566 47.1245 93.9281 47.255 94.2701Z" fill="white"/>
<path d="M70.4877 104.141C70.4869 103.982 70.5269 103.82 70.6114 103.672C70.7583 103.414 71.0082 103.251 71.28 103.206C71.3435 103.149 71.3866 103.129 71.4112 103.152L71.4523 103.193C71.6055 103.196 71.7602 103.236 71.9028 103.318L74.6878 104.899C80.4609 108.2 86.6664 113.109 87.2651 116.836C87.9436 121.06 83.5214 143.038 83.0103 142.927C82.4993 142.817 72.9198 164.585 72.9142 164.644C72.8954 164.843 64.3795 165.158 55.4209 166.117C52.29 166.452 60.4209 155.529 63.4799 147.807C68.7258 134.564 70.4877 104.141 70.4877 104.141Z" fill="white"/>
<path d="M139.181 114.941C135.801 114.204 131.874 114.574 127.387 116.071C123.714 117.296 121.703 119.011 121.202 121.203L121.173 121.334L121.318 121.393C124.316 122.602 127.115 122.909 129.733 122.329L129.924 122.285C131.737 121.852 133.21 120.835 134.958 119.029L135.2 118.776C135.611 118.337 136.581 117.274 136.701 117.147C137.322 116.481 137.797 116.022 138.277 115.648L138.381 115.568C138.624 115.385 138.92 115.208 139.269 115.036L139.373 114.985L139.181 114.941Z" fill="white"/>
<path d="M105.912 109.735C103.507 108.988 100.654 108.901 97.349 109.488L97.1938 109.516L97.2278 109.584C98.6902 112.517 100.016 114.322 101.124 114.977L101.193 115.016C102.307 115.632 104.961 115.676 109.031 115.068L109.633 114.975L109.618 114.925C109.603 114.867 109.593 114.807 109.589 114.745L109.587 114.683C109.587 112.096 108.411 110.511 105.912 109.735Z" fill="white"/>
<path d="M78.466 96.0115C78.3986 96.5504 78.6267 98.5307 77.8653 99.445C77.5635 99.8074 76.8422 100.067 76.3718 99.8385C76.1638 99.7375 76.8123 98.8339 77.2062 97.8125C77.3585 97.4179 77.0911 96.9409 77.2062 96.5639C77.307 96.2341 77.7948 95.9967 77.8653 95.7487C77.9773 95.3544 78.5106 95.6556 78.466 96.0115Z" fill="white"/>
<path d="M79.7831 93.6985C79.7157 94.2374 81.315 96.747 80.5164 97.5513C79.1588 98.9188 77.8538 96.5208 78.2477 95.4995C78.3999 95.1048 78.4081 94.6279 78.5233 94.2509C78.6241 93.9211 79.8276 93.3425 79.7831 93.6985Z" fill="white"/>
<path d="M94.542 133.33C94.2472 134.436 93.9972 140.926 95.4055 144.59C95.9209 145.931 96.6775 146.913 97.7011 147.295C98.5616 147.602 99.4562 147.792 100.37 147.919C102.339 148.19 117.385 149.47 124.139 148.588C130.893 147.705 130.511 147.623 133.598 147.076C135.092 146.81 136.8 146.529 138.328 145.93C139.452 145.49 140.479 144.879 141.284 144.01C142.004 143.234 142.449 141.913 142.581 140.436C142.75 138.56 142.462 136.079 142.18 134.83C142.18 134.76 142.165 134.734 142.18 134.712C142.25 134.61 141.341 134.102 138.328 133.978C133.162 133.765 125.106 134.169 117.301 134.088C106.651 133.977 96.4712 133.002 94.7837 133.179C94.629 133.196 94.5477 133.309 94.542 133.33Z" fill="white"/>
<path d="M46.1612 98.6881C46.6842 98.6849 47.1111 99.1058 47.1151 99.6287C47.1155 99.6834 47.1112 99.7371 47.1026 99.7893L47.1839 99.7369C47.6382 99.4562 48.2006 99.3141 48.0804 100.001C47.9128 100.96 45.5137 102.074 45.5137 103.918C45.5137 106.655 46.5691 109.275 50.3655 110.37C60.9982 113.436 66.2495 108 68.2151 105.656C68.2143 105.497 68.2543 105.335 68.3388 105.187C68.4857 104.929 68.7356 104.766 69.0074 104.721C69.0709 104.664 69.114 104.644 69.1386 104.667L69.1797 104.708C69.3329 104.711 69.4876 104.751 69.6302 104.832L72.4152 106.414C78.1883 109.715 84.3938 114.624 84.9925 118.351C85.671 122.575 81.2488 144.553 80.7377 144.442C80.2267 144.331 70.6472 166.1 70.6416 166.159C70.6162 166.427 55.1169 166.908 43.9373 168.895C36.6062 170.198 31.8354 172.642 31.6811 172.78C31.2915 173.129 30.8388 173.733 30.49 173.343C28.1483 170.728 27.5241 163.376 28.4286 152.557L27.9549 152.509C18.2653 151.53 13.4856 148.805 13.811 142.669C14.6091 127.615 18.8472 115.818 23.7773 108.513C28.1548 102.027 35.1474 98.7671 46.1612 98.6881Z" fill="white"/>
<path fill-rule="evenodd" clip-rule="evenodd" d="M68.2153 105.656C68.2144 105.497 68.2544 105.335 68.3389 105.187C68.4859 104.929 68.7358 104.766 69.0075 104.721C69.071 104.664 69.1142 104.643 69.1387 104.667L69.1798 104.708C69.3331 104.711 69.4878 104.751 69.6303 104.832L72.4153 106.414C78.1885 109.715 84.3939 114.624 84.9927 118.351C85.6711 122.574 81.2489 144.553 80.7379 144.442C80.2268 144.331 70.6474 166.1 70.6418 166.159C70.6229 166.358 62.107 166.673 53.1484 167.632C50.0176 167.967 58.1484 157.044 61.2074 149.322C66.4534 136.079 68.2153 105.656 68.2153 105.656Z" fill="#E7EAEE"/>
<path d="M68.7125 105.347C68.7309 105.869 68.2885 106.307 67.7656 106.294C65.1534 106.228 64.7381 101.736 64.9886 101.718C65.3355 101.693 65.9281 103.826 67.0944 104.603C67.9837 105.196 68.6616 103.907 68.7125 105.347Z" fill="white"/>
<path d="M45.0369 93.3477C45.3982 92.915 46.0731 93.2986 46.3092 93.7652C46.5452 94.2318 46.3583 94.8014 45.8917 95.0375C43.5105 96.2421 40.3399 95.795 38.3866 94.1231C34.9934 91.219 34.8545 83.6812 34.8545 81.4317C34.8545 81.1313 38.7263 81.4857 40.3322 83.5866C43.1804 87.3125 44.5713 93.9053 45.0369 93.3477Z" fill="white"/>
<path d="M44.7838 72.8777L44.82 72.6781C44.8503 72.5011 44.8499 72.309 44.7591 71.3579L44.4564 68.3815C44.3991 67.8137 44.3533 67.3241 44.3134 66.847L44.2821 66.4586C44.0092 62.9528 44.1406 60.9604 45.0873 60.034C47.7594 57.4195 49.2358 57.4758 52.0188 58.3778L52.6021 58.5675C53.8389 58.9589 54.4584 58.6561 55.3042 58.4576L55.5489 58.4021C57.5099 57.9725 59.5536 57.893 61.9034 58.0973C63.2777 58.2167 64.1281 58.3296 66.3092 58.7045L68.8847 59.1557C70.4964 59.4394 71.5825 59.6159 72.7318 59.7726L72.9852 59.8053C74.8274 60.0283 76.3266 59.8947 78.1363 59.4864C78.1736 59.4779 79.1477 59.2482 79.5299 59.1661L79.7607 59.12C80.1189 59.0533 80.4223 59.0182 80.7049 59.0182L80.7493 58.9934C83.5111 57.5606 86.1392 53.0848 85.9225 49.4952C85.6537 45.041 81.4225 42.214 72.3367 42.1579L71.8945 42.1562C70.394 42.14 69.2975 41.8916 66.1474 40.9264L64.5929 40.4462C61.8947 39.6197 60.2691 39.2438 58.528 39.127C58.2283 39.1069 57.9345 39.0967 57.646 39.0967C45.5758 39.0967 33.6856 49.3811 32.0492 58.9934C31.7521 60.7387 33.098 68.4383 33.5846 72.2658C33.5846 72.2658 38.2736 72.3174 40.5563 72.6467C40.7739 72.6781 42.6245 76.7119 43.7459 76.7119C44.7591 76.7119 44.7838 72.8777 44.7838 72.8777Z" fill="white"/>
<path d="M51.7249 59.8956C53.4073 60.4488 54.3313 60.606 55.6037 60.3311L56.0708 60.2254C59.0878 59.5661 61.3977 59.7651 67.8518 60.8967L69.3998 61.1677C70.5955 61.3732 71.5115 61.5175 72.4756 61.649C74.5997 61.9386 76.3153 61.8172 78.3028 61.3888L80.3312 60.935C80.6808 60.8622 80.6377 60.8896 80.7639 60.9098L80.8223 60.9171C81.0881 60.9417 81.9893 61.0772 82.2011 61.6892C83.5052 65.4569 83.8839 74.4499 82.499 81.8532C80.6188 91.9056 75.2235 98.7963 67.5126 100.889C55.7626 104.079 46.9289 98.0186 40.8135 82.3663L40.6253 81.8847L40.1185 81.7826L39.7568 81.7075C33.9359 80.4603 31.97 78.2233 33.9377 74.5813C34.9232 72.7571 36.2733 72.1921 37.3984 72.5737C38.7674 73.038 40.4922 74.8278 42.4631 77.9531L42.4852 77.9865C43.3496 79.237 44.5492 78.7579 45.1587 77.4301C45.539 76.6016 45.9003 75.2162 46.2645 73.2343L46.3377 72.8293C46.3995 72.4498 46.3706 72.1469 46.0533 69.0844L45.941 67.9874C45.9008 67.5826 45.8666 67.2174 45.8363 66.8649L45.8215 66.6896C45.697 65.1977 45.6513 64.0092 45.6981 63.0749C45.7456 62.1257 45.8981 61.5192 46.0326 61.3876L46.2576 61.1709C48.2123 59.3202 49.3205 59.1352 51.3204 59.764L51.7249 59.8956Z" fill="white"/>
<path fill-rule="evenodd" clip-rule="evenodd" d="M82.499 81.8532C80.6187 91.9056 75.2235 98.7963 67.5126 100.889C65.2687 101.499 71.7677 99.09 75.1912 94.7601C79.8856 88.8228 82.5265 80.0302 82.9615 77.3674C84.2777 69.3118 83.8838 74.4499 82.499 81.8532Z" fill="#E7EAEE"/>
<path fill-rule="evenodd" clip-rule="evenodd" d="M45.1587 77.4301C45.539 76.6017 45.9003 75.2162 46.2645 73.2343L46.3377 72.8293C46.3995 72.4499 46.3706 72.1469 46.0533 69.0844L45.9409 67.9874C45.9008 67.5826 45.8666 67.2174 45.8363 66.8649L45.8214 66.6896C45.697 65.1977 45.6513 64.0092 45.6981 63.0749C45.7456 62.1257 45.8981 61.5192 46.0326 61.3876L46.2576 61.1709C48.2123 59.3202 49.3205 59.1352 51.3204 59.764L51.7248 59.8956C53.4072 60.4488 54.3313 60.606 55.6037 60.3311L56.0708 60.2254C59.0878 59.5661 61.3976 59.7651 67.8518 60.8967L69.3998 61.1677C70.5955 61.3732 71.5115 61.5175 72.4756 61.649C74.5997 61.9386 76.3153 61.8172 78.3028 61.3888L80.3312 60.935C80.6807 60.8622 80.6377 60.8896 80.7638 60.9098L80.8223 60.9171C81.0881 60.9417 81.9893 61.0772 82.2011 61.6892C82.2011 61.6892 81.3796 62.3547 80.7638 62.4C75.3987 62.7947 71.4977 63.731 67.3509 64.128C60.8121 64.7541 54.9644 64.9689 51.7248 66.6896C50.1595 67.521 48.4976 76.0934 46.4112 78.9992C45.2293 80.6451 45.1587 77.4301 45.1587 77.4301Z" fill="#E7EAEE"/>
<path fill-rule="evenodd" clip-rule="evenodd" d="M94.6481 144.59C95.1635 145.931 95.92 146.913 96.9436 147.295C97.8042 147.602 98.6987 147.792 99.6123 147.919C101.581 148.19 116.627 149.47 123.382 148.588C130.136 147.705 129.754 147.623 132.841 147.076C134.335 146.81 136.043 146.529 137.57 145.93C138.695 145.49 139.722 144.879 140.526 144.01C141.246 143.234 141.691 141.913 141.824 140.436C141.992 138.56 141.705 136.079 141.423 134.83C141.361 134.494 140.236 134.737 140.298 135.073C140.467 136.234 140.519 138.538 140.299 140.243C140.164 141.299 139.957 142.281 139.439 142.839C138.789 143.538 137.952 144.015 137.044 144.371C135.606 144.937 133.996 145.202 132.591 145.457C129.545 146.013 126.7 146.734 114.083 147.076C112.038 147.131 101.79 146.602 99.8061 146.317C98.9893 146.201 98.1885 146.032 97.4196 145.755C96.522 145.451 96.0499 144.338 95.6306 143.089C95.1241 141.58 93.9487 136.188 94.6481 135.03C94.9087 134.598 96.7904 134.692 97.9679 134.817C101.74 135.216 108.661 135.377 115.376 135.451C122.77 135.533 140.399 135.537 140.399 135.198C140.399 134.893 141.1 134.817 141.423 134.83C141.528 134.834 140.837 133.978 137.57 133.978C132.365 133.978 124.348 134.169 116.543 134.088C105.893 133.977 95.7137 133.002 94.0262 133.179C93.9905 133.183 93.9566 133.186 93.9245 133.188C92.6901 133.26 93.2397 140.926 94.6481 144.59Z" fill="#00160A"/>
<path fill-rule="evenodd" clip-rule="evenodd" d="M97.1471 137.207C97.1997 136.822 97.6451 135.984 97.8277 136.424C98.1524 137.207 97.8216 142.435 100.884 142.978C101.399 143.069 102.751 143.264 102.751 143.696C102.751 144.127 102.542 144.778 101.42 144.474C99.4409 143.936 98.3085 142.828 97.6147 141.069C97.1212 139.818 96.9904 138.352 97.1471 137.207Z" fill="#00160A"/>
<path fill-rule="evenodd" clip-rule="evenodd" d="M28.864 124.336L28.8649 124.345C28.8653 124.417 28.9542 124.515 28.9699 124.727C29.037 125.629 28.6543 127.752 28.5866 128.423C28.4093 129.994 28.0993 131.957 28.0436 133.833C28.0078 135.046 28.0718 136.221 28.4165 137.217C29.1331 139.362 30.787 140.681 32.7853 141.524C34.5729 142.28 36.6418 142.612 38.6264 142.85C40.0739 143.022 41.4707 143.167 42.7093 143.236C42.921 143.236 43.0929 143.409 43.0929 143.621C43.0929 143.833 42.921 144.003 42.7093 144.003C41.4436 144.075 40.0062 144.163 38.5189 144.08C36.3915 143.962 34.1859 143.536 32.2749 142.745C29.9148 141.766 28.0095 140.161 27.168 137.632C26.8015 136.489 26.7152 135.148 26.8124 133.77C26.9471 131.861 27.4113 129.884 27.6861 128.294C27.8095 127.628 28.0323 125.468 28.3765 124.629C28.5449 124.216 28.8356 124.166 28.8452 124.19C28.8852 124.229 28.8915 124.291 28.864 124.336Z" fill="#00160A"/>
<path fill-rule="evenodd" clip-rule="evenodd" d="M47.9509 139.791L46.8029 139.974C46.4417 140.049 46.0304 140.196 45.6861 140.421C45.4315 140.587 45.2222 140.803 45.0804 141.055C45.0143 141.176 44.9763 141.298 44.9496 141.419C44.8996 141.648 44.9136 141.879 44.8734 142.124C44.8411 142.318 44.8297 142.51 44.8363 142.701C44.8452 142.963 44.8893 143.223 44.9166 143.487C44.9767 143.903 44.9957 144.303 45.1584 144.671C45.2318 144.837 45.3305 144.984 45.4566 145.135C45.5164 145.243 45.6523 145.282 45.76 145.222C45.8676 145.162 45.9065 145.026 45.8467 144.919C45.8467 144.919 45.1006 141.459 46.0093 140.885C46.9181 140.312 47.4221 140.386 47.688 140.321C47.7967 140.294 48.0335 140.002 48.0471 139.936C48.0606 139.869 48.0176 139.804 47.9509 139.791Z" fill="#00160A"/>
<path fill-rule="evenodd" clip-rule="evenodd" d="M47.9125 139.922L48.0384 140.182C48.0788 140.351 48.0851 140.547 48.0895 140.735C48.0934 140.901 48.1115 141.064 48.0073 141.2C47.951 141.256 47.951 141.348 48.0073 141.404C48.0637 141.46 48.155 141.46 48.2113 141.404C48.3959 141.276 48.5088 141.096 48.5427 140.884C48.5866 140.61 48.4684 140.312 48.3658 140.073C48.3317 139.996 48.2017 139.808 48.0678 139.73C47.9613 139.668 47.8579 139.652 47.7769 139.716C47.7203 139.754 47.7046 139.83 47.742 139.887C47.7795 139.944 47.856 139.96 47.9125 139.922Z" fill="#00160A"/>
<path fill-rule="evenodd" clip-rule="evenodd" d="M47.7599 141.241C47.661 141.297 47.5692 141.355 47.5333 141.372C47.1849 141.53 46.9855 141.877 46.9319 142.292C46.8671 142.795 47.0516 143.38 47.1589 143.738C47.1897 143.862 47.3155 143.938 47.4393 143.907C47.5632 143.876 47.6385 143.75 47.6075 143.626C47.5256 143.258 47.4369 142.634 47.5263 142.155C47.5601 141.975 47.5885 141.804 47.7279 141.696C47.7279 141.696 47.8268 141.203 47.7599 141.241Z" fill="#00160A"/>
<path fill-rule="evenodd" clip-rule="evenodd" d="M45.3395 141.858C45.5481 142.093 45.5273 142.452 45.293 142.66C44.9367 142.977 44.6243 143.219 44.3508 143.388L44.2175 143.466C43.9844 143.598 43.6741 143.751 43.2833 143.925C43.2346 143.947 42.783 144.09 42.6184 143.962C42.5312 143.895 42.4351 143.815 42.3849 143.7C42.3615 143.647 42.4412 143.542 42.5879 143.408C42.8323 143.185 43.4826 143.064 43.9321 142.783C44.6675 142.323 45.234 141.74 45.3395 141.858Z" fill="#00160A"/>
<path fill-rule="evenodd" clip-rule="evenodd" d="M47.3568 147.217C47.579 146.995 47.9387 146.996 48.1603 147.218C49.1315 148.192 49.4207 149.125 48.7909 149.894C48.3884 150.385 47.8158 150.814 47.0039 151.139C46.6251 151.291 46.6709 151.362 45.6827 151.579C45.3762 151.647 45.0733 151.453 45.006 151.146C44.9387 150.84 45.1327 150.537 45.4391 150.469L45.8369 150.38C46.5496 150.216 47.6286 149.519 47.912 149.174C48.0734 148.977 47.967 148.633 47.3557 148.02C47.1341 147.798 47.1347 147.438 47.3568 147.217Z" fill="#00160A"/>
<path fill-rule="evenodd" clip-rule="evenodd" d="M61.9619 138.057C62.0944 140.667 62.1482 142.234 62.1234 142.758C62.0549 144.182 61.7945 146.008 61.1646 147.598C60.7083 148.749 60.0452 149.763 59.1964 150.462C58.6197 150.912 57.4001 151.789 53.7845 151.539C46.5242 151.036 47.6772 138.726 47.722 138.547C47.767 138.368 47.9555 137.673 48.1351 137.717C48.461 137.769 47.1981 150.556 53.5903 150.643C54.0865 150.65 54.575 150.582 55.0754 150.516C55.7687 150.464 56.498 150.307 57.1731 150.045C57.596 149.881 57.9981 149.673 58.3419 149.392C59.0472 148.845 59.5701 148.013 59.986 147.098C60.6414 145.654 61.1184 144 61.2741 142.687C61.3567 142.002 61.5394 137.837 61.5394 137.837C61.6352 137.507 61.9582 137.985 61.9619 138.057Z" fill="#00160A"/>
<path fill-rule="evenodd" clip-rule="evenodd" d="M54.8891 136.562L55.2143 136.563C58.9331 136.6 61.8959 137.264 61.8959 138.077C61.8959 138.914 60.4964 140.501 56.6267 140.501L56.3015 140.499C51.1023 140.716 47.8823 138.89 47.8823 138.077C47.8823 137.24 51.0194 136.562 54.8891 136.562Z" fill="#00160A"/>
<path fill-rule="evenodd" clip-rule="evenodd" d="M54.8893 136.941L54.5742 136.942C51.1261 136.979 48.2612 137.612 48.2612 138.077C48.2612 138.556 51.3023 139.592 54.8893 139.592L55.2043 139.59C58.6524 139.553 61.5173 138.542 61.5173 138.077C61.5173 137.598 58.4762 136.941 54.8893 136.941Z" fill="white"/>
<path fill-rule="evenodd" clip-rule="evenodd" d="M60.3353 87.6727C60.5087 87.915 60.7231 88.1381 60.9761 88.3332C61.2432 88.5414 61.5535 88.6712 61.8629 88.7626C62.4668 88.9241 63.0629 89.086 63.679 89.1864C65.5765 89.4958 70.3311 90.0155 70.7984 90.1026C71.1136 90.1948 71.4439 90.0129 71.5352 89.6971C71.6265 89.3813 71.4443 89.0506 71.1291 88.9584C70.6538 88.7681 70.1837 88.5884 69.6929 88.4623C68.9661 88.2749 68.2196 88.1872 67.4757 88.101C66.2077 87.9502 64.9356 87.8249 63.6613 87.7462C63.1199 87.7146 62.586 87.7226 62.0447 87.6859C61.8771 87.6795 61.7088 87.6549 61.542 87.601C61.2568 87.511 60.9815 87.4041 60.7498 87.2467L60.1319 86.7841C60.0647 86.7829 60.0095 86.8392 60.0097 86.9076C60.0099 86.9759 60.2882 87.5999 60.3353 87.6727Z" fill="#00160A"/>
<path fill-rule="evenodd" clip-rule="evenodd" d="M66.2762 92.2043C66.5981 92.5516 67.1274 92.8421 67.711 92.9294C68.3029 93.0146 68.9115 92.8705 69.3228 92.6411C69.4494 92.5778 69.5008 92.4227 69.4374 92.296C69.3741 92.1693 69.2199 92.1191 69.0934 92.1824C68.8116 92.3047 68.4353 92.3244 68.0487 92.3069C67.886 92.2982 67.7221 92.2764 67.5592 92.2632C67.1339 92.2239 66.729 92.1912 66.433 92.0142C66.3806 91.9727 66.3028 91.9793 66.2596 92.0317C66.2163 92.0841 66.2238 92.1606 66.2762 92.2043Z" fill="#00160A"/>
<path fill-rule="evenodd" clip-rule="evenodd" d="M194.95 9.08284C195.472 9.11374 195.87 9.56198 195.839 10.084L195.735 11.8901C194.985 25.2439 194.81 36.5511 195.209 45.8088L195.227 46.222C195.667 55.952 196.741 69.6697 199.202 91.1227C199.42 91.276 199.573 91.5204 199.601 91.8072C199.652 92.3277 199.271 92.7905 198.75 92.8409C186.554 94.0228 175.206 94.8094 164.705 95.2009L163.271 95.2521C152.577 95.6176 137.087 95.7952 116.797 95.7853C116.274 95.785 115.851 95.3609 115.851 94.838C115.851 94.315 116.275 93.8913 116.798 93.8916L121.068 93.8908C139.652 93.8748 153.915 93.6901 163.852 93.337L165.384 93.2799C175.269 92.8952 185.906 92.1613 197.297 91.078C196.894 87.0321 193.757 55.3339 193.349 46.6035L193.335 46.3075C192.891 36.4889 193.096 24.3783 193.949 9.9721C193.978 9.47096 194.393 9.08399 194.888 9.08118L194.95 9.08284ZM108.054 10.9936C108.573 10.9242 109.049 11.2881 109.118 11.8064L109.461 14.3866C111.528 30.0371 112.896 42.4776 113.566 51.712L113.629 52.6052C114.308 62.4143 114.731 76.6485 114.899 95.3137C114.904 95.8366 114.483 96.2643 113.961 96.269C113.438 96.2737 113.01 95.8536 113.005 95.3307L112.978 92.5694C112.801 75.8369 112.408 62.8544 111.8 53.6267L111.74 52.7359C111.064 42.973 109.565 29.4118 107.241 12.0577C107.172 11.5394 107.536 11.063 108.054 10.9936Z" fill="#00160A"/>
<path fill-rule="evenodd" clip-rule="evenodd" d="M44.9088 98.6982C45.4317 98.6945 45.8587 99.1154 45.8624 99.6383C45.8661 100.161 45.4452 100.588 44.9223 100.592C34.4809 100.666 27.3221 103.678 23.337 109.582C18.6139 116.58 14.1604 127.999 14.4496 142.779C14.6647 153.775 37.7901 152.03 43.3348 151.736C44.0751 151.696 44.5794 152.09 44.5738 152.149C44.5317 152.592 44.1801 152.958 43.7205 153.001C36.9638 153.642 31.2842 152.982 26.7025 152.519C17.0129 151.54 12.2332 148.815 12.5585 142.678C13.3567 127.624 17.5947 115.827 22.5249 108.523C26.9023 102.037 33.8949 98.7768 44.9088 98.6982Z" fill="#00160A"/>
<path fill-rule="evenodd" clip-rule="evenodd" d="M45.0873 60.0341C44.1406 60.9604 44.0092 62.9528 44.282 66.4586L44.3134 66.847C44.3532 67.3241 44.399 67.8138 44.4563 68.3815L44.7591 71.3579C44.8499 72.3091 44.8503 72.5011 44.8199 72.6781L44.7837 72.8777C44.5246 74.289 43.892 75.7411 43.6532 76.459L43.6026 76.6052L43.5741 76.5616C41.5822 73.5555 39.7554 71.3733 38.0069 70.7803C35.8719 70.0562 34.0304 71.1274 32.6507 73.6811L32.5706 73.8318C30.059 78.6395 32.8298 81.6145 39.4871 83.1242L39.6167 83.1529L39.8187 83.6531C46.2535 99.4091 55.4599 106.123 68.0091 102.717C76.5525 100.398 81.6034 92.8933 83.6033 82.2014C85.0453 74.4925 84.6528 65.1703 83.2335 61.0698C82.797 59.8086 82.0792 59.1318 80.9976 59.0315C80.6293 58.9973 80.2452 59.0298 79.7606 59.1201L79.5298 59.1661C79.1477 59.2482 78.1736 59.478 78.1363 59.4864C76.3265 59.8947 74.8273 60.0283 72.9851 59.8053L72.7317 59.7727C71.5824 59.616 70.4963 59.4394 68.8846 59.1557L66.3092 58.7046C64.128 58.3297 63.2776 58.2168 61.9033 58.0973C59.5535 57.893 57.5098 57.9725 55.5489 58.4021L55.3041 58.4576C54.4583 58.6562 53.8389 58.9589 52.6021 58.5676L52.0187 58.3778C49.2358 57.4758 47.7594 57.4195 45.0873 60.0341ZM51.7252 59.8956C53.4076 60.4488 54.3316 60.606 55.604 60.3312L56.0712 60.2254C59.0881 59.5661 61.398 59.7651 67.8521 60.8967L69.4001 61.1677C70.5958 61.3733 71.5118 61.5176 72.4759 61.649C74.6 61.9386 76.3156 61.8172 78.3031 61.3888L80.3315 60.935C80.6811 60.8623 80.6381 60.8896 80.7642 60.9099L80.8227 60.9171C81.0884 60.9418 81.9896 61.0773 82.2014 61.6892C83.5055 65.4569 83.8842 74.4499 82.4994 81.8533C80.6191 91.9056 75.2238 98.7963 67.513 100.889C55.7629 104.079 46.9292 98.0186 40.8138 82.3663L40.6256 81.8847L40.1188 81.7827L39.7571 81.7075C33.9362 80.4603 31.9703 78.2233 33.938 74.5813C34.9236 72.7571 36.2736 72.1921 37.3987 72.5737C38.7678 73.038 40.4926 74.8278 42.4635 77.9532L42.4855 77.9865C43.3499 79.237 44.5496 78.7579 45.159 77.4301C45.5393 76.6017 45.9006 75.2162 46.2649 73.2343L46.338 72.8293C46.3998 72.4499 46.3709 72.1469 46.0537 69.0844L45.9413 67.9874C45.9011 67.5826 45.867 67.2174 45.8366 66.8649L45.8218 66.6896C45.6973 65.1977 45.6516 64.0092 45.6984 63.0749C45.746 62.1257 45.8984 61.5192 46.0329 61.3876L46.2579 61.1709C48.2126 59.3203 49.3208 59.1352 51.3207 59.7641L51.7252 59.8956Z" fill="#00160A"/>
<path fill-rule="evenodd" clip-rule="evenodd" d="M57.646 37.203C57.9775 37.203 58.3136 37.2146 58.6548 37.2375C60.577 37.3665 62.3104 37.7668 65.1344 38.6315L66.8261 39.1536C69.7696 40.0526 70.7484 40.2634 72.0599 40.2634C82.2285 40.2634 87.4707 43.7128 87.8128 49.3811C88.0752 53.7291 85.0378 58.9019 81.6214 60.6744C81.1572 60.9152 80.5857 60.7342 80.3449 60.27C80.104 59.8058 80.2851 59.2343 80.7493 58.9935C83.511 57.5606 86.1391 53.0848 85.9225 49.4952C85.6537 45.041 81.4225 42.2141 72.3367 42.158L71.8945 42.1563C70.394 42.14 69.2974 41.8917 66.1474 40.9264L64.5928 40.4463C61.8947 39.6198 60.269 39.2438 58.528 39.127C58.2283 39.1069 57.9345 39.0967 57.646 39.0967C45.5758 39.0967 33.6856 49.3811 32.0492 58.9935C31.6513 61.3307 34.2 74.3468 33.6856 74.4406C33.1712 74.5344 32.678 74.1935 32.5842 73.679L32.4734 73.0617C31.3759 66.84 30.1921 61.2217 30.8688 58.277C33.6083 46.3548 44.6785 37.203 57.646 37.203Z" fill="#00160A"/>
<path fill-rule="evenodd" clip-rule="evenodd" d="M71.0637 64.7334C71.6322 64.7334 71.9035 66.004 71.8043 66.33C71.3736 67.7449 72.4516 75.8094 73.2503 77.893L73.288 77.9892C74.4471 80.8737 72.7606 82.7394 68.9402 83.2594C68.422 83.3299 67.9448 82.967 67.8743 82.4488C67.8523 82.2872 67.9941 81.8588 68.3506 81.8899C70.9745 82.119 72.8783 79.8685 72.317 78.3899L72.245 78.2063C71.3286 75.8252 70.2977 70.6264 70.2977 65.6935C70.2977 65.1698 70.5652 64.7334 71.0637 64.7334Z" fill="#00160A"/>
<path fill-rule="evenodd" clip-rule="evenodd" d="M34.8543 81.4317C35.1271 82.0941 34.9053 88.7204 38.3864 92.3129C41.1525 95.1676 44.2984 94.2319 45.0367 93.3477C45.398 92.915 46.0729 93.2986 46.309 93.7652C46.545 94.2319 46.3581 94.8015 45.8915 95.0376C43.5103 96.2421 40.3397 95.795 38.3864 94.1232C34.9932 91.219 34.2529 84.8777 34.2529 82.6282C34.2529 81.7951 34.6113 80.8417 34.8543 81.4317Z" fill="#00160A"/>
<path fill-rule="evenodd" clip-rule="evenodd" d="M74.2496 73.1558C74.5798 72.6589 75.0634 72.6003 75.5531 72.8037C76.0304 73.0019 76.5 73.5131 76.6531 73.8568C76.8794 74.3677 76.8824 75.203 76.6998 75.9977C76.5135 76.8116 76.138 77.5689 75.7318 77.9107C75.3454 78.2328 75.0213 78.363 74.675 77.8518C73.354 75.9015 74.1225 73.3471 74.2496 73.1558Z" fill="#00160A"/>
<path fill-rule="evenodd" clip-rule="evenodd" d="M59.4661 75.0429C59.3226 74.5163 59.3321 71.7933 60.3613 71.7933C61.8917 71.7933 62.087 74.6274 61.8906 75.1996C60.7839 78.4247 59.6095 75.5696 59.4661 75.0429Z" fill="#00160A"/>
<path fill-rule="evenodd" clip-rule="evenodd" d="M72.5764 45.7298C72.2763 45.3157 73.4611 45.1881 73.8926 45.4835C77.5041 47.9563 79.3595 50.3208 79.3274 52.6791C79.2958 54.9953 77.4163 57.5822 73.7729 60.5664C73.3683 60.8978 72.7717 60.8384 72.4404 60.4339C72.109 60.0293 77.1749 56.7755 77.4338 52.6533C77.6927 48.5311 73.1396 46.507 72.5764 45.7298Z" fill="#00160A"/>
<path fill-rule="evenodd" clip-rule="evenodd" d="M78.1869 44.7282C78.0327 44.0565 79.0113 44.0984 79.4708 44.348C82.3853 45.9307 83.8856 48.3842 83.8856 51.5901C83.8856 54.7304 81.7622 57.4659 78.5587 60.6341C78.1869 61.0018 77.5874 60.9985 77.2197 60.6267C76.852 60.2549 82.3905 56.375 82.3905 50.7814C82.3905 45.1877 78.3962 45.6401 78.1869 44.7282Z" fill="#00160A"/>
<ellipse cx="77.2348" cy="81.8334" rx="3.59807" ry="1.32561" fill="#FFB61D"/>
<path fill-rule="evenodd" clip-rule="evenodd" d="M73.3719 65.8645C74.2279 65.5584 75.41 65.747 76.9535 66.3802C77.2161 66.4879 77.4714 66.6287 77.7499 66.8126L77.9434 66.9471C78.302 67.2026 78.9126 67.6575 79.0315 67.7409C79.4192 68.0129 79.7718 68.2266 80.1529 68.4108C80.5165 68.5866 81.1088 68.7486 81.918 68.8866C82.2273 68.9393 82.4353 69.2328 82.3825 69.5421C82.3298 69.8514 78.8133 69.3546 78.3789 69.0498L77.4844 68.3955C77.3285 68.2822 77.1943 68.1861 77.1237 68.1395C76.9024 67.9934 76.7095 67.887 76.5223 67.8102C75.262 67.2932 74.3481 67.1361 73.8124 67.2943L73.7545 67.3132C72.6359 67.0377 73.0765 65.9701 73.3719 65.8645Z" fill="#00160A"/>
<path fill-rule="evenodd" clip-rule="evenodd" d="M45.2636 93.8871C45.6056 93.7566 45.9887 93.9281 46.1191 94.2701C46.527 95.3392 46.7668 97.6904 46.8368 98.3129C46.905 98.9186 46.905 99.5116 46.8364 100.091C46.7934 100.455 46.4638 100.714 46.1003 100.671C45.7368 100.628 45.477 100.299 45.52 99.9352C45.5764 99.458 45.5764 98.967 45.5195 98.4611C45.4645 97.9722 45.2521 95.7163 44.8806 94.7426C44.7501 94.4006 44.9216 94.0176 45.2636 93.8871Z" fill="#00160A"/>
<path fill-rule="evenodd" clip-rule="evenodd" d="M45.4916 100.1C45.8359 99.7068 46.9953 99.0528 46.8277 100.011C46.6601 100.969 44.261 102.084 44.261 103.927C44.261 106.665 45.3165 109.284 49.1129 110.379C62.7119 114.302 67.508 104.315 67.8859 104.677C68.2638 105.038 68.2772 105.637 67.9157 106.015C65.7797 108.249 64.0575 109.737 62.7119 110.495C57.9814 113.156 52.8465 113.684 48.4905 112.168C44.5063 110.781 41.726 106.84 43.3804 102.972C43.6488 102.345 44.34 101.417 45.4916 100.1Z" fill="#00160A"/>
<path fill-rule="evenodd" clip-rule="evenodd" d="M140.678 1.84013C141.107 1.54077 141.697 1.64569 141.996 2.07447C142.295 2.50325 141.811 3.1201 141.383 3.41945C139.954 4.41655 136.514 7.67373 135.809 8.41973L135.132 9.14086C133.803 10.5726 117.966 27.0408 117.585 26.6819C117.237 26.3528 132.689 9.36097 133.848 8.11917L133.892 8.07232C134.987 6.90352 135.999 5.84973 136.968 4.87389C137.926 3.90782 139.163 2.898 140.678 1.84013Z" fill="#E7EAEE"/>
<path fill-rule="evenodd" clip-rule="evenodd" d="M140.678 15.8537C141.107 15.5543 141.697 15.6592 141.996 16.088C142.296 16.5168 142.191 17.1071 141.762 17.4064C140.334 18.4035 118.059 40.8744 117.586 40.6955C117.113 40.5166 119.396 37.8467 119.396 37.8467C120.855 36.3198 133.892 22.4646 133.892 22.4646C134.988 21.2958 136 20.242 136.968 19.2662C137.926 18.3001 139.163 16.9115 140.678 15.8537Z" fill="#00160A"/>
<path fill-rule="evenodd" clip-rule="evenodd" d="M161.596 5.11252C161.95 4.72763 162.549 4.70259 162.934 5.0566C163.319 5.4106 163.344 6.0096 162.99 6.39449C162.99 6.39449 119.919 55.3562 119.527 53.9936C119.311 53.2439 137.425 31.4811 140.274 28.5475L141.064 27.7485C142.401 26.3613 149.016 18.7908 161.596 5.11252Z" fill="#00160A"/>
<path fill-rule="evenodd" clip-rule="evenodd" d="M62.1904 64.7633C62.9713 64.6659 64.3216 64.7993 65.8028 65.2649C66.3017 65.4217 66.579 65.9532 66.4222 66.4521C66.2654 66.951 65.7338 67.2283 65.235 67.0715C63.9786 66.6766 63.0092 66.4743 62.3521 66.4574L62.1904 66.457C61.96 66.4623 61.7918 66.5026 61.1392 66.752L60.1578 67.1356C59.2176 67.5064 58.5254 67.7244 57.7587 67.8504C56.8943 67.9924 55.59 67.9345 53.7989 67.6909C53.2807 67.6205 52.3949 67.0057 52.9882 66.6252C53.5816 66.2446 56.0909 66.6595 57.2673 66.4521C58.4438 66.2446 60.6769 64.9521 62.1904 64.7633Z" fill="#00160A"/>
<path fill-rule="evenodd" clip-rule="evenodd" d="M21.7249 129.632C25.9889 129.557 27.8059 130.743 27.4136 131.127C27.4136 131.127 22.8841 130.782 21.7249 130.743C20.4995 130.702 14.8903 130.618 14.7358 130.118C14.6771 129.928 14.6812 129.734 14.7362 129.557C14.7937 129.373 15.8961 129.486 17.8024 129.572C18.8713 129.62 20.193 129.659 21.7249 129.632Z" fill="#00160A"/>
<path fill-rule="evenodd" clip-rule="evenodd" d="M28.4658 152.539C28.4658 152.539 28.0822 170.616 30.6483 172.09C31.0027 172.293 30.964 173.078 30.5744 173.427C30.1847 173.776 29.5861 173.742 29.2373 173.353C26.8794 170.719 26.2628 163.284 27.1949 152.342C27.2375 151.842 28.5102 152.018 28.4658 152.539Z" fill="#00160A"/>
<path fill-rule="evenodd" clip-rule="evenodd" d="M87.9011 162.83L87.85 162.833L84.8282 163.112C65.9428 164.879 54.14 166.621 44.8648 168.339L43.9934 168.503C39.518 169.36 35.8436 170.213 33.7083 171.074C31.0375 172.15 28.6344 173.434 29.4868 175.035C30.9723 177.825 34.0983 178.919 40.9464 179.677L41.6768 179.754C46.9707 180.295 52.6603 180.425 67.0839 180.499L72.0124 180.527C89.5947 180.645 99.7625 181.276 112.929 182.083L114.271 182.167C138.518 183.698 157.872 183.453 172.333 181.756L172.77 181.704C184.454 180.299 192.337 177.976 195.766 175.341C197.785 173.789 198.093 172.235 198.149 170.797C198.199 169.504 195.232 167.551 193.537 166.909C188.815 165.121 187.274 164.473 178.196 163.557C160.266 161.75 130.429 161.256 87.9011 162.83ZM178.385 165.063L178.98 165.124C187.443 166.009 192.999 167.287 195.561 168.892L195.721 168.995C197.689 170.304 197.441 171.666 194.612 173.84C191.519 176.217 183.918 178.456 172.544 179.824C158.305 181.535 139.162 181.811 115.121 180.323L112.6 180.166C98.721 179.324 88.0722 179.097 68.3639 178.99L62.9235 178.959C51.19 178.877 46.2028 178.715 41.3884 178.199L40.9307 178.148C34.895 177.458 31.5593 176.197 30.4418 174.22L30.4009 174.145C30.3796 174.105 30.3795 174.106 30.5417 173.942C30.8663 173.613 31.5321 173.229 32.5225 172.83L32.7791 172.729C34.9257 171.903 38.3187 171.057 42.9373 170.201L43.8122 170.042C53.033 168.385 66.784 166.702 85.0558 164.993L87.9945 164.721L90.5032 164.63C131.619 163.156 160.921 163.302 178.385 165.063Z" fill="#00160A"/>
<path d="M135.306 146.61C134.96 159.226 133.972 167.63 132.291 170.57C130.869 173.058 126.095 173.903 120.044 173.494L117.866 173.335C114.907 173.114 113.257 172.952 111.666 172.706L111.449 172.672C108.889 172.263 107.201 171.698 106.254 170.78C102.76 167.393 100.908 159.888 100.554 148.198C100.538 147.675 101.924 148.156 102.447 148.141C102.556 148.137 108.807 148.891 117.411 148.49C122.514 148.252 135.306 146.61 135.306 146.61Z" fill="white"/>
<path fill-rule="evenodd" clip-rule="evenodd" d="M101.623 148.055C101.969 160.671 104.943 168.003 106.624 170.944C108.046 173.432 112.82 174.276 118.871 173.867L121.049 173.709C124.008 173.487 113.153 170.254 109.405 166.159C105.201 161.567 101.623 148.055 101.623 148.055Z" fill="#E7EAEE"/>
<path fill-rule="evenodd" clip-rule="evenodd" d="M104.182 151.962C104.253 151.444 104.892 150.557 105.248 151.152C105.605 151.747 105.765 153.19 106.507 155.032L108.082 158.085C108.221 158.431 108.348 158.751 108.467 159.06L108.537 159.244C109.248 161.108 109.683 162.2 109.838 163.442C109.903 163.961 109.535 164.434 109.016 164.498C108.497 164.563 108.024 164.195 107.959 163.676C107.827 162.62 107.807 161.273 107.146 159.539L107.008 159.18C106.913 158.936 106.812 158.682 106.703 158.413L105.61 155.755C105.421 155.29 105.275 154.921 105.146 154.578L105.043 154.299C104.65 153.217 104.106 152.517 104.182 151.962Z" fill="#00160A"/>
<path fill-rule="evenodd" clip-rule="evenodd" d="M79.253 92.5358C78.6701 92.9787 79.3822 93.6037 79.6102 94.2847C79.6621 94.44 79.7284 94.6 79.8157 94.7872L79.9225 95.0092L80.1639 95.4904L80.2641 95.6945C80.3716 95.9179 80.4479 96.0935 80.5087 96.2607C80.6965 96.7775 80.6788 97.0102 80.5022 97.1677C79.5077 98.0554 78.4512 98.6493 76.4266 99.546L75.3086 100.035C71.9382 101.525 69.6893 102.513 68.4217 104.528C66.749 107.189 67.1951 111.001 68.3616 116.553L68.4165 116.811C68.6402 117.845 68.2107 119.735 67.9018 122.598L67.8793 122.805C67.7529 123.949 67.5898 125.231 67.3666 126.857L66.4771 133.168C66.1411 135.582 65.8911 137.502 65.6746 139.383L65.5926 140.109C64.9414 145.988 64.7537 150.611 65.1308 154.366C65.4579 157.623 67.3657 162.283 69.6168 164.509C72.9243 167.781 76.2116 166.231 79.1859 159.467C80.5152 156.443 81.337 153.605 81.7298 150.721C82.2549 146.864 82.0394 142.931 81.124 137.627L81.029 137.087C80.403 133.649 77.6674 120.979 77.341 119.372L77.2354 118.861L76.5403 115.622C76.4958 115.41 76.4542 115.21 76.4139 115.014L76.2849 114.372C75.7096 111.449 75.5099 109.509 75.7266 108.253C75.7471 108.134 75.8472 107.96 76.0518 107.739C76.3705 107.395 76.8766 107.007 77.6218 106.527L77.9535 106.318C78.651 105.888 80.3114 104.9 80.3231 104.893L80.6799 104.674C84.1859 102.504 85.8347 100.803 85.8347 98.396C85.8347 96.0041 84.8255 94.1762 83.1871 93.0853C81.8251 92.1783 80.1098 91.8848 79.253 92.5358ZM81.1629 94.7701L80.8372 94.1154L80.8007 94.1082C81.2245 94.1807 81.7014 94.3711 82.1375 94.6615C83.2559 95.4062 83.9409 96.6469 83.9409 98.396C83.9409 99.8922 82.6197 101.246 79.6692 103.072L79.1534 103.385C78.6488 103.686 77.2676 104.511 76.7895 104.811L76.7497 104.837C75.7988 105.44 75.138 105.939 74.6622 106.453C74.2295 106.92 73.9515 107.403 73.8605 107.931C73.5797 109.558 73.8251 111.773 74.5123 115.167L74.687 116.011L75.3239 118.974L75.6813 120.688C76.412 124.147 78.6662 134.64 79.1827 137.52L79.1996 137.615C80.1338 142.916 80.3591 146.75 79.8533 150.465C79.485 153.171 78.7124 155.839 77.4523 158.705C76.0919 161.799 74.7245 163.532 73.4666 164.064C72.5259 164.461 71.5831 164.165 70.5697 163.163C68.6626 161.277 66.9225 157.026 66.6362 154.176C66.2751 150.58 66.4586 146.071 67.0967 140.311L67.1771 139.599C67.401 137.655 67.6616 135.663 68.0183 133.112L68.7949 127.615L68.9616 126.397C69.1277 125.163 69.2575 124.13 69.3632 123.188L69.4299 122.575C69.7316 119.709 69.7812 117.772 69.5294 116.504L69.51 116.411C68.3742 111.158 68.2538 107.751 69.646 105.537C70.632 103.969 72.2414 103.137 75.1569 101.838L76.4559 101.269C78.6426 100.3 79.8273 99.6323 81.0057 98.5806C81.8767 97.8032 81.9546 96.7795 81.531 95.6139C81.4349 95.3494 81.3219 95.0944 81.1629 94.7701Z" fill="#00160A"/>
<path d="M81.1628 94.77L80.8372 94.1153L80.8007 94.1082C81.2244 94.1807 81.7013 94.371 82.1375 94.6615C83.2559 95.4062 83.9409 96.6469 83.9409 98.3959C83.9409 99.8921 82.6196 101.246 79.6692 103.072L79.1534 103.385C78.6487 103.686 77.2675 104.511 76.7894 104.811L76.7496 104.836C75.7987 105.44 75.1379 105.939 74.6621 106.453C74.2294 106.92 73.9515 107.403 73.8604 107.931C73.5796 109.557 73.825 111.773 74.5122 115.167L74.6869 116.011L75.3239 118.974L75.6813 120.688C76.4119 124.146 78.6661 134.64 79.1826 137.52L79.1995 137.615C80.1337 142.916 80.3591 146.75 79.8533 150.465C79.485 153.171 78.7123 155.839 77.4523 158.705C76.0918 161.799 74.7244 163.532 73.4665 164.063C72.5258 164.461 71.583 164.165 70.5696 163.163C68.6626 161.277 66.9224 157.026 66.6362 154.176C66.275 150.58 66.4585 146.071 67.0966 140.311L67.1771 139.599C67.401 137.655 67.6615 135.663 68.0182 133.112L68.7948 127.615L68.9615 126.397C69.1276 125.163 69.2575 124.13 69.3632 123.188L69.4298 122.575C69.7315 119.709 69.7811 117.772 69.5293 116.504L69.5099 116.411C68.3742 111.158 68.2538 107.75 69.646 105.536C70.6319 103.969 72.2413 103.137 75.1568 101.838L76.4559 101.269C78.6425 100.3 79.8272 99.6322 81.0056 98.5805C81.8766 97.8031 81.9545 96.7794 81.5309 95.6139C81.4348 95.3493 81.3219 95.0943 81.1628 94.77Z" fill="white"/>
<path fill-rule="evenodd" clip-rule="evenodd" d="M75.0398 107.469C75.2986 107.014 75.8767 106.856 76.3311 107.115C81.7972 110.228 84.9292 113.975 85.6336 118.361C86.3121 122.584 81.8899 144.563 81.3788 144.452C80.8677 144.341 80.5432 143.837 80.654 143.326L80.8931 142.213C83.4216 130.34 84.3728 122.452 83.7639 118.661C83.162 114.914 80.4033 111.613 75.394 108.76C74.9395 108.501 74.781 107.923 75.0398 107.469Z" fill="#00160A"/>
<path fill-rule="evenodd" clip-rule="evenodd" d="M77.2892 94.8019C77.7292 94.5192 78.315 94.6467 78.5976 95.0867C79.0846 95.8446 79.3763 96.4617 79.4674 96.9886C79.5572 97.5078 79.4967 98.2042 79.3065 99.131C79.2013 99.6433 78.7008 99.9733 78.1886 99.8681C77.9488 99.8189 77.749 99.6831 77.615 99.5C77.4627 99.2919 78.3589 98.7502 78.3589 97.3113C78.3589 95.8724 76.8492 95.0845 77.2892 94.8019Z" fill="#00160A"/>
<path fill-rule="evenodd" clip-rule="evenodd" d="M76.9435 96.2613C77.1728 96.0699 77.3745 96.7917 77.33 97.1477C77.2626 97.6866 77.2626 99.6221 76.5011 100.536C76.1993 100.899 75.7062 101.203 75.2358 100.975C75.0278 100.874 75.6763 99.9701 76.0702 98.9487C76.3556 98.2088 76.5782 97.4163 76.7292 96.8848C76.8413 96.4905 76.706 96.4594 76.9435 96.2613Z" fill="#00160A"/>
<path fill-rule="evenodd" clip-rule="evenodd" d="M134.383 145.596C134.905 145.609 135.319 146.044 135.305 146.566L135.285 147.345C134.939 159.961 133.972 167.63 132.291 170.57C130.869 173.058 126.095 173.903 120.044 173.494L117.866 173.335C114.907 173.114 113.257 172.952 111.666 172.706L111.449 172.672C108.889 172.263 107.201 171.698 106.254 170.78C102.76 167.393 100.908 159.888 100.554 148.198C100.538 147.675 100.949 147.239 101.472 147.223C101.995 147.207 102.431 147.618 102.447 148.141L102.469 148.809C102.858 159.651 104.604 166.543 107.572 169.421L107.643 169.487C108.737 170.455 111.448 170.935 117.737 171.425L119.971 171.59L120.36 171.616C125.583 171.943 129.754 171.193 130.647 169.631C132.139 167.02 133.094 159.238 133.412 146.519C133.425 145.996 133.86 145.583 134.383 145.596Z" fill="#00160A"/>
<path fill-rule="evenodd" clip-rule="evenodd" d="M100.019 110.462C100.2 109.972 103.223 110.722 104.025 111.192C104.32 111.365 111.06 114.526 113.001 115.741C115.463 117.284 117.195 123.932 116.611 131.394C116.525 132.493 115.862 133.703 114.662 135.083C114.319 135.478 113.721 135.519 113.326 135.176C112.932 134.833 112.89 134.235 113.233 133.84C114.191 132.739 114.675 131.855 114.723 131.246L114.753 130.84C115.206 124.214 114.036 118.012 112.442 117.014L112.133 116.823C110.626 115.91 109.705 115.61 107.862 115.267C107.862 115.267 104.987 112.95 103.853 112.302C101.338 110.866 99.9359 110.688 100.019 110.462Z" fill="#00160A"/>
<path fill-rule="evenodd" clip-rule="evenodd" d="M125.478 102.638C125.849 103.006 118.004 109.737 117.585 110.114C116.302 111.272 115.506 113.9 115.832 117.305L115.851 117.492C115.917 118.129 116.142 120.7 116.151 121.061L116.176 121.59C116.188 121.776 116.205 121.971 116.24 122.308L116.424 124.005C116.733 126.817 116.815 128.785 116.611 131.394C116.525 132.493 115.862 133.703 114.662 135.083C114.319 135.478 113.721 135.52 113.326 135.176C112.932 134.833 115.386 131.501 115.434 130.892C115.62 128.52 114.342 122.368 114.342 122.368C114.288 121.829 114.281 121.654 114.262 121.206C114.237 120.63 114.292 120.179 114.458 119.36L114.589 118.729C114.723 118.059 114.761 117.72 114.73 117.366L114.725 117.31C114.5 115.158 114.627 113.414 115.058 112.01C115.446 110.747 116.08 109.759 116.926 108.995C117.298 108.66 117.676 108.396 118.127 108.131L118.66 107.827C118.727 107.788 118.77 107.761 118.796 107.741L118.874 107.682C119.614 107.108 125.107 102.269 125.478 102.638Z" fill="#00160A"/>
<path fill-rule="evenodd" clip-rule="evenodd" d="M134.259 116.885C134.387 117.392 121.759 121.62 120.08 123.06C117.78 125.03 116.552 127.893 116.903 130.449L116.925 130.591C117.154 132.012 116.564 133.5 114.557 135.187C114.156 135.523 113.559 135.471 113.222 135.071C112.886 134.671 112.938 134.073 113.338 133.737C114.878 132.443 115.524 131.451 115.434 130.892C114.905 127.614 116.406 124.039 119.226 121.622C121.27 119.87 134.131 116.378 134.259 116.885Z" fill="#00160A"/>
<path fill-rule="evenodd" clip-rule="evenodd" d="M95.6083 107.906C99.7841 106.974 103.408 106.974 106.474 107.926C109.762 108.947 111.48 111.264 111.48 114.683C111.48 114.866 111.428 115.037 111.339 115.182L111.296 115.243L111.328 115.291C111.38 115.375 111.419 115.468 111.443 115.568L111.455 115.629C111.543 116.145 111.197 116.634 110.681 116.722L110.194 116.803C105.221 117.618 101.966 117.607 100.277 116.674C98.5614 115.726 96.8287 113.256 94.956 109.23C94.7011 108.682 95.0182 108.038 95.6083 107.906ZM105.912 109.735C103.507 108.988 100.654 108.901 97.349 109.488L97.1938 109.516L97.2278 109.584C98.6902 112.517 100.016 114.322 101.124 114.977L101.193 115.016C102.307 115.632 104.961 115.676 109.031 115.069L109.633 114.975L109.618 114.925C109.603 114.867 109.593 114.807 109.589 114.745L109.587 114.683C109.587 112.096 108.411 110.511 105.912 109.735Z" fill="#00160A"/>
<path fill-rule="evenodd" clip-rule="evenodd" d="M128.296 98.0385C128.777 98.0468 129.176 98.4154 129.222 98.895C129.556 102.379 129.12 105.025 127.852 106.827C126.484 108.77 123.841 109.383 120.045 108.818C119.548 108.744 119.2 108.297 119.241 107.803L119.244 107.771L119.197 107.758C118.985 107.691 118.796 107.55 118.674 107.349L118.642 107.292C117.332 104.773 117.943 102.432 120.348 100.562C122.526 98.8686 125.114 98.0263 128.078 98.0362L128.296 98.0385ZM127.412 100.091L127.404 99.9445L127.4 99.9447C125.137 100.053 123.182 100.757 121.51 102.057C119.803 103.384 119.449 104.74 120.322 106.418C120.402 106.573 120.436 106.74 120.428 106.902L120.423 106.958L120.498 106.97C123.502 107.391 125.384 106.957 126.254 105.804L126.303 105.737C127.157 104.524 127.541 102.644 127.412 100.091Z" fill="#00160A"/>
<path d="M48.437 141.887C49.5618 141.924 49.9843 143.184 49.3291 144.45C48.8756 145.326 47.767 146.247 46.6219 146.789C45.968 147.098 45.2102 147.139 44.367 146.926C44.0627 146.85 43.8782 146.541 43.9548 146.237C44.0315 145.932 44.3403 145.748 44.6445 145.824C45.2471 145.976 44.7784 145.141 44.7439 144.829C44.7094 144.517 44.9342 144.236 45.2461 144.202C45.8175 144.139 46.1162 143.843 46.4063 143.644C46.4876 143.589 46.5937 143.478 46.7426 143.291L46.9114 143.073L46.9698 142.996C47.6104 142.145 47.8614 141.886 48.3784 141.886L48.437 141.887Z" fill="white"/>
<path fill-rule="evenodd" clip-rule="evenodd" d="M48.437 141.887C49.5618 141.924 49.9843 143.184 49.3291 144.45C48.8756 145.326 47.767 146.247 46.6219 146.789C45.968 147.098 45.2102 147.139 44.367 146.926C44.0627 146.85 43.8782 146.541 43.9548 146.237C44.0315 145.932 44.3403 145.748 44.6445 145.824C45.2471 145.976 45.7381 145.95 46.1359 145.762C47.0754 145.317 47.997 144.552 48.32 143.927C48.5062 143.568 48.5462 143.286 48.4897 143.118C48.4775 143.081 48.4644 143.058 48.4496 143.043L48.4347 143.032L48.415 143.047C48.3985 143.06 48.38 143.076 48.3596 143.095L48.3278 143.126C48.2328 143.221 48.1463 143.325 47.978 143.546L47.7509 143.846C47.4728 144.21 47.2788 144.424 47.048 144.582C46.5868 144.898 46.114 145.249 45.371 145.331C45.0592 145.366 44.7784 145.141 44.7439 144.829C44.7094 144.517 44.9342 144.236 45.2461 144.202C45.8175 144.139 46.1162 143.843 46.4063 143.644C46.4876 143.589 46.5937 143.478 46.7426 143.291L46.9114 143.073L46.9698 142.996C47.6104 142.145 47.8614 141.886 48.3784 141.886L48.437 141.887Z" fill="#00160A"/>
<path fill-rule="evenodd" clip-rule="evenodd" d="M48.8433 144.419C49.5338 144.442 49.7871 145.048 49.7315 145.757C49.6901 146.286 49.4765 146.852 49.1527 147.213C48.7428 147.67 48.1704 148.062 47.3952 148.467L47.2374 148.548C46.9576 148.69 46.7641 148.782 46.2523 149.019C45.6243 149.309 44.7878 149.413 43.7356 149.349C43.4225 149.33 43.1841 149.06 43.2032 148.747C43.2224 148.434 43.4917 148.196 43.8049 148.215C44.6855 148.269 45.3445 148.187 45.775 147.987L46.3088 147.738C46.4645 147.664 46.583 147.606 46.7235 147.535C47.4642 147.159 47.9854 146.812 48.3069 146.454C48.439 146.307 48.5548 146.017 48.5909 145.742L48.5988 145.668L48.5995 145.652L48.5553 145.679C48.4458 145.787 47.0671 146.616 46.9181 146.646C44.9783 147.032 45.3319 146.878 44.5889 146.96C44.2771 146.994 43.9963 146.77 43.9618 146.458C43.9273 146.146 44.1521 145.865 44.464 145.831C44.6694 145.808 45.0556 146.174 45.4834 146.14C45.849 146.111 46.7545 145.646 46.7545 145.646L47.1449 145.32C47.2415 145.24 47.3251 145.172 47.4056 145.108L47.5973 144.96C48.0915 144.588 48.4569 144.406 48.8433 144.419Z" fill="#00160A"/>
<path fill-rule="evenodd" clip-rule="evenodd" d="M46.8574 149.951C47.6276 149.671 48.2599 150.36 48.5562 151.019C48.8777 151.734 48.4832 152.364 47.7367 152.826C47.2308 153.138 46.5437 153.377 46.0308 153.434C45.308 153.516 44.4486 153.274 43.4341 152.734C43.1571 152.587 43.0521 152.243 43.1996 151.966C43.347 151.689 43.691 151.584 43.968 151.731C44.7984 152.174 45.4497 152.357 45.9034 152.305C46.2492 152.266 46.7758 152.084 47.1393 151.859C47.3201 151.747 48.0924 151.019 47.2463 151.019C46.9269 151.019 46.5625 150.842 46.518 150.68C46.4735 150.517 46.5625 150.059 46.8574 149.951Z" fill="#00160A"/>
<path fill-rule="evenodd" clip-rule="evenodd" d="M57.6747 137.949C57.7979 137.886 57.9835 137.995 57.9991 138.126L57.9996 138.154L57.9556 138.601L59.2668 137.948C59.3347 137.912 59.4437 137.935 59.5257 138L59.5552 138.026C59.63 138.101 59.6429 138.189 59.5897 138.237L59.5666 138.253L57.8264 139.082C57.6854 139.144 57.4898 139.035 57.4851 138.905L57.4869 138.877L57.4227 138.601L56.0895 139.082C55.9523 139.139 55.783 139.052 55.7736 138.93L55.7743 138.901L55.7458 138.561L54.1125 139.083C53.9589 139.14 53.8024 139.043 53.8264 138.917L53.8343 138.889L53.8568 138.561L52.5468 139.025C52.3955 139.084 52.2509 139.003 52.2726 138.882L52.2806 138.853L52.3552 138.515L51.1479 138.859C51.0053 138.909 50.8831 138.843 50.8991 138.734L50.906 138.706L51.0357 138.33L50.068 138.561C49.9633 138.586 49.8801 138.549 49.8681 138.477L49.8672 138.449C49.8742 138.37 49.9545 138.286 50.0531 138.249L50.0907 138.237L51.3045 137.939C51.4261 137.908 51.5183 137.974 51.5058 138.073L51.4997 138.101L51.3955 138.438L52.6992 137.948C52.8352 137.894 52.9614 137.976 52.9449 138.094L52.9384 138.122L52.79 138.574L54.239 137.95C54.3768 137.887 54.5272 137.985 54.5117 138.113L54.5057 138.141L54.3508 138.622L55.9575 137.948C56.0797 137.893 56.2342 137.979 56.2497 138.101L56.2507 138.129L56.2159 138.63L57.6747 137.949Z" fill="#FFB61D"/>
<ellipse rx="3.91653" ry="1.10042" transform="matrix(0.987716 0.156259 -0.156258 0.987716 60.2101 80.698)" fill="#FFB61D"/>
<path fill-rule="evenodd" clip-rule="evenodd" d="M29.1691 105.889L29.8526 107.326L31.3861 107.749L30.231 108.843L30.302 110.433L28.9046 109.672L27.415 110.231L27.7065 108.667L26.7148 107.423L28.2924 107.217L29.1691 105.889Z" fill="#00160A"/>
<path fill-rule="evenodd" clip-rule="evenodd" d="M40.2368 103.237L40.7307 104.334L41.8462 104.654L41.0023 105.494L41.0498 106.71L40.0343 106.132L38.9483 106.563L39.1646 105.366L38.4458 104.416L39.595 104.255L40.2368 103.237Z" fill="#00160A"/>
<path fill-rule="evenodd" clip-rule="evenodd" d="M47.812 125.961L48.3059 127.059L49.4214 127.379L48.5775 128.219L48.625 129.435L47.6095 128.857L46.5235 129.288L46.7398 128.091L46.021 127.141L47.1702 126.979L47.812 125.961Z" fill="#00160A"/>
<path fill-rule="evenodd" clip-rule="evenodd" d="M80.7627 118.386L81.2566 119.484L82.3721 119.804L81.5281 120.644L81.5757 121.86L80.5602 121.282L79.4741 121.713L79.6905 120.516L78.9717 119.566L80.1208 119.404L80.7627 118.386Z" fill="#00160A"/>
<path fill-rule="evenodd" clip-rule="evenodd" d="M31.9048 154.746L32.3987 155.843L33.5142 156.163L32.6702 157.004L32.7178 158.22L31.7023 157.641L30.6162 158.073L30.8326 156.875L30.1138 155.926L31.2629 155.764L31.9048 154.746Z" fill="#00160A"/>
<path fill-rule="evenodd" clip-rule="evenodd" d="M31.5521 164.594L32.1558 165.935L33.5191 166.327L32.4877 167.354L32.5458 168.84L31.3047 168.133L29.9772 168.66L30.2416 167.197L29.3631 166.036L30.7677 165.838L31.5521 164.594Z" fill="#00160A"/>
<path fill-rule="evenodd" clip-rule="evenodd" d="M42.9144 158.913L43.5181 160.254L44.8814 160.646L43.85 161.672L43.9081 163.159L42.667 162.452L41.3395 162.979L41.6039 161.515L40.7254 160.355L42.13 160.157L42.9144 158.913Z" fill="#00160A"/>
<path fill-rule="evenodd" clip-rule="evenodd" d="M58.0644 154.368L58.668 155.709L60.0314 156.101L58.9999 157.128L59.058 158.614L57.8169 157.907L56.4894 158.434L56.7538 156.97L55.8753 155.81L57.2799 155.612L58.0644 154.368Z" fill="#00160A"/>
<path fill-rule="evenodd" clip-rule="evenodd" d="M35.6081 122.554L36.2916 123.99L37.8251 124.414L36.67 125.508L36.741 127.097L35.3436 126.337L33.8539 126.896L34.1454 125.332L33.1538 124.087L34.7313 123.881L35.6081 122.554Z" fill="#00160A"/>
<path fill-rule="evenodd" clip-rule="evenodd" d="M37.5017 111.949L38.1851 113.386L39.7186 113.809L38.5635 114.903L38.6345 116.493L37.2371 115.732L35.7475 116.291L36.039 114.727L35.0474 113.483L36.6249 113.277L37.5017 111.949Z" fill="#00160A"/>
<path fill-rule="evenodd" clip-rule="evenodd" d="M54.5451 118.388L55.2286 119.824L56.7621 120.248L55.607 121.342L55.678 122.931L54.2806 122.171L52.7909 122.729L53.0824 121.165L52.0908 119.921L53.6684 119.715L54.5451 118.388Z" fill="#00160A"/>
<path fill-rule="evenodd" clip-rule="evenodd" d="M64.3923 113.464L65.0758 114.901L66.6093 115.324L65.4541 116.418L65.5251 118.008L64.1277 117.247L62.6381 117.806L62.9296 116.242L61.938 114.998L63.5155 114.792L64.3923 113.464Z" fill="#00160A"/>
<path fill-rule="evenodd" clip-rule="evenodd" d="M61.3625 128.614L62.046 130.05L63.5795 130.474L62.4243 131.568L62.4953 133.157L61.098 132.397L59.6083 132.955L59.8998 131.391L58.9082 130.147L60.4857 129.941L61.3625 128.614Z" fill="#00160A"/>
<path fill-rule="evenodd" clip-rule="evenodd" d="M36.3654 133.537L37.0489 134.974L38.5824 135.398L37.4273 136.492L37.4983 138.081L36.1009 137.32L34.6113 137.879L34.9028 136.315L33.9111 135.071L35.4887 134.865L36.3654 133.537Z" fill="#00160A"/>
<path fill-rule="evenodd" clip-rule="evenodd" d="M26.6151 116.872L27.227 118.096L28.5922 118.46L27.5677 119.388L27.6352 120.74L26.3902 120.089L25.0666 120.56L25.3217 119.231L24.4362 118.17L25.8389 117.999L26.6151 116.872Z" fill="#00160A"/>
<path fill-rule="evenodd" clip-rule="evenodd" d="M19.7977 124.825L20.4096 126.049L21.7748 126.414L20.7503 127.341L20.8178 128.693L19.5728 128.043L18.2493 128.514L18.5043 127.184L17.6188 126.123L19.0215 125.952L19.7977 124.825Z" fill="#00160A"/>
<path fill-rule="evenodd" clip-rule="evenodd" d="M69.4698 104.968C69.4883 105.491 69.0458 105.928 68.523 105.915C65.9107 105.849 65.4954 101.357 65.746 101.339C66.0928 101.314 66.6854 103.448 67.8518 104.225C68.7411 104.817 69.4189 103.528 69.4698 104.968Z" fill="#00160A"/>
<path fill-rule="evenodd" clip-rule="evenodd" d="M126.788 114.275C132.946 112.221 138.246 112.144 142.656 114.087C143.468 114.445 143.386 115.624 142.531 115.865L142.206 115.959C140.938 116.334 140.053 116.704 139.577 117.039L139.481 117.11L139.442 117.14C139.083 117.421 138.699 117.787 138.195 118.322L136.67 119.975C136.6 120.052 136.538 120.117 136.49 120.168C134.441 122.32 132.662 123.578 130.364 124.127C127.218 124.878 123.878 124.513 120.369 123.051C120.088 122.933 119.893 122.696 119.819 122.423L119.817 122.415L119.768 122.393C119.428 122.229 119.21 121.872 119.235 121.481L119.241 121.419C119.665 118.167 122.242 115.791 126.788 114.275ZM139.181 114.941C135.801 114.204 131.874 114.574 127.387 116.071C123.714 117.296 121.703 119.011 121.202 121.203L121.173 121.334L121.318 121.393C124.316 122.602 127.115 122.909 129.733 122.329L129.924 122.285C131.737 121.852 133.21 120.835 134.958 119.029L135.2 118.776C135.611 118.337 136.581 117.274 136.701 117.147C137.322 116.481 137.797 116.022 138.277 115.648L138.381 115.568C138.624 115.385 138.92 115.208 139.269 115.035L139.373 114.984L139.181 114.941Z" fill="#00160A"/>
<path fill-rule="evenodd" clip-rule="evenodd" d="M140.678 0.703898C141.107 0.404544 141.697 0.509463 141.996 0.93824C142.295 1.36702 141.811 1.98387 141.383 2.28322C139.954 3.28032 136.514 6.5375 135.809 7.28351L135.132 8.00464C133.803 9.43634 117.966 25.9046 117.585 25.5457C117.237 25.2166 132.689 8.22475 133.848 6.98294L133.892 6.9361C134.987 5.76729 135.999 4.7135 136.968 3.73766C137.926 2.77159 139.163 1.76177 140.678 0.703898Z" fill="#00160A"/>
<path fill-rule="evenodd" clip-rule="evenodd" d="M138.759 63.6067C137.025 65.1778 137.378 70.4244 139.637 79.6582C139.743 80.0911 140.287 80.2329 140.591 79.9064L140.968 79.4982C144.811 75.3096 147.016 72.0322 147.586 69.6135C147.937 68.1269 147.581 67.1435 146.397 67.1435L146.322 67.145C145.613 67.1738 144.638 67.6046 143.347 68.4337L143.172 68.5472L143.169 68.5328C142.727 66.4198 142.223 64.9353 141.637 64.0584C140.845 62.8733 139.771 62.6899 138.759 63.6067ZM140.706 64.6807C141.262 65.5117 141.781 67.1575 142.236 69.5881C142.311 69.9881 142.774 70.1772 143.107 69.944C144.713 68.8212 145.843 68.2635 146.397 68.2635C146.632 68.2635 146.706 68.4677 146.496 69.3566L146.47 69.463C145.94 71.5345 144.006 74.4484 140.668 78.1619L140.479 78.3715L140.365 77.8812C138.556 70.0808 138.323 65.5129 139.511 64.4368C139.997 63.9962 140.281 64.0447 140.706 64.6807Z" fill="#FFB61D"/>
<path fill-rule="evenodd" clip-rule="evenodd" d="M128.082 76.2138C127.72 76.7448 127.44 77.5797 127.221 78.7374L127.193 78.8934L127.116 78.8453L126.858 78.6895C125.978 78.1681 125.317 77.899 124.825 77.8788C123.772 77.8353 123.505 78.6949 123.866 79.893C124.46 81.8271 126.481 84.2669 129.701 86.9182C130.026 87.1858 130.519 87.0125 130.605 86.6004L130.692 86.1793C131.866 80.4151 131.862 77.2012 130.508 76.0129L130.458 75.9709C129.634 75.2603 128.75 75.2993 128.132 76.1433L128.082 76.2138ZM129.773 76.8586C130.629 77.6335 130.67 80.344 129.757 85.1348L129.695 85.4484L129.577 85.3459C127.002 83.1032 125.403 81.0828 124.938 79.5671L124.915 79.4897C124.859 79.2886 124.832 79.1318 124.827 79.0268L124.826 79.0016L124.864 79.0066C125.286 79.0734 126.121 79.5032 127.298 80.2982C127.641 80.5302 128.109 80.3217 128.166 79.9111L128.213 79.5902C128.428 78.1811 128.713 77.2452 129.035 76.8052C129.235 76.5329 129.36 76.5148 129.687 76.7851L129.773 76.8586Z" fill="#FFB61D"/>
</svg>
